<?xml version="1.0" standalone="no"?>
<!DOCTYPE svg PUBLIC "-//W3C//DTD SVG 1.1//EN" "http://www.w3.org/Graphics/SVG/1.1/DTD/svg11.dtd" >
<svg xmlns="http://www.w3.org/2000/svg" xmlns:xlink="http://www.w3.org/1999/xlink" version="1.1">
<metadata></metadata>
<defs>
<font id="ledsitex_stregular" horiz-adv-x="993" >
<font-face units-per-em="2048" ascent="1638" descent="-410" />
<missing-glyph horiz-adv-x="508" />
<glyph horiz-adv-x="0" />
<glyph unicode="&#xd;" horiz-adv-x="508" />
<glyph unicode=" "  horiz-adv-x="508" />
<glyph unicode="&#x09;" horiz-adv-x="508" />
<glyph unicode="&#xa0;" horiz-adv-x="508" />
<glyph unicode="!" horiz-adv-x="672" d="M207 60q0 42 60 52q42 0 52 -60q0 -42 -60 -52q-42 0 -52 60zM207 204q0 42 60 52q42 0 52 -60q0 -42 -60 -52q-42 0 -52 60zM207 636q0 42 60 52q42 0 52 -60q0 -42 -60 -52q-42 0 -52 60zM207 780q0 42 60 52q42 0 52 -60q0 -42 -60 -52q-42 0 -52 60zM207 924 q0 42 60 52q42 0 52 -60q0 -42 -60 -52q-42 0 -52 60zM207 1068q0 42 60 52q42 0 52 -60q0 -42 -60 -52q-42 0 -52 60zM207 1212q0 42 60 52q42 0 52 -60q0 -42 -60 -52q-42 0 -52 60zM207 1356q0 42 60 52q42 0 52 -60q0 -42 -60 -52q-42 0 -52 60zM351 60q0 42 60 52 q42 0 52 -60q0 -42 -60 -52q-42 0 -52 60zM351 204q0 42 60 52q42 0 52 -60q0 -42 -60 -52q-42 0 -52 60zM351 636q0 42 60 52q42 0 52 -60q0 -42 -60 -52q-42 0 -52 60zM351 780q0 42 60 52q42 0 52 -60q0 -42 -60 -52q-42 0 -52 60zM351 924q0 42 60 52q42 0 52 -60 q0 -42 -60 -52q-42 0 -52 60zM351 1068q0 42 60 52q42 0 52 -60q0 -42 -60 -52q-42 0 -52 60zM351 1212q0 42 60 52q42 0 52 -60q0 -42 -60 -52q-42 0 -52 60zM351 1356q0 42 60 52q42 0 52 -60q0 -42 -60 -52q-42 0 -52 60z" />
<glyph unicode="&#x22;" horiz-adv-x="501" d="M7 1216q0 42 60 52q42 0 52 -60q0 -42 -60 -52q-42 0 -52 60zM7 1360q0 42 60 52q42 0 52 -60q0 -42 -60 -52q-42 0 -52 60zM7 1504q0 42 60 52q42 0 52 -60q0 -42 -60 -52q-42 0 -52 60zM7 1648q0 42 60 52q42 0 52 -60q0 -42 -60 -52q-42 0 -52 60zM295 1216 q0 42 60 52q42 0 52 -60q0 -42 -60 -52q-42 0 -52 60zM295 1360q0 42 60 52q42 0 52 -60q0 -42 -60 -52q-42 0 -52 60zM295 1504q0 42 60 52q42 0 52 -60q0 -42 -60 -52q-42 0 -52 60zM295 1648q0 42 60 52q42 0 52 -60q0 -42 -60 -52q-42 0 -52 60z" />
<glyph unicode="#" horiz-adv-x="1336" d="M117 492q0 42 60 52q42 0 52 -60q0 -42 -60 -52q-42 0 -52 60zM117 924q0 42 60 52q42 0 52 -60q0 -42 -60 -52q-42 0 -52 60zM261 60q0 42 60 52q42 0 52 -60q0 -42 -60 -52q-42 0 -52 60zM261 204q0 42 60 52q42 0 52 -60q0 -42 -60 -52q-42 0 -52 60zM261 348 q0 42 60 52q42 0 52 -60q0 -42 -60 -52q-42 0 -52 60zM261 492q0 42 60 52q42 0 52 -60q0 -42 -60 -52q-42 0 -52 60zM261 636q0 42 60 52q42 0 52 -60q0 -42 -60 -52q-42 0 -52 60zM261 780q0 42 60 52q42 0 52 -60q0 -42 -60 -52q-42 0 -52 60zM261 924q0 42 60 52 q42 0 52 -60q0 -42 -60 -52q-42 0 -52 60zM261 1068q0 42 60 52q42 0 52 -60q0 -42 -60 -52q-42 0 -52 60zM261 1212q0 42 60 52q42 0 52 -60q0 -42 -60 -52q-42 0 -52 60zM261 1356q0 42 60 52q42 0 52 -60q0 -42 -60 -52q-42 0 -52 60zM405 492q0 42 60 52q42 0 52 -60 q0 -42 -60 -52q-42 0 -52 60zM405 924q0 42 60 52q42 0 52 -60q0 -42 -60 -52q-42 0 -52 60zM549 492q0 42 60 52q42 0 52 -60q0 -42 -60 -52q-42 0 -52 60zM549 924q0 42 60 52q42 0 52 -60q0 -42 -60 -52q-42 0 -52 60zM693 60q0 42 60 52q42 0 52 -60q0 -42 -60 -52 q-42 0 -52 60zM693 204q0 42 60 52q42 0 52 -60q0 -42 -60 -52q-42 0 -52 60zM693 348q0 42 60 52q42 0 52 -60q0 -42 -60 -52q-42 0 -52 60zM693 492q0 42 60 52q42 0 52 -60q0 -42 -60 -52q-42 0 -52 60zM693 636q0 42 60 52q42 0 52 -60q0 -42 -60 -52q-42 0 -52 60z M693 780q0 42 60 52q42 0 52 -60q0 -42 -60 -52q-42 0 -52 60zM693 924q0 42 60 52q42 0 52 -60q0 -42 -60 -52q-42 0 -52 60zM693 1068q0 42 60 52q42 0 52 -60q0 -42 -60 -52q-42 0 -52 60zM693 1212q0 42 60 52q42 0 52 -60q0 -42 -60 -52q-42 0 -52 60zM693 1356 q0 42 60 52q42 0 52 -60q0 -42 -60 -52q-42 0 -52 60zM837 492q0 42 60 52q42 0 52 -60q0 -42 -60 -52q-42 0 -52 60zM837 924q0 42 60 52q42 0 52 -60q0 -42 -60 -52q-42 0 -52 60z" />
<glyph unicode="$" horiz-adv-x="922" d="M3 64q0 42 60 52q42 0 52 -60q0 -42 -60 -52q-42 0 -52 60zM3 208q0 42 60 52q42 0 52 -60q0 -42 -60 -52q-42 0 -52 60zM3 784q0 42 60 52q42 0 52 -60q0 -42 -60 -52q-42 0 -52 60zM3 928q0 42 60 52q42 0 52 -60q0 -42 -60 -52q-42 0 -52 60zM3 1072q0 42 60 52 q42 0 52 -60q0 -42 -60 -52q-42 0 -52 60zM3 1216q0 42 60 52q42 0 52 -60q0 -42 -60 -52q-42 0 -52 60zM147 64q0 42 60 52q42 0 52 -60q0 -42 -60 -52q-42 0 -52 60zM147 208q0 42 60 52q42 0 52 -60q0 -42 -60 -52q-42 0 -52 60zM147 640q0 42 60 52q42 0 52 -60 q0 -42 -60 -52q-42 0 -52 60zM147 784q0 42 60 52q42 0 52 -60q0 -42 -60 -52q-42 0 -52 60zM147 928q0 42 60 52q42 0 52 -60q0 -42 -60 -52q-42 0 -52 60zM147 1072q0 42 60 52q42 0 52 -60q0 -42 -60 -52q-42 0 -52 60zM147 1216q0 42 60 52q42 0 52 -60q0 -42 -60 -52 q-42 0 -52 60zM147 1360q0 42 60 52q42 0 52 -60q0 -42 -60 -52q-42 0 -52 60zM291 64q0 42 60 52q42 0 52 -60q0 -42 -60 -52q-42 0 -52 60zM291 208q0 42 60 52q42 0 52 -60q0 -42 -60 -52q-42 0 -52 60zM291 640q0 42 60 52q42 0 52 -60q0 -42 -60 -52q-42 0 -52 60z M291 784q0 42 60 52q42 0 52 -60q0 -42 -60 -52q-42 0 -52 60zM291 1216q0 42 60 52q42 0 52 -60q0 -42 -60 -52q-42 0 -52 60zM291 1360q0 42 60 52q42 0 52 -60q0 -42 -60 -52q-42 0 -52 60zM435 64q0 42 60 52q42 0 52 -60q0 -42 -60 -52q-42 0 -52 60zM435 -80 q0 42 60 52q42 0 52 -60q0 -42 -60 -52q-42 0 -52 60zM435 208q0 42 60 52q42 0 52 -60q0 -42 -60 -52q-42 0 -52 60zM435 352q0 42 60 52q42 0 52 -60q0 -42 -60 -52q-42 0 -52 60zM435 496q0 42 60 52q42 0 52 -60q0 -42 -60 -52q-42 0 -52 60zM435 640q0 42 60 52 q42 0 52 -60q0 -42 -60 -52q-42 0 -52 60zM435 784q0 42 60 52q42 0 52 -60q0 -42 -60 -52q-42 0 -52 60zM435 928q0 42 60 52q42 0 52 -60q0 -42 -60 -52q-42 0 -52 60zM435 1072q0 42 60 52q42 0 52 -60q0 -42 -60 -52q-42 0 -52 60zM435 1216q0 42 60 52q42 0 52 -60 q0 -42 -60 -52q-42 0 -52 60zM435 1360q0 42 60 52q42 0 52 -60q0 -42 -60 -52q-42 0 -52 60zM435 1504q0 42 60 52q42 0 52 -60q0 -42 -60 -52q-42 0 -52 60zM579 64q0 42 60 52q42 0 52 -60q0 -42 -60 -52q-42 0 -52 60zM579 208q0 42 60 52q42 0 52 -60q0 -42 -60 -52 q-42 0 -52 60zM579 640q0 42 60 52q42 0 52 -60q0 -42 -60 -52q-42 0 -52 60zM579 784q0 42 60 52q42 0 52 -60q0 -42 -60 -52q-42 0 -52 60zM579 1216q0 42 60 52q42 0 52 -60q0 -42 -60 -52q-42 0 -52 60zM579 1360q0 42 60 52q42 0 52 -60q0 -42 -60 -52q-42 0 -52 60z M723 208q0 42 60 52q42 0 52 -60q0 -42 -60 -52q-42 0 -52 60zM723 352q0 42 60 52q42 0 52 -60q0 -42 -60 -52q-42 0 -52 60zM723 496q0 42 60 52q42 0 52 -60q0 -42 -60 -52q-42 0 -52 60zM723 640q0 42 60 52q42 0 52 -60q0 -42 -60 -52q-42 0 -52 60zM723 1216 q0 42 60 52q42 0 52 -60q0 -42 -60 -52q-42 0 -52 60zM723 1360q0 42 60 52q42 0 52 -60q0 -42 -60 -52q-42 0 -52 60z" />
<glyph unicode="%" horiz-adv-x="1610" d="M62 60q0 42 60 52q42 0 52 -60q0 -42 -60 -52q-42 0 -52 60zM62 204q0 42 60 52q42 0 52 -60q0 -42 -60 -52q-42 0 -52 60zM62 348q0 42 60 52q42 0 52 -60q0 -42 -60 -52q-42 0 -52 60zM62 1212q0 42 60 52q42 0 52 -60q0 -42 -60 -52q-42 0 -52 60zM62 1356q0 42 60 52 q42 0 52 -60q0 -42 -60 -52q-42 0 -52 60zM206 60q0 42 60 52q42 0 52 -60q0 -42 -60 -52q-42 0 -52 60zM206 204q0 42 60 52q42 0 52 -60q0 -42 -60 -52q-42 0 -52 60zM206 348q0 42 60 52q42 0 52 -60q0 -42 -60 -52q-42 0 -52 60zM206 492q0 42 60 52q42 0 52 -60 q0 -42 -60 -52q-42 0 -52 60zM206 636q0 42 60 52q42 0 52 -60q0 -42 -60 -52q-42 0 -52 60zM206 1212q0 42 60 52q42 0 52 -60q0 -42 -60 -52q-42 0 -52 60zM206 1356q0 42 60 52q42 0 52 -60q0 -42 -60 -52q-42 0 -52 60zM350 492q0 42 60 52q42 0 52 -60q0 -42 -60 -52 q-42 0 -52 60zM350 636q0 42 60 52q42 0 52 -60q0 -42 -60 -52q-42 0 -52 60zM350 780q0 42 60 52q42 0 52 -60q0 -42 -60 -52q-42 0 -52 60zM494 780q0 42 60 52q42 0 52 -60q0 -42 -60 -52q-42 0 -52 60zM494 924q0 42 60 52q42 0 52 -60q0 -42 -60 -52q-42 0 -52 60z M638 60q0 42 60 52q42 0 52 -60q0 -42 -60 -52q-42 0 -52 60zM638 204q0 42 60 52q42 0 52 -60q0 -42 -60 -52q-42 0 -52 60zM638 924q0 42 60 52q42 0 52 -60q0 -42 -60 -52q-42 0 -52 60zM638 1068q0 42 60 52q42 0 52 -60q0 -42 -60 -52q-42 0 -52 60zM638 1212 q0 42 60 52q42 0 52 -60q0 -42 -60 -52q-42 0 -52 60zM638 1356q0 42 60 52q42 0 52 -60q0 -42 -60 -52q-42 0 -52 60zM782 60q0 42 60 52q42 0 52 -60q0 -42 -60 -52q-42 0 -52 60zM782 204q0 42 60 52q42 0 52 -60q0 -42 -60 -52q-42 0 -52 60zM782 1068q0 42 60 52 q42 0 52 -60q0 -42 -60 -52q-42 0 -52 60zM782 1212q0 42 60 52q42 0 52 -60q0 -42 -60 -52q-42 0 -52 60zM782 1356q0 42 60 52q42 0 52 -60q0 -42 -60 -52q-42 0 -52 60z" />
<glyph unicode="&#x26;" horiz-adv-x="1108" d="M0 204q0 42 60 52q42 0 52 -60q0 -42 -60 -52q-42 0 -52 60zM0 348q0 42 60 52q42 0 52 -60q0 -42 -60 -52q-42 0 -52 60zM0 492q0 42 60 52q42 0 52 -60q0 -42 -60 -52q-42 0 -52 60zM0 636q0 42 60 52q42 0 52 -60q0 -42 -60 -52q-42 0 -52 60zM0 780q0 42 60 52 q42 0 52 -60q0 -42 -60 -52q-42 0 -52 60zM0 924q0 42 60 52q42 0 52 -60q0 -42 -60 -52q-42 0 -52 60zM0 1068q0 42 60 52q42 0 52 -60q0 -42 -60 -52q-42 0 -52 60zM0 1212q0 42 60 52q42 0 52 -60q0 -42 -60 -52q-42 0 -52 60zM144 60q0 42 60 52q42 0 52 -60 q0 -42 -60 -52q-42 0 -52 60zM144 204q0 42 60 52q42 0 52 -60q0 -42 -60 -52q-42 0 -52 60zM144 348q0 42 60 52q42 0 52 -60q0 -42 -60 -52q-42 0 -52 60zM144 492q0 42 60 52q42 0 52 -60q0 -42 -60 -52q-42 0 -52 60zM144 636q0 42 60 52q42 0 52 -60q0 -42 -60 -52 q-42 0 -52 60zM144 780q0 42 60 52q42 0 52 -60q0 -42 -60 -52q-42 0 -52 60zM144 924q0 42 60 52q42 0 52 -60q0 -42 -60 -52q-42 0 -52 60zM144 1068q0 42 60 52q42 0 52 -60q0 -42 -60 -52q-42 0 -52 60zM144 1212q0 42 60 52q42 0 52 -60q0 -42 -60 -52q-42 0 -52 60z M144 1356q0 42 60 52q42 0 52 -60q0 -42 -60 -52q-42 0 -52 60zM288 60q0 42 60 52q42 0 52 -60q0 -42 -60 -52q-42 0 -52 60zM288 204q0 42 60 52q42 0 52 -60q0 -42 -60 -52q-42 0 -52 60zM288 636q0 42 60 52q42 0 52 -60q0 -42 -60 -52q-42 0 -52 60zM288 780 q0 42 60 52q42 0 52 -60q0 -42 -60 -52q-42 0 -52 60zM288 1212q0 42 60 52q42 0 52 -60q0 -42 -60 -52q-42 0 -52 60zM288 1356q0 42 60 52q42 0 52 -60q0 -42 -60 -52q-42 0 -52 60zM432 60q0 42 60 52q42 0 52 -60q0 -42 -60 -52q-42 0 -52 60zM432 204q0 42 60 52 q42 0 52 -60q0 -42 -60 -52q-42 0 -52 60zM432 636q0 42 60 52q42 0 52 -60q0 -42 -60 -52q-42 0 -52 60zM432 780q0 42 60 52q42 0 52 -60q0 -42 -60 -52q-42 0 -52 60zM432 1212q0 42 60 52q42 0 52 -60q0 -42 -60 -52q-42 0 -52 60zM432 1356q0 42 60 52q42 0 52 -60 q0 -42 -60 -52q-42 0 -52 60zM576 60q0 42 60 52q42 0 52 -60q0 -42 -60 -52q-42 0 -52 60zM576 204q0 42 60 52q42 0 52 -60q0 -42 -60 -52q-42 0 -52 60zM576 348q0 42 60 52q42 0 52 -60q0 -42 -60 -52q-42 0 -52 60zM576 492q0 42 60 52q42 0 52 -60q0 -42 -60 -52 q-42 0 -52 60zM576 636q0 42 60 52q42 0 52 -60q0 -42 -60 -52q-42 0 -52 60zM576 780q0 42 60 52q42 0 52 -60q0 -42 -60 -52q-42 0 -52 60zM576 924q0 42 60 52q42 0 52 -60q0 -42 -60 -52q-42 0 -52 60zM576 1212q0 42 60 52q42 0 52 -60q0 -42 -60 -52q-42 0 -52 60z M576 1356q0 42 60 52q42 0 52 -60q0 -42 -60 -52q-42 0 -52 60zM720 204q0 42 60 52q42 0 52 -60q0 -42 -60 -52q-42 0 -52 60zM720 348q0 42 60 52q42 0 52 -60q0 -42 -60 -52q-42 0 -52 60zM720 492q0 42 60 52q42 0 52 -60q0 -42 -60 -52q-42 0 -52 60zM720 636 q0 42 60 52q42 0 52 -60q0 -42 -60 -52q-42 0 -52 60zM720 780q0 42 60 52q42 0 52 -60q0 -42 -60 -52q-42 0 -52 60zM720 924q0 42 60 52q42 0 52 -60q0 -42 -60 -52q-42 0 -52 60zM720 1212q0 42 60 52q42 0 52 -60q0 -42 -60 -52q-42 0 -52 60zM864 492q0 42 60 52 q42 0 52 -60q0 -42 -60 -52q-42 0 -52 60zM872 204q0 42 60 52q42 0 52 -60q0 -42 -60 -52q-42 0 -52 60z" />
<glyph unicode="'" horiz-adv-x="204" d="M7 1216q0 42 60 52q42 0 52 -60q0 -42 -60 -52q-42 0 -52 60zM7 1360q0 42 60 52q42 0 52 -60q0 -42 -60 -52q-42 0 -52 60zM7 1504q0 42 60 52q42 0 52 -60q0 -42 -60 -52q-42 0 -52 60zM7 1648q0 42 60 52q42 0 52 -60q0 -42 -60 -52q-42 0 -52 60z" />
<glyph unicode="(" horiz-adv-x="652" d="M12 204q0 42 60 52q42 0 52 -60q0 -42 -60 -52q-42 0 -52 60zM12 348q0 42 60 52q42 0 52 -60q0 -42 -60 -52q-42 0 -52 60zM12 492q0 42 60 52q42 0 52 -60q0 -42 -60 -52q-42 0 -52 60zM12 636q0 42 60 52q42 0 52 -60q0 -42 -60 -52q-42 0 -52 60zM12 780q0 42 60 52 q42 0 52 -60q0 -42 -60 -52q-42 0 -52 60zM12 924q0 42 60 52q42 0 52 -60q0 -42 -60 -52q-42 0 -52 60zM12 1068q0 42 60 52q42 0 52 -60q0 -42 -60 -52q-42 0 -52 60zM12 1212q0 42 60 52q42 0 52 -60q0 -42 -60 -52q-42 0 -52 60zM156 60q0 42 60 52q42 0 52 -60 q0 -42 -60 -52q-42 0 -52 60zM156 204q0 42 60 52q42 0 52 -60q0 -42 -60 -52q-42 0 -52 60zM156 348q0 42 60 52q42 0 52 -60q0 -42 -60 -52q-42 0 -52 60zM156 492q0 42 60 52q42 0 52 -60q0 -42 -60 -52q-42 0 -52 60zM156 636q0 42 60 52q42 0 52 -60q0 -42 -60 -52 q-42 0 -52 60zM156 780q0 42 60 52q42 0 52 -60q0 -42 -60 -52q-42 0 -52 60zM156 924q0 42 60 52q42 0 52 -60q0 -42 -60 -52q-42 0 -52 60zM156 1068q0 42 60 52q42 0 52 -60q0 -42 -60 -52q-42 0 -52 60zM156 1212q0 42 60 52q42 0 52 -60q0 -42 -60 -52q-42 0 -52 60z M156 1356q0 42 60 52q42 0 52 -60q0 -42 -60 -52q-42 0 -52 60zM300 60q0 42 60 52q42 0 52 -60q0 -42 -60 -52q-42 0 -52 60zM300 204q0 42 60 52q42 0 52 -60q0 -42 -60 -52q-42 0 -52 60zM300 1212q0 42 60 52q42 0 52 -60q0 -42 -60 -52q-42 0 -52 60zM300 1356 q0 42 60 52q42 0 52 -60q0 -42 -60 -52q-42 0 -52 60zM444 204q0 42 60 52q42 0 52 -60q0 -42 -60 -52q-42 0 -52 60zM444 1212q0 42 60 52q42 0 52 -60q0 -42 -60 -52q-42 0 -52 60z" />
<glyph unicode=")" horiz-adv-x="656" d="M-2 196q10 60 52 60q60 -10 60 -52q-10 -60 -52 -60q-60 10 -60 52zM-2 1204q10 60 52 60q60 -10 60 -52q-10 -60 -52 -60q-60 10 -60 52zM142 52q10 60 52 60q60 -10 60 -52q-10 -60 -52 -60q-60 10 -60 52zM142 196q10 60 52 60q60 -10 60 -52q-10 -60 -52 -60 q-60 10 -60 52zM142 1204q10 60 52 60q60 -10 60 -52q-10 -60 -52 -60q-60 10 -60 52zM142 1348q10 60 52 60q60 -10 60 -52q-10 -60 -52 -60q-60 10 -60 52zM286 52q10 60 52 60q60 -10 60 -52q-10 -60 -52 -60q-60 10 -60 52zM286 196q10 60 52 60q60 -10 60 -52 q-10 -60 -52 -60q-60 10 -60 52zM286 340q10 60 52 60q60 -10 60 -52q-10 -60 -52 -60q-60 10 -60 52zM286 484q10 60 52 60q60 -10 60 -52q-10 -60 -52 -60q-60 10 -60 52zM286 628q10 60 52 60q60 -10 60 -52q-10 -60 -52 -60q-60 10 -60 52zM286 772q10 60 52 60 q60 -10 60 -52q-10 -60 -52 -60q-60 10 -60 52zM286 916q10 60 52 60q60 -10 60 -52q-10 -60 -52 -60q-60 10 -60 52zM286 1060q10 60 52 60q60 -10 60 -52q-10 -60 -52 -60q-60 10 -60 52zM286 1204q10 60 52 60q60 -10 60 -52q-10 -60 -52 -60q-60 10 -60 52zM286 1348 q10 60 52 60q60 -10 60 -52q-10 -60 -52 -60q-60 10 -60 52zM430 196q10 60 52 60q60 -10 60 -52q-10 -60 -52 -60q-60 10 -60 52zM430 340q10 60 52 60q60 -10 60 -52q-10 -60 -52 -60q-60 10 -60 52zM430 484q10 60 52 60q60 -10 60 -52q-10 -60 -52 -60q-60 10 -60 52z M430 628q10 60 52 60q60 -10 60 -52q-10 -60 -52 -60q-60 10 -60 52zM430 772q10 60 52 60q60 -10 60 -52q-10 -60 -52 -60q-60 10 -60 52zM430 916q10 60 52 60q60 -10 60 -52q-10 -60 -52 -60q-60 10 -60 52zM430 1060q10 60 52 60q60 -10 60 -52q-10 -60 -52 -60 q-60 10 -60 52zM430 1204q10 60 52 60q60 -10 60 -52q-10 -60 -52 -60q-60 10 -60 52z" />
<glyph unicode="*" horiz-adv-x="1024" d="M12 474q0 42 60 52q42 0 52 -60q0 -42 -60 -52q-42 0 -52 60zM12 762q0 42 60 52q42 0 52 -60q0 -42 -60 -52q-42 0 -52 60zM12 906q0 42 60 52q42 0 52 -60q0 -42 -60 -52q-42 0 -52 60zM16 1194q10 48 56 48q48 -10 48 -56q-10 -48 -56 -48q-48 10 -48 56zM156 618 q0 42 60 52q42 0 52 -60q0 -42 -60 -52q-42 0 -52 60zM156 762q0 42 60 52q42 0 52 -60q0 -42 -60 -52q-42 0 -52 60zM156 906q0 42 60 52q42 0 52 -60q0 -42 -60 -52q-42 0 -52 60zM160 1050q10 48 56 48q48 -10 48 -56q-10 -48 -56 -48q-48 10 -48 56zM300 330q0 42 60 52 q42 0 52 -60q0 -42 -60 -52q-42 0 -52 60zM300 474q0 42 60 52q42 0 52 -60q0 -42 -60 -52q-42 0 -52 60zM300 618q0 42 60 52q42 0 52 -60q0 -42 -60 -52q-42 0 -52 60zM300 762q0 42 60 52q42 0 52 -60q0 -42 -60 -52q-42 0 -52 60zM300 906q0 42 60 52q42 0 52 -60 q0 -42 -60 -52q-42 0 -52 60zM300 1050q0 42 60 52q42 0 52 -60q0 -42 -60 -52q-42 0 -52 60zM300 1194q0 42 60 52q42 0 52 -60q0 -42 -60 -52q-42 0 -52 60zM300 1338q0 42 60 52q42 0 52 -60q0 -42 -60 -52q-42 0 -52 60zM444 330q0 42 60 52q42 0 52 -60q0 -42 -60 -52 q-42 0 -52 60zM444 474q0 42 60 52q42 0 52 -60q0 -42 -60 -52q-42 0 -52 60zM444 618q0 42 60 52q42 0 52 -60q0 -42 -60 -52q-42 0 -52 60zM444 762q0 42 60 52q42 0 52 -60q0 -42 -60 -52q-42 0 -52 60zM444 906q0 42 60 52q42 0 52 -60q0 -42 -60 -52q-42 0 -52 60z M444 1050q0 42 60 52q42 0 52 -60q0 -42 -60 -52q-42 0 -52 60zM444 1194q0 42 60 52q42 0 52 -60q0 -42 -60 -52q-42 0 -52 60zM444 1338q0 42 60 52q42 0 52 -60q0 -42 -60 -52q-42 0 -52 60zM588 762q0 42 60 52q42 0 52 -60q0 -42 -60 -52q-42 0 -52 60zM588 906 q0 42 60 52q42 0 52 -60q0 -42 -60 -52q-42 0 -52 60zM588 1050q0 42 60 52q42 0 52 -60q0 -42 -60 -52q-42 0 -52 60zM592 618q10 48 56 48q48 -10 48 -56q-10 -48 -56 -48q-48 10 -48 56zM732 762q0 42 60 52q42 0 52 -60q0 -42 -60 -52q-42 0 -52 60zM732 906q0 42 60 52 q42 0 52 -60q0 -42 -60 -52q-42 0 -52 60zM732 1194q0 42 60 52q42 0 52 -60q0 -42 -60 -52q-42 0 -52 60zM736 474q10 48 56 48q48 -10 48 -56q-10 -48 -56 -48q-48 10 -48 56z" />
<glyph unicode="+" horiz-adv-x="1014" d="M6 762q0 42 60 52q42 0 52 -60q0 -42 -60 -52q-42 0 -52 60zM6 906q0 42 60 52q42 0 52 -60q0 -42 -60 -52q-42 0 -52 60zM150 762q0 42 60 52q42 0 52 -60q0 -42 -60 -52q-42 0 -52 60zM150 906q0 42 60 52q42 0 52 -60q0 -42 -60 -52q-42 0 -52 60zM294 330q0 42 60 52 q42 0 52 -60q0 -42 -60 -52q-42 0 -52 60zM294 474q0 42 60 52q42 0 52 -60q0 -42 -60 -52q-42 0 -52 60zM294 618q0 42 60 52q42 0 52 -60q0 -42 -60 -52q-42 0 -52 60zM294 762q0 42 60 52q42 0 52 -60q0 -42 -60 -52q-42 0 -52 60zM294 906q0 42 60 52q42 0 52 -60 q0 -42 -60 -52q-42 0 -52 60zM294 1050q0 42 60 52q42 0 52 -60q0 -42 -60 -52q-42 0 -52 60zM294 1194q0 42 60 52q42 0 52 -60q0 -42 -60 -52q-42 0 -52 60zM294 1338q0 42 60 52q42 0 52 -60q0 -42 -60 -52q-42 0 -52 60zM438 330q0 42 60 52q42 0 52 -60q0 -42 -60 -52 q-42 0 -52 60zM438 474q0 42 60 52q42 0 52 -60q0 -42 -60 -52q-42 0 -52 60zM438 618q0 42 60 52q42 0 52 -60q0 -42 -60 -52q-42 0 -52 60zM438 762q0 42 60 52q42 0 52 -60q0 -42 -60 -52q-42 0 -52 60zM438 906q0 42 60 52q42 0 52 -60q0 -42 -60 -52q-42 0 -52 60z M438 1050q0 42 60 52q42 0 52 -60q0 -42 -60 -52q-42 0 -52 60zM438 1194q0 42 60 52q42 0 52 -60q0 -42 -60 -52q-42 0 -52 60zM438 1338q0 42 60 52q42 0 52 -60q0 -42 -60 -52q-42 0 -52 60zM582 762q0 42 60 52q42 0 52 -60q0 -42 -60 -52q-42 0 -52 60zM582 906 q0 42 60 52q42 0 52 -60q0 -42 -60 -52q-42 0 -52 60zM726 762q0 42 60 52q42 0 52 -60q0 -42 -60 -52q-42 0 -52 60zM726 906q0 42 60 52q42 0 52 -60q0 -42 -60 -52q-42 0 -52 60z" />
<glyph unicode="," horiz-adv-x="420" d="M19 58q0 42 60 52q42 0 52 -60q0 -42 -60 -52q-42 0 -52 60zM19 202q0 42 60 52q42 0 52 -60q0 -42 -60 -52q-42 0 -52 60zM163 58q0 42 60 52q42 0 52 -60q0 -42 -60 -52q-42 0 -52 60zM163 -86q0 42 60 52q42 0 52 -60q0 -42 -60 -52q-42 0 -52 60zM163 202q0 42 60 52 q42 0 52 -60q0 -42 -60 -52q-42 0 -52 60zM163 -230q0 42 60 52q42 0 52 -60q0 -42 -60 -52q-42 0 -52 60z" />
<glyph unicode="-" horiz-adv-x="1011" d="M4 766q0 42 60 52q42 0 52 -60q0 -42 -60 -52q-42 0 -52 60zM4 910q0 42 60 52q42 0 52 -60q0 -42 -60 -52q-42 0 -52 60zM148 766q0 42 60 52q42 0 52 -60q0 -42 -60 -52q-42 0 -52 60zM148 910q0 42 60 52q42 0 52 -60q0 -42 -60 -52q-42 0 -52 60zM292 766q0 42 60 52 q42 0 52 -60q0 -42 -60 -52q-42 0 -52 60zM292 910q0 42 60 52q42 0 52 -60q0 -42 -60 -52q-42 0 -52 60zM436 766q0 42 60 52q42 0 52 -60q0 -42 -60 -52q-42 0 -52 60zM436 910q0 42 60 52q42 0 52 -60q0 -42 -60 -52q-42 0 -52 60zM580 766q0 42 60 52q42 0 52 -60 q0 -42 -60 -52q-42 0 -52 60zM580 910q0 42 60 52q42 0 52 -60q0 -42 -60 -52q-42 0 -52 60zM724 766q0 42 60 52q42 0 52 -60q0 -42 -60 -52q-42 0 -52 60zM724 910q0 42 60 52q42 0 52 -60q0 -42 -60 -52q-42 0 -52 60z" />
<glyph unicode="." horiz-adv-x="421" d="M-1 60q0 42 60 52q42 0 52 -60q0 -42 -60 -52q-42 0 -52 60zM-1 204q0 42 60 52q42 0 52 -60q0 -42 -60 -52q-42 0 -52 60zM143 60q0 42 60 52q42 0 52 -60q0 -42 -60 -52q-42 0 -52 60zM143 204q0 42 60 52q42 0 52 -60q0 -42 -60 -52q-42 0 -52 60z" />
<glyph unicode="/" horiz-adv-x="1011" d="M13 60q0 42 60 52q42 0 52 -60q0 -42 -60 -52q-42 0 -52 60zM13 204q0 42 60 52q42 0 52 -60q0 -42 -60 -52q-42 0 -52 60zM13 348q0 42 60 52q42 0 52 -60q0 -42 -60 -52q-42 0 -52 60zM157 60q0 42 60 52q42 0 52 -60q0 -42 -60 -52q-42 0 -52 60zM157 204q0 42 60 52 q42 0 52 -60q0 -42 -60 -52q-42 0 -52 60zM157 348q0 42 60 52q42 0 52 -60q0 -42 -60 -52q-42 0 -52 60zM157 492q0 42 60 52q42 0 52 -60q0 -42 -60 -52q-42 0 -52 60zM157 636q0 42 60 52q42 0 52 -60q0 -42 -60 -52q-42 0 -52 60zM301 492q0 42 60 52q42 0 52 -60 q0 -42 -60 -52q-42 0 -52 60zM301 636q0 42 60 52q42 0 52 -60q0 -42 -60 -52q-42 0 -52 60zM301 780q0 42 60 52q42 0 52 -60q0 -42 -60 -52q-42 0 -52 60zM301 924q0 42 60 52q42 0 52 -60q0 -42 -60 -52q-42 0 -52 60zM445 780q0 42 60 52q42 0 52 -60q0 -42 -60 -52 q-42 0 -52 60zM445 924q0 42 60 52q42 0 52 -60q0 -42 -60 -52q-42 0 -52 60zM445 1068q0 42 60 52q42 0 52 -60q0 -42 -60 -52q-42 0 -52 60zM589 1068q0 42 60 52q42 0 52 -60q0 -42 -60 -52q-42 0 -52 60zM589 1212q0 42 60 52q42 0 52 -60q0 -42 -60 -52q-42 0 -52 60z M589 1356q0 42 60 52q42 0 52 -60q0 -42 -60 -52q-42 0 -52 60zM733 1212q0 42 60 52q42 0 52 -60q0 -42 -60 -52q-42 0 -52 60zM733 1356q0 42 60 52q42 0 52 -60q0 -42 -60 -52q-42 0 -52 60z" />
<glyph unicode="0" d="M0 60q0 42 60 52q42 0 52 -60q0 -42 -60 -52q-42 0 -52 60zM0 204q0 42 60 52q42 0 52 -60q0 -42 -60 -52q-42 0 -52 60zM0 348q0 42 60 52q42 0 52 -60q0 -42 -60 -52q-42 0 -52 60zM0 492q0 42 60 52q42 0 52 -60q0 -42 -60 -52q-42 0 -52 60zM0 636q0 42 60 52 q42 0 52 -60q0 -42 -60 -52q-42 0 -52 60zM0 780q0 42 60 52q42 0 52 -60q0 -42 -60 -52q-42 0 -52 60zM0 924q0 42 60 52q42 0 52 -60q0 -42 -60 -52q-42 0 -52 60zM0 1068q0 42 60 52q42 0 52 -60q0 -42 -60 -52q-42 0 -52 60zM0 1212q0 42 60 52q42 0 52 -60 q0 -42 -60 -52q-42 0 -52 60zM0 1356q0 42 60 52q42 0 52 -60q0 -42 -60 -52q-42 0 -52 60zM144 60q0 42 60 52q42 0 52 -60q0 -42 -60 -52q-42 0 -52 60zM144 204q0 42 60 52q42 0 52 -60q0 -42 -60 -52q-42 0 -52 60zM144 348q0 42 60 52q42 0 52 -60q0 -42 -60 -52 q-42 0 -52 60zM144 492q0 42 60 52q42 0 52 -60q0 -42 -60 -52q-42 0 -52 60zM144 636q0 42 60 52q42 0 52 -60q0 -42 -60 -52q-42 0 -52 60zM144 780q0 42 60 52q42 0 52 -60q0 -42 -60 -52q-42 0 -52 60zM144 924q0 42 60 52q42 0 52 -60q0 -42 -60 -52q-42 0 -52 60z M144 1068q0 42 60 52q42 0 52 -60q0 -42 -60 -52q-42 0 -52 60zM144 1212q0 42 60 52q42 0 52 -60q0 -42 -60 -52q-42 0 -52 60zM144 1356q0 42 60 52q42 0 52 -60q0 -42 -60 -52q-42 0 -52 60zM288 60q0 42 60 52q42 0 52 -60q0 -42 -60 -52q-42 0 -52 60zM288 204 q0 42 60 52q42 0 52 -60q0 -42 -60 -52q-42 0 -52 60zM288 1212q0 42 60 52q42 0 52 -60q0 -42 -60 -52q-42 0 -52 60zM288 1356q0 42 60 52q42 0 52 -60q0 -42 -60 -52q-42 0 -52 60zM432 60q0 42 60 52q42 0 52 -60q0 -42 -60 -52q-42 0 -52 60zM432 204q0 42 60 52 q42 0 52 -60q0 -42 -60 -52q-42 0 -52 60zM432 1212q0 42 60 52q42 0 52 -60q0 -42 -60 -52q-42 0 -52 60zM432 1356q0 42 60 52q42 0 52 -60q0 -42 -60 -52q-42 0 -52 60zM576 60q0 42 60 52q42 0 52 -60q0 -42 -60 -52q-42 0 -52 60zM576 204q0 42 60 52q42 0 52 -60 q0 -42 -60 -52q-42 0 -52 60zM576 348q0 42 60 52q42 0 52 -60q0 -42 -60 -52q-42 0 -52 60zM576 492q0 42 60 52q42 0 52 -60q0 -42 -60 -52q-42 0 -52 60zM576 636q0 42 60 52q42 0 52 -60q0 -42 -60 -52q-42 0 -52 60zM576 780q0 42 60 52q42 0 52 -60q0 -42 -60 -52 q-42 0 -52 60zM576 924q0 42 60 52q42 0 52 -60q0 -42 -60 -52q-42 0 -52 60zM576 1068q0 42 60 52q42 0 52 -60q0 -42 -60 -52q-42 0 -52 60zM576 1212q0 42 60 52q42 0 52 -60q0 -42 -60 -52q-42 0 -52 60zM576 1356q0 42 60 52q42 0 52 -60q0 -42 -60 -52q-42 0 -52 60z M720 60q0 42 60 52q42 0 52 -60q0 -42 -60 -52q-42 0 -52 60zM720 204q0 42 60 52q42 0 52 -60q0 -42 -60 -52q-42 0 -52 60zM720 348q0 42 60 52q42 0 52 -60q0 -42 -60 -52q-42 0 -52 60zM720 492q0 42 60 52q42 0 52 -60q0 -42 -60 -52q-42 0 -52 60zM720 636q0 42 60 52 q42 0 52 -60q0 -42 -60 -52q-42 0 -52 60zM720 780q0 42 60 52q42 0 52 -60q0 -42 -60 -52q-42 0 -52 60zM720 924q0 42 60 52q42 0 52 -60q0 -42 -60 -52q-42 0 -52 60zM720 1068q0 42 60 52q42 0 52 -60q0 -42 -60 -52q-42 0 -52 60zM720 1212q0 42 60 52q42 0 52 -60 q0 -42 -60 -52q-42 0 -52 60zM720 1356q0 42 60 52q42 0 52 -60q0 -42 -60 -52q-42 0 -52 60z" />
<glyph unicode="1" d="M0 780q0 42 60 52q42 0 52 -60q0 -42 -60 -52q-42 0 -52 60zM144 780q0 42 60 52q42 0 52 -60q0 -42 -60 -52q-42 0 -52 60zM144 924q0 42 60 52q42 0 52 -60q0 -42 -60 -52q-42 0 -52 60zM288 924q0 42 60 52q42 0 52 -60q0 -42 -60 -52q-42 0 -52 60zM288 1068 q0 42 60 52q42 0 52 -60q0 -42 -60 -52q-42 0 -52 60zM432 1068q0 42 60 52q42 0 52 -60q0 -42 -60 -52q-42 0 -52 60zM432 1212q0 42 60 52q42 0 52 -60q0 -42 -60 -52q-42 0 -52 60zM576 60q0 42 60 52q42 0 52 -60q0 -42 -60 -52q-42 0 -52 60zM576 204q0 42 60 52 q42 0 52 -60q0 -42 -60 -52q-42 0 -52 60zM576 348q0 42 60 52q42 0 52 -60q0 -42 -60 -52q-42 0 -52 60zM576 492q0 42 60 52q42 0 52 -60q0 -42 -60 -52q-42 0 -52 60zM576 636q0 42 60 52q42 0 52 -60q0 -42 -60 -52q-42 0 -52 60zM576 780q0 42 60 52q42 0 52 -60 q0 -42 -60 -52q-42 0 -52 60zM576 924q0 42 60 52q42 0 52 -60q0 -42 -60 -52q-42 0 -52 60zM576 1068q0 42 60 52q42 0 52 -60q0 -42 -60 -52q-42 0 -52 60zM576 1212q0 42 60 52q42 0 52 -60q0 -42 -60 -52q-42 0 -52 60zM576 1356q0 42 60 52q42 0 52 -60q0 -42 -60 -52 q-42 0 -52 60zM720 60q0 42 60 52q42 0 52 -60q0 -42 -60 -52q-42 0 -52 60zM720 204q0 42 60 52q42 0 52 -60q0 -42 -60 -52q-42 0 -52 60zM720 348q0 42 60 52q42 0 52 -60q0 -42 -60 -52q-42 0 -52 60zM720 492q0 42 60 52q42 0 52 -60q0 -42 -60 -52q-42 0 -52 60z M720 636q0 42 60 52q42 0 52 -60q0 -42 -60 -52q-42 0 -52 60zM720 780q0 42 60 52q42 0 52 -60q0 -42 -60 -52q-42 0 -52 60zM720 924q0 42 60 52q42 0 52 -60q0 -42 -60 -52q-42 0 -52 60zM720 1068q0 42 60 52q42 0 52 -60q0 -42 -60 -52q-42 0 -52 60zM720 1212 q0 42 60 52q42 0 52 -60q0 -42 -60 -52q-42 0 -52 60zM720 1356q0 42 60 52q42 0 52 -60q0 -42 -60 -52q-42 0 -52 60z" />
<glyph unicode="2" d="M0 204q0 42 60 52q42 0 52 -60q0 -42 -60 -52q-42 0 -52 60zM0 348q0 42 60 52q42 0 52 -60q0 -42 -60 -52q-42 0 -52 60zM0 492q0 42 60 52q42 0 52 -60q0 -42 -60 -52q-42 0 -52 60zM0 636q0 42 60 52q42 0 52 -60q0 -42 -60 -52q-42 0 -52 60zM0 1212q0 42 60 52 q42 0 52 -60q0 -42 -60 -52q-42 0 -52 60zM144 60q0 42 60 52q42 0 52 -60q0 -42 -60 -52q-42 0 -52 60zM144 204q0 42 60 52q42 0 52 -60q0 -42 -60 -52q-42 0 -52 60zM144 348q0 42 60 52q42 0 52 -60q0 -42 -60 -52q-42 0 -52 60zM144 492q0 42 60 52q42 0 52 -60 q0 -42 -60 -52q-42 0 -52 60zM144 636q0 42 60 52q42 0 52 -60q0 -42 -60 -52q-42 0 -52 60zM144 780q0 42 60 52q42 0 52 -60q0 -42 -60 -52q-42 0 -52 60zM144 1212q0 42 60 52q42 0 52 -60q0 -42 -60 -52q-42 0 -52 60zM144 1356q0 42 60 52q42 0 52 -60q0 -42 -60 -52 q-42 0 -52 60zM288 60q0 42 60 52q42 0 52 -60q0 -42 -60 -52q-42 0 -52 60zM288 204q0 42 60 52q42 0 52 -60q0 -42 -60 -52q-42 0 -52 60zM288 636q0 42 60 52q42 0 52 -60q0 -42 -60 -52q-42 0 -52 60zM288 780q0 42 60 52q42 0 52 -60q0 -42 -60 -52q-42 0 -52 60z M288 1212q0 42 60 52q42 0 52 -60q0 -42 -60 -52q-42 0 -52 60zM288 1356q0 42 60 52q42 0 52 -60q0 -42 -60 -52q-42 0 -52 60zM432 60q0 42 60 52q42 0 52 -60q0 -42 -60 -52q-42 0 -52 60zM432 204q0 42 60 52q42 0 52 -60q0 -42 -60 -52q-42 0 -52 60zM432 636 q0 42 60 52q42 0 52 -60q0 -42 -60 -52q-42 0 -52 60zM432 780q0 42 60 52q42 0 52 -60q0 -42 -60 -52q-42 0 -52 60zM432 1212q0 42 60 52q42 0 52 -60q0 -42 -60 -52q-42 0 -52 60zM432 1356q0 42 60 52q42 0 52 -60q0 -42 -60 -52q-42 0 -52 60zM576 60q0 42 60 52 q42 0 52 -60q0 -42 -60 -52q-42 0 -52 60zM576 204q0 42 60 52q42 0 52 -60q0 -42 -60 -52q-42 0 -52 60zM576 636q0 42 60 52q42 0 52 -60q0 -42 -60 -52q-42 0 -52 60zM576 780q0 42 60 52q42 0 52 -60q0 -42 -60 -52q-42 0 -52 60zM576 924q0 42 60 52q42 0 52 -60 q0 -42 -60 -52q-42 0 -52 60zM576 1068q0 42 60 52q42 0 52 -60q0 -42 -60 -52q-42 0 -52 60zM576 1212q0 42 60 52q42 0 52 -60q0 -42 -60 -52q-42 0 -52 60zM576 1356q0 42 60 52q42 0 52 -60q0 -42 -60 -52q-42 0 -52 60zM720 204q0 42 60 52q42 0 52 -60q0 -42 -60 -52 q-42 0 -52 60zM720 780q0 42 60 52q42 0 52 -60q0 -42 -60 -52q-42 0 -52 60zM720 924q0 42 60 52q42 0 52 -60q0 -42 -60 -52q-42 0 -52 60zM720 1068q0 42 60 52q42 0 52 -60q0 -42 -60 -52q-42 0 -52 60zM720 1212q0 42 60 52q42 0 52 -60q0 -42 -60 -52q-42 0 -52 60z " />
<glyph unicode="3" d="M0 60q0 42 60 52q42 0 52 -60q0 -42 -60 -52q-42 0 -52 60zM0 1356q0 42 60 52q42 0 52 -60q0 -42 -60 -52q-42 0 -52 60zM144 60q0 42 60 52q42 0 52 -60q0 -42 -60 -52q-42 0 -52 60zM144 204q0 42 60 52q42 0 52 -60q0 -42 -60 -52q-42 0 -52 60zM144 1212q0 42 60 52 q42 0 52 -60q0 -42 -60 -52q-42 0 -52 60zM144 1356q0 42 60 52q42 0 52 -60q0 -42 -60 -52q-42 0 -52 60zM288 60q0 42 60 52q42 0 52 -60q0 -42 -60 -52q-42 0 -52 60zM288 204q0 42 60 52q42 0 52 -60q0 -42 -60 -52q-42 0 -52 60zM288 636q0 42 60 52q42 0 52 -60 q0 -42 -60 -52q-42 0 -52 60zM288 780q0 42 60 52q42 0 52 -60q0 -42 -60 -52q-42 0 -52 60zM288 1212q0 42 60 52q42 0 52 -60q0 -42 -60 -52q-42 0 -52 60zM288 1356q0 42 60 52q42 0 52 -60q0 -42 -60 -52q-42 0 -52 60zM432 60q0 42 60 52q42 0 52 -60q0 -42 -60 -52 q-42 0 -52 60zM432 204q0 42 60 52q42 0 52 -60q0 -42 -60 -52q-42 0 -52 60zM432 636q0 42 60 52q42 0 52 -60q0 -42 -60 -52q-42 0 -52 60zM432 780q0 42 60 52q42 0 52 -60q0 -42 -60 -52q-42 0 -52 60zM432 1212q0 42 60 52q42 0 52 -60q0 -42 -60 -52q-42 0 -52 60z M432 1356q0 42 60 52q42 0 52 -60q0 -42 -60 -52q-42 0 -52 60zM576 60q0 42 60 52q42 0 52 -60q0 -42 -60 -52q-42 0 -52 60zM576 204q0 42 60 52q42 0 52 -60q0 -42 -60 -52q-42 0 -52 60zM576 348q0 42 60 52q42 0 52 -60q0 -42 -60 -52q-42 0 -52 60zM576 492 q0 42 60 52q42 0 52 -60q0 -42 -60 -52q-42 0 -52 60zM576 636q0 42 60 52q42 0 52 -60q0 -42 -60 -52q-42 0 -52 60zM576 780q0 42 60 52q42 0 52 -60q0 -42 -60 -52q-42 0 -52 60zM576 924q0 42 60 52q42 0 52 -60q0 -42 -60 -52q-42 0 -52 60zM576 1068q0 42 60 52 q42 0 52 -60q0 -42 -60 -52q-42 0 -52 60zM576 1212q0 42 60 52q42 0 52 -60q0 -42 -60 -52q-42 0 -52 60zM576 1356q0 42 60 52q42 0 52 -60q0 -42 -60 -52q-42 0 -52 60zM720 204q0 42 60 52q42 0 52 -60q0 -42 -60 -52q-42 0 -52 60zM720 348q0 42 60 52q42 0 52 -60 q0 -42 -60 -52q-42 0 -52 60zM720 492q0 42 60 52q42 0 52 -60q0 -42 -60 -52q-42 0 -52 60zM720 636q0 42 60 52q42 0 52 -60q0 -42 -60 -52q-42 0 -52 60zM720 780q0 42 60 52q42 0 52 -60q0 -42 -60 -52q-42 0 -52 60zM720 924q0 42 60 52q42 0 52 -60q0 -42 -60 -52 q-42 0 -52 60zM720 1068q0 42 60 52q42 0 52 -60q0 -42 -60 -52q-42 0 -52 60zM720 1212q0 42 60 52q42 0 52 -60q0 -42 -60 -52q-42 0 -52 60z" />
<glyph unicode="4" d="M0 636q0 42 60 52q42 0 52 -60q0 -42 -60 -52q-42 0 -52 60zM0 780q0 42 60 52q42 0 52 -60q0 -42 -60 -52q-42 0 -52 60zM0 924q0 42 60 52q42 0 52 -60q0 -42 -60 -52q-42 0 -52 60zM0 1068q0 42 60 52q42 0 52 -60q0 -42 -60 -52q-42 0 -52 60zM0 1212q0 42 60 52 q42 0 52 -60q0 -42 -60 -52q-42 0 -52 60zM0 1356q0 42 60 52q42 0 52 -60q0 -42 -60 -52q-42 0 -52 60zM144 636q0 42 60 52q42 0 52 -60q0 -42 -60 -52q-42 0 -52 60zM144 780q0 42 60 52q42 0 52 -60q0 -42 -60 -52q-42 0 -52 60zM144 924q0 42 60 52q42 0 52 -60 q0 -42 -60 -52q-42 0 -52 60zM144 1068q0 42 60 52q42 0 52 -60q0 -42 -60 -52q-42 0 -52 60zM144 1212q0 42 60 52q42 0 52 -60q0 -42 -60 -52q-42 0 -52 60zM144 1356q0 42 60 52q42 0 52 -60q0 -42 -60 -52q-42 0 -52 60zM288 636q0 42 60 52q42 0 52 -60q0 -42 -60 -52 q-42 0 -52 60zM288 780q0 42 60 52q42 0 52 -60q0 -42 -60 -52q-42 0 -52 60zM432 636q0 42 60 52q42 0 52 -60q0 -42 -60 -52q-42 0 -52 60zM432 780q0 42 60 52q42 0 52 -60q0 -42 -60 -52q-42 0 -52 60zM576 60q0 42 60 52q42 0 52 -60q0 -42 -60 -52q-42 0 -52 60z M576 204q0 42 60 52q42 0 52 -60q0 -42 -60 -52q-42 0 -52 60zM576 348q0 42 60 52q42 0 52 -60q0 -42 -60 -52q-42 0 -52 60zM576 492q0 42 60 52q42 0 52 -60q0 -42 -60 -52q-42 0 -52 60zM576 636q0 42 60 52q42 0 52 -60q0 -42 -60 -52q-42 0 -52 60zM576 780 q0 42 60 52q42 0 52 -60q0 -42 -60 -52q-42 0 -52 60zM576 924q0 42 60 52q42 0 52 -60q0 -42 -60 -52q-42 0 -52 60zM576 1068q0 42 60 52q42 0 52 -60q0 -42 -60 -52q-42 0 -52 60zM576 1212q0 42 60 52q42 0 52 -60q0 -42 -60 -52q-42 0 -52 60zM576 1356q0 42 60 52 q42 0 52 -60q0 -42 -60 -52q-42 0 -52 60zM720 60q0 42 60 52q42 0 52 -60q0 -42 -60 -52q-42 0 -52 60zM720 204q0 42 60 52q42 0 52 -60q0 -42 -60 -52q-42 0 -52 60zM720 348q0 42 60 52q42 0 52 -60q0 -42 -60 -52q-42 0 -52 60zM720 492q0 42 60 52q42 0 52 -60 q0 -42 -60 -52q-42 0 -52 60zM720 636q0 42 60 52q42 0 52 -60q0 -42 -60 -52q-42 0 -52 60zM720 780q0 42 60 52q42 0 52 -60q0 -42 -60 -52q-42 0 -52 60zM720 924q0 42 60 52q42 0 52 -60q0 -42 -60 -52q-42 0 -52 60zM720 1068q0 42 60 52q42 0 52 -60q0 -42 -60 -52 q-42 0 -52 60zM720 1212q0 42 60 52q42 0 52 -60q0 -42 -60 -52q-42 0 -52 60zM720 1356q0 42 60 52q42 0 52 -60q0 -42 -60 -52q-42 0 -52 60z" />
<glyph unicode="5" d="M0 60q0 42 60 52q42 0 52 -60q0 -42 -60 -52q-42 0 -52 60zM0 204q0 42 60 52q42 0 52 -60q0 -42 -60 -52q-42 0 -52 60zM0 636q0 42 60 52q42 0 52 -60q0 -42 -60 -52q-42 0 -52 60zM0 780q0 42 60 52q42 0 52 -60q0 -42 -60 -52q-42 0 -52 60zM0 924q0 42 60 52 q42 0 52 -60q0 -42 -60 -52q-42 0 -52 60zM0 1068q0 42 60 52q42 0 52 -60q0 -42 -60 -52q-42 0 -52 60zM0 1212q0 42 60 52q42 0 52 -60q0 -42 -60 -52q-42 0 -52 60zM0 1356q0 42 60 52q42 0 52 -60q0 -42 -60 -52q-42 0 -52 60zM144 60q0 42 60 52q42 0 52 -60 q0 -42 -60 -52q-42 0 -52 60zM144 204q0 42 60 52q42 0 52 -60q0 -42 -60 -52q-42 0 -52 60zM144 636q0 42 60 52q42 0 52 -60q0 -42 -60 -52q-42 0 -52 60zM144 780q0 42 60 52q42 0 52 -60q0 -42 -60 -52q-42 0 -52 60zM144 924q0 42 60 52q42 0 52 -60q0 -42 -60 -52 q-42 0 -52 60zM144 1068q0 42 60 52q42 0 52 -60q0 -42 -60 -52q-42 0 -52 60zM144 1212q0 42 60 52q42 0 52 -60q0 -42 -60 -52q-42 0 -52 60zM144 1356q0 42 60 52q42 0 52 -60q0 -42 -60 -52q-42 0 -52 60zM288 60q0 42 60 52q42 0 52 -60q0 -42 -60 -52q-42 0 -52 60z M288 204q0 42 60 52q42 0 52 -60q0 -42 -60 -52q-42 0 -52 60zM288 636q0 42 60 52q42 0 52 -60q0 -42 -60 -52q-42 0 -52 60zM288 780q0 42 60 52q42 0 52 -60q0 -42 -60 -52q-42 0 -52 60zM288 1212q0 42 60 52q42 0 52 -60q0 -42 -60 -52q-42 0 -52 60zM288 1356 q0 42 60 52q42 0 52 -60q0 -42 -60 -52q-42 0 -52 60zM432 60q0 42 60 52q42 0 52 -60q0 -42 -60 -52q-42 0 -52 60zM432 204q0 42 60 52q42 0 52 -60q0 -42 -60 -52q-42 0 -52 60zM432 636q0 42 60 52q42 0 52 -60q0 -42 -60 -52q-42 0 -52 60zM432 780q0 42 60 52 q42 0 52 -60q0 -42 -60 -52q-42 0 -52 60zM432 1212q0 42 60 52q42 0 52 -60q0 -42 -60 -52q-42 0 -52 60zM432 1356q0 42 60 52q42 0 52 -60q0 -42 -60 -52q-42 0 -52 60zM576 60q0 42 60 52q42 0 52 -60q0 -42 -60 -52q-42 0 -52 60zM576 204q0 42 60 52q42 0 52 -60 q0 -42 -60 -52q-42 0 -52 60zM576 348q0 42 60 52q42 0 52 -60q0 -42 -60 -52q-42 0 -52 60zM576 492q0 42 60 52q42 0 52 -60q0 -42 -60 -52q-42 0 -52 60zM576 636q0 42 60 52q42 0 52 -60q0 -42 -60 -52q-42 0 -52 60zM576 780q0 42 60 52q42 0 52 -60q0 -42 -60 -52 q-42 0 -52 60zM576 1212q0 42 60 52q42 0 52 -60q0 -42 -60 -52q-42 0 -52 60zM576 1356q0 42 60 52q42 0 52 -60q0 -42 -60 -52q-42 0 -52 60zM720 60q0 42 60 52q42 0 52 -60q0 -42 -60 -52q-42 0 -52 60zM720 204q0 42 60 52q42 0 52 -60q0 -42 -60 -52q-42 0 -52 60z M720 348q0 42 60 52q42 0 52 -60q0 -42 -60 -52q-42 0 -52 60zM720 492q0 42 60 52q42 0 52 -60q0 -42 -60 -52q-42 0 -52 60zM720 636q0 42 60 52q42 0 52 -60q0 -42 -60 -52q-42 0 -52 60zM720 780q0 42 60 52q42 0 52 -60q0 -42 -60 -52q-42 0 -52 60zM720 1212 q0 42 60 52q42 0 52 -60q0 -42 -60 -52q-42 0 -52 60zM720 1356q0 42 60 52q42 0 52 -60q0 -42 -60 -52q-42 0 -52 60z" />
<glyph unicode="6" d="M0 204q0 42 60 52q42 0 52 -60q0 -42 -60 -52q-42 0 -52 60zM0 348q0 42 60 52q42 0 52 -60q0 -42 -60 -52q-42 0 -52 60zM0 492q0 42 60 52q42 0 52 -60q0 -42 -60 -52q-42 0 -52 60zM0 636q0 42 60 52q42 0 52 -60q0 -42 -60 -52q-42 0 -52 60zM0 780q0 42 60 52 q42 0 52 -60q0 -42 -60 -52q-42 0 -52 60zM0 924q0 42 60 52q42 0 52 -60q0 -42 -60 -52q-42 0 -52 60zM0 1068q0 42 60 52q42 0 52 -60q0 -42 -60 -52q-42 0 -52 60zM0 1212q0 42 60 52q42 0 52 -60q0 -42 -60 -52q-42 0 -52 60zM144 60q0 42 60 52q42 0 52 -60 q0 -42 -60 -52q-42 0 -52 60zM144 204q0 42 60 52q42 0 52 -60q0 -42 -60 -52q-42 0 -52 60zM144 348q0 42 60 52q42 0 52 -60q0 -42 -60 -52q-42 0 -52 60zM144 492q0 42 60 52q42 0 52 -60q0 -42 -60 -52q-42 0 -52 60zM144 636q0 42 60 52q42 0 52 -60q0 -42 -60 -52 q-42 0 -52 60zM144 780q0 42 60 52q42 0 52 -60q0 -42 -60 -52q-42 0 -52 60zM144 924q0 42 60 52q42 0 52 -60q0 -42 -60 -52q-42 0 -52 60zM144 1068q0 42 60 52q42 0 52 -60q0 -42 -60 -52q-42 0 -52 60zM144 1212q0 42 60 52q42 0 52 -60q0 -42 -60 -52q-42 0 -52 60z M144 1356q0 42 60 52q42 0 52 -60q0 -42 -60 -52q-42 0 -52 60zM288 60q0 42 60 52q42 0 52 -60q0 -42 -60 -52q-42 0 -52 60zM288 204q0 42 60 52q42 0 52 -60q0 -42 -60 -52q-42 0 -52 60zM288 636q0 42 60 52q42 0 52 -60q0 -42 -60 -52q-42 0 -52 60zM288 780 q0 42 60 52q42 0 52 -60q0 -42 -60 -52q-42 0 -52 60zM288 1212q0 42 60 52q42 0 52 -60q0 -42 -60 -52q-42 0 -52 60zM288 1356q0 42 60 52q42 0 52 -60q0 -42 -60 -52q-42 0 -52 60zM432 60q0 42 60 52q42 0 52 -60q0 -42 -60 -52q-42 0 -52 60zM432 204q0 42 60 52 q42 0 52 -60q0 -42 -60 -52q-42 0 -52 60zM432 636q0 42 60 52q42 0 52 -60q0 -42 -60 -52q-42 0 -52 60zM432 780q0 42 60 52q42 0 52 -60q0 -42 -60 -52q-42 0 -52 60zM432 1212q0 42 60 52q42 0 52 -60q0 -42 -60 -52q-42 0 -52 60zM432 1356q0 42 60 52q42 0 52 -60 q0 -42 -60 -52q-42 0 -52 60zM576 60q0 42 60 52q42 0 52 -60q0 -42 -60 -52q-42 0 -52 60zM576 204q0 42 60 52q42 0 52 -60q0 -42 -60 -52q-42 0 -52 60zM576 348q0 42 60 52q42 0 52 -60q0 -42 -60 -52q-42 0 -52 60zM576 492q0 42 60 52q42 0 52 -60q0 -42 -60 -52 q-42 0 -52 60zM576 636q0 42 60 52q42 0 52 -60q0 -42 -60 -52q-42 0 -52 60zM576 780q0 42 60 52q42 0 52 -60q0 -42 -60 -52q-42 0 -52 60zM576 1212q0 42 60 52q42 0 52 -60q0 -42 -60 -52q-42 0 -52 60zM576 1356q0 42 60 52q42 0 52 -60q0 -42 -60 -52q-42 0 -52 60z M720 204q0 42 60 52q42 0 52 -60q0 -42 -60 -52q-42 0 -52 60zM720 348q0 42 60 52q42 0 52 -60q0 -42 -60 -52q-42 0 -52 60zM720 492q0 42 60 52q42 0 52 -60q0 -42 -60 -52q-42 0 -52 60zM720 636q0 42 60 52q42 0 52 -60q0 -42 -60 -52q-42 0 -52 60zM720 1212 q0 42 60 52q42 0 52 -60q0 -42 -60 -52q-42 0 -52 60zM720 1356q0 42 60 52q42 0 52 -60q0 -42 -60 -52q-42 0 -52 60z" />
<glyph unicode="7" d="M0 1212q0 42 60 52q42 0 52 -60q0 -42 -60 -52q-42 0 -52 60zM0 1356q0 42 60 52q42 0 52 -60q0 -42 -60 -52q-42 0 -52 60zM144 1212q0 42 60 52q42 0 52 -60q0 -42 -60 -52q-42 0 -52 60zM144 1356q0 42 60 52q42 0 52 -60q0 -42 -60 -52q-42 0 -52 60zM288 1212 q0 42 60 52q42 0 52 -60q0 -42 -60 -52q-42 0 -52 60zM288 1356q0 42 60 52q42 0 52 -60q0 -42 -60 -52q-42 0 -52 60zM432 1212q0 42 60 52q42 0 52 -60q0 -42 -60 -52q-42 0 -52 60zM432 1356q0 42 60 52q42 0 52 -60q0 -42 -60 -52q-42 0 -52 60zM576 60q0 42 60 52 q42 0 52 -60q0 -42 -60 -52q-42 0 -52 60zM576 204q0 42 60 52q42 0 52 -60q0 -42 -60 -52q-42 0 -52 60zM576 348q0 42 60 52q42 0 52 -60q0 -42 -60 -52q-42 0 -52 60zM576 492q0 42 60 52q42 0 52 -60q0 -42 -60 -52q-42 0 -52 60zM576 636q0 42 60 52q42 0 52 -60 q0 -42 -60 -52q-42 0 -52 60zM576 780q0 42 60 52q42 0 52 -60q0 -42 -60 -52q-42 0 -52 60zM576 924q0 42 60 52q42 0 52 -60q0 -42 -60 -52q-42 0 -52 60zM576 1068q0 42 60 52q42 0 52 -60q0 -42 -60 -52q-42 0 -52 60zM576 1212q0 42 60 52q42 0 52 -60q0 -42 -60 -52 q-42 0 -52 60zM576 1356q0 42 60 52q42 0 52 -60q0 -42 -60 -52q-42 0 -52 60zM720 60q0 42 60 52q42 0 52 -60q0 -42 -60 -52q-42 0 -52 60zM720 204q0 42 60 52q42 0 52 -60q0 -42 -60 -52q-42 0 -52 60zM720 348q0 42 60 52q42 0 52 -60q0 -42 -60 -52q-42 0 -52 60z M720 492q0 42 60 52q42 0 52 -60q0 -42 -60 -52q-42 0 -52 60zM720 636q0 42 60 52q42 0 52 -60q0 -42 -60 -52q-42 0 -52 60zM720 780q0 42 60 52q42 0 52 -60q0 -42 -60 -52q-42 0 -52 60zM720 924q0 42 60 52q42 0 52 -60q0 -42 -60 -52q-42 0 -52 60zM720 1068 q0 42 60 52q42 0 52 -60q0 -42 -60 -52q-42 0 -52 60zM720 1212q0 42 60 52q42 0 52 -60q0 -42 -60 -52q-42 0 -52 60zM720 1356q0 42 60 52q42 0 52 -60q0 -42 -60 -52q-42 0 -52 60z" />
<glyph unicode="8" d="M0 204q0 42 60 52q42 0 52 -60q0 -42 -60 -52q-42 0 -52 60zM0 348q0 42 60 52q42 0 52 -60q0 -42 -60 -52q-42 0 -52 60zM0 492q0 42 60 52q42 0 52 -60q0 -42 -60 -52q-42 0 -52 60zM0 636q0 42 60 52q42 0 52 -60q0 -42 -60 -52q-42 0 -52 60zM0 780q0 42 60 52 q42 0 52 -60q0 -42 -60 -52q-42 0 -52 60zM0 924q0 42 60 52q42 0 52 -60q0 -42 -60 -52q-42 0 -52 60zM0 1068q0 42 60 52q42 0 52 -60q0 -42 -60 -52q-42 0 -52 60zM0 1212q0 42 60 52q42 0 52 -60q0 -42 -60 -52q-42 0 -52 60zM144 60q0 42 60 52q42 0 52 -60 q0 -42 -60 -52q-42 0 -52 60zM144 204q0 42 60 52q42 0 52 -60q0 -42 -60 -52q-42 0 -52 60zM144 348q0 42 60 52q42 0 52 -60q0 -42 -60 -52q-42 0 -52 60zM144 492q0 42 60 52q42 0 52 -60q0 -42 -60 -52q-42 0 -52 60zM144 636q0 42 60 52q42 0 52 -60q0 -42 -60 -52 q-42 0 -52 60zM144 780q0 42 60 52q42 0 52 -60q0 -42 -60 -52q-42 0 -52 60zM144 924q0 42 60 52q42 0 52 -60q0 -42 -60 -52q-42 0 -52 60zM144 1068q0 42 60 52q42 0 52 -60q0 -42 -60 -52q-42 0 -52 60zM144 1212q0 42 60 52q42 0 52 -60q0 -42 -60 -52q-42 0 -52 60z M144 1356q0 42 60 52q42 0 52 -60q0 -42 -60 -52q-42 0 -52 60zM288 60q0 42 60 52q42 0 52 -60q0 -42 -60 -52q-42 0 -52 60zM288 204q0 42 60 52q42 0 52 -60q0 -42 -60 -52q-42 0 -52 60zM288 636q0 42 60 52q42 0 52 -60q0 -42 -60 -52q-42 0 -52 60zM288 780 q0 42 60 52q42 0 52 -60q0 -42 -60 -52q-42 0 -52 60zM288 1212q0 42 60 52q42 0 52 -60q0 -42 -60 -52q-42 0 -52 60zM288 1356q0 42 60 52q42 0 52 -60q0 -42 -60 -52q-42 0 -52 60zM432 60q0 42 60 52q42 0 52 -60q0 -42 -60 -52q-42 0 -52 60zM432 204q0 42 60 52 q42 0 52 -60q0 -42 -60 -52q-42 0 -52 60zM432 636q0 42 60 52q42 0 52 -60q0 -42 -60 -52q-42 0 -52 60zM432 780q0 42 60 52q42 0 52 -60q0 -42 -60 -52q-42 0 -52 60zM432 1212q0 42 60 52q42 0 52 -60q0 -42 -60 -52q-42 0 -52 60zM432 1356q0 42 60 52q42 0 52 -60 q0 -42 -60 -52q-42 0 -52 60zM576 60q0 42 60 52q42 0 52 -60q0 -42 -60 -52q-42 0 -52 60zM576 204q0 42 60 52q42 0 52 -60q0 -42 -60 -52q-42 0 -52 60zM576 348q0 42 60 52q42 0 52 -60q0 -42 -60 -52q-42 0 -52 60zM576 492q0 42 60 52q42 0 52 -60q0 -42 -60 -52 q-42 0 -52 60zM576 636q0 42 60 52q42 0 52 -60q0 -42 -60 -52q-42 0 -52 60zM576 780q0 42 60 52q42 0 52 -60q0 -42 -60 -52q-42 0 -52 60zM576 924q0 42 60 52q42 0 52 -60q0 -42 -60 -52q-42 0 -52 60zM576 1068q0 42 60 52q42 0 52 -60q0 -42 -60 -52q-42 0 -52 60z M576 1212q0 42 60 52q42 0 52 -60q0 -42 -60 -52q-42 0 -52 60zM576 1356q0 42 60 52q42 0 52 -60q0 -42 -60 -52q-42 0 -52 60zM720 204q0 42 60 52q42 0 52 -60q0 -42 -60 -52q-42 0 -52 60zM720 348q0 42 60 52q42 0 52 -60q0 -42 -60 -52q-42 0 -52 60zM720 492 q0 42 60 52q42 0 52 -60q0 -42 -60 -52q-42 0 -52 60zM720 636q0 42 60 52q42 0 52 -60q0 -42 -60 -52q-42 0 -52 60zM720 780q0 42 60 52q42 0 52 -60q0 -42 -60 -52q-42 0 -52 60zM720 924q0 42 60 52q42 0 52 -60q0 -42 -60 -52q-42 0 -52 60zM720 1068q0 42 60 52 q42 0 52 -60q0 -42 -60 -52q-42 0 -52 60zM720 1212q0 42 60 52q42 0 52 -60q0 -42 -60 -52q-42 0 -52 60z" />
<glyph unicode="9" d="M0 56q10 48 56 48q48 -10 48 -56q-10 -48 -56 -48q-48 10 -48 56zM0 776q10 48 56 48q48 -10 48 -56q-10 -48 -56 -48q-48 10 -48 56zM0 920q10 48 56 48q48 -10 48 -56q-10 -48 -56 -48q-48 10 -48 56zM0 1064q10 48 56 48q48 -10 48 -56q-10 -48 -56 -48q-48 10 -48 56 zM0 1208q10 48 56 48q48 -10 48 -56q-10 -48 -56 -48q-48 10 -48 56zM144 56q10 48 56 48q48 -10 48 -56q-10 -48 -56 -48q-48 10 -48 56zM144 200q10 48 56 48q48 -10 48 -56q-10 -48 -56 -48q-48 10 -48 56zM144 632q10 48 56 48q48 -10 48 -56q-10 -48 -56 -48 q-48 10 -48 56zM144 776q10 48 56 48q48 -10 48 -56q-10 -48 -56 -48q-48 10 -48 56zM144 920q10 48 56 48q48 -10 48 -56q-10 -48 -56 -48q-48 10 -48 56zM144 1064q10 48 56 48q48 -10 48 -56q-10 -48 -56 -48q-48 10 -48 56zM144 1208q10 48 56 48q48 -10 48 -56 q-10 -48 -56 -48q-48 10 -48 56zM144 1352q10 48 56 48q48 -10 48 -56q-10 -48 -56 -48q-48 10 -48 56zM288 56q10 48 56 48q48 -10 48 -56q-10 -48 -56 -48q-48 10 -48 56zM288 200q10 48 56 48q48 -10 48 -56q-10 -48 -56 -48q-48 10 -48 56zM288 632q10 48 56 48 q48 -10 48 -56q-10 -48 -56 -48q-48 10 -48 56zM288 776q10 48 56 48q48 -10 48 -56q-10 -48 -56 -48q-48 10 -48 56zM288 1208q10 48 56 48q48 -10 48 -56q-10 -48 -56 -48q-48 10 -48 56zM288 1352q10 48 56 48q48 -10 48 -56q-10 -48 -56 -48q-48 10 -48 56zM432 56 q10 48 56 48q48 -10 48 -56q-10 -48 -56 -48q-48 10 -48 56zM432 200q10 48 56 48q48 -10 48 -56q-10 -48 -56 -48q-48 10 -48 56zM432 632q10 48 56 48q48 -10 48 -56q-10 -48 -56 -48q-48 10 -48 56zM432 776q10 48 56 48q48 -10 48 -56q-10 -48 -56 -48q-48 10 -48 56z M432 1208q10 48 56 48q48 -10 48 -56q-10 -48 -56 -48q-48 10 -48 56zM432 1352q10 48 56 48q48 -10 48 -56q-10 -48 -56 -48q-48 10 -48 56zM576 56q10 48 56 48q48 -10 48 -56q-10 -48 -56 -48q-48 10 -48 56zM576 200q10 48 56 48q48 -10 48 -56q-10 -48 -56 -48 q-48 10 -48 56zM576 344q10 48 56 48q48 -10 48 -56q-10 -48 -56 -48q-48 10 -48 56zM576 488q10 48 56 48q48 -10 48 -56q-10 -48 -56 -48q-48 10 -48 56zM576 632q10 48 56 48q48 -10 48 -56q-10 -48 -56 -48q-48 10 -48 56zM576 776q10 48 56 48q48 -10 48 -56 q-10 -48 -56 -48q-48 10 -48 56zM576 920q10 48 56 48q48 -10 48 -56q-10 -48 -56 -48q-48 10 -48 56zM576 1064q10 48 56 48q48 -10 48 -56q-10 -48 -56 -48q-48 10 -48 56zM576 1208q10 48 56 48q48 -10 48 -56q-10 -48 -56 -48q-48 10 -48 56zM576 1352q10 48 56 48 q48 -10 48 -56q-10 -48 -56 -48q-48 10 -48 56zM720 200q10 48 56 48q48 -10 48 -56q-10 -48 -56 -48q-48 10 -48 56zM720 344q10 48 56 48q48 -10 48 -56q-10 -48 -56 -48q-48 10 -48 56zM720 488q10 48 56 48q48 -10 48 -56q-10 -48 -56 -48q-48 10 -48 56zM720 632 q10 48 56 48q48 -10 48 -56q-10 -48 -56 -48q-48 10 -48 56zM720 776q10 48 56 48q48 -10 48 -56q-10 -48 -56 -48q-48 10 -48 56zM720 920q10 48 56 48q48 -10 48 -56q-10 -48 -56 -48q-48 10 -48 56zM720 1064q10 48 56 48q48 -10 48 -56q-10 -48 -56 -48q-48 10 -48 56z M720 1208q10 48 56 48q48 -10 48 -56q-10 -48 -56 -48q-48 10 -48 56z" />
<glyph unicode=":" horiz-adv-x="426" d="M-2 60q0 42 60 52q42 0 52 -60q0 -42 -60 -52q-42 0 -52 60zM-2 204q0 42 60 52q42 0 52 -60q0 -42 -60 -52q-42 0 -52 60zM-2 636q0 42 60 52q42 0 52 -60q0 -42 -60 -52q-42 0 -52 60zM-2 780q0 42 60 52q42 0 52 -60q0 -42 -60 -52q-42 0 -52 60zM142 60q0 42 60 52 q42 0 52 -60q0 -42 -60 -52q-42 0 -52 60zM142 204q0 42 60 52q42 0 52 -60q0 -42 -60 -52q-42 0 -52 60zM142 636q0 42 60 52q42 0 52 -60q0 -42 -60 -52q-42 0 -52 60zM142 780q0 42 60 52q42 0 52 -60q0 -42 -60 -52q-42 0 -52 60z" />
<glyph unicode=";" horiz-adv-x="420" d="M19 58q0 42 60 52q42 0 52 -60q0 -42 -60 -52q-42 0 -52 60zM19 202q0 42 60 52q42 0 52 -60q0 -42 -60 -52q-42 0 -52 60zM19 634q0 42 60 52q42 0 52 -60q0 -42 -60 -52q-42 0 -52 60zM19 778q0 42 60 52q42 0 52 -60q0 -42 -60 -52q-42 0 -52 60zM163 58q0 42 60 52 q42 0 52 -60q0 -42 -60 -52q-42 0 -52 60zM163 -86q0 42 60 52q42 0 52 -60q0 -42 -60 -52q-42 0 -52 60zM163 202q0 42 60 52q42 0 52 -60q0 -42 -60 -52q-42 0 -52 60zM163 -230q0 42 60 52q42 0 52 -60q0 -42 -60 -52q-42 0 -52 60zM163 634q0 42 60 52q42 0 52 -60 q0 -42 -60 -52q-42 0 -52 60zM163 778q0 42 60 52q42 0 52 -60q0 -42 -60 -52q-42 0 -52 60z" />
<glyph unicode="&#x3c;" horiz-adv-x="833" d="M-3 706q0 42 60 52q42 0 52 -60q0 -42 -60 -52q-42 0 -52 60zM141 562q0 42 60 52q42 0 52 -60q0 -42 -60 -52q-42 0 -52 60zM141 706q0 42 60 52q42 0 52 -60q0 -42 -60 -52q-42 0 -52 60zM141 850q0 42 60 52q42 0 52 -60q0 -42 -60 -52q-42 0 -52 60zM285 418 q0 42 60 52q42 0 52 -60q0 -42 -60 -52q-42 0 -52 60zM285 562q0 42 60 52q42 0 52 -60q0 -42 -60 -52q-42 0 -52 60zM285 850q0 42 60 52q42 0 52 -60q0 -42 -60 -52q-42 0 -52 60zM285 994q0 42 60 52q42 0 52 -60q0 -42 -60 -52q-42 0 -52 60zM429 274q0 42 60 52 q42 0 52 -60q0 -42 -60 -52q-42 0 -52 60zM429 418q0 42 60 52q42 0 52 -60q0 -42 -60 -52q-42 0 -52 60zM429 994q0 42 60 52q42 0 52 -60q0 -42 -60 -52q-42 0 -52 60zM429 1138q0 42 60 52q42 0 52 -60q0 -42 -60 -52q-42 0 -52 60zM573 130q0 42 60 52q42 0 52 -60 q0 -42 -60 -52q-42 0 -52 60zM573 274q0 42 60 52q42 0 52 -60q0 -42 -60 -52q-42 0 -52 60zM573 1138q0 42 60 52q42 0 52 -60q0 -42 -60 -52q-42 0 -52 60zM573 1282q0 42 60 52q42 0 52 -60q0 -42 -60 -52q-42 0 -52 60z" />
<glyph unicode="=" horiz-adv-x="1014" d="M7 340q0 42 60 52q42 0 52 -60q0 -42 -60 -52q-42 0 -52 60zM7 484q0 42 60 52q42 0 52 -60q0 -42 -60 -52q-42 0 -52 60zM7 916q0 42 60 52q42 0 52 -60q0 -42 -60 -52q-42 0 -52 60zM7 1060q0 42 60 52q42 0 52 -60q0 -42 -60 -52q-42 0 -52 60zM151 340q0 42 60 52 q42 0 52 -60q0 -42 -60 -52q-42 0 -52 60zM151 484q0 42 60 52q42 0 52 -60q0 -42 -60 -52q-42 0 -52 60zM151 916q0 42 60 52q42 0 52 -60q0 -42 -60 -52q-42 0 -52 60zM151 1060q0 42 60 52q42 0 52 -60q0 -42 -60 -52q-42 0 -52 60zM295 340q0 42 60 52q42 0 52 -60 q0 -42 -60 -52q-42 0 -52 60zM295 484q0 42 60 52q42 0 52 -60q0 -42 -60 -52q-42 0 -52 60zM295 916q0 42 60 52q42 0 52 -60q0 -42 -60 -52q-42 0 -52 60zM295 1060q0 42 60 52q42 0 52 -60q0 -42 -60 -52q-42 0 -52 60zM439 340q0 42 60 52q42 0 52 -60q0 -42 -60 -52 q-42 0 -52 60zM439 484q0 42 60 52q42 0 52 -60q0 -42 -60 -52q-42 0 -52 60zM439 916q0 42 60 52q42 0 52 -60q0 -42 -60 -52q-42 0 -52 60zM439 1060q0 42 60 52q42 0 52 -60q0 -42 -60 -52q-42 0 -52 60zM583 340q0 42 60 52q42 0 52 -60q0 -42 -60 -52q-42 0 -52 60z M583 484q0 42 60 52q42 0 52 -60q0 -42 -60 -52q-42 0 -52 60zM583 916q0 42 60 52q42 0 52 -60q0 -42 -60 -52q-42 0 -52 60zM583 1060q0 42 60 52q42 0 52 -60q0 -42 -60 -52q-42 0 -52 60zM727 340q0 42 60 52q42 0 52 -60q0 -42 -60 -52q-42 0 -52 60zM727 484 q0 42 60 52q42 0 52 -60q0 -42 -60 -52q-42 0 -52 60zM727 916q0 42 60 52q42 0 52 -60q0 -42 -60 -52q-42 0 -52 60zM727 1060q0 42 60 52q42 0 52 -60q0 -42 -60 -52q-42 0 -52 60z" />
<glyph unicode="&#x3e;" horiz-adv-x="784" d="M-3 122q10 60 52 60q60 -10 60 -52q-10 -60 -52 -60q-60 10 -60 52zM-3 266q10 60 52 60q60 -10 60 -52q-10 -60 -52 -60q-60 10 -60 52zM-3 1130q10 60 52 60q60 -10 60 -52q-10 -60 -52 -60q-60 10 -60 52zM-3 1274q10 60 52 60q60 -10 60 -52q-10 -60 -52 -60 q-60 10 -60 52zM141 266q10 60 52 60q60 -10 60 -52q-10 -60 -52 -60q-60 10 -60 52zM141 410q10 60 52 60q60 -10 60 -52q-10 -60 -52 -60q-60 10 -60 52zM141 986q10 60 52 60q60 -10 60 -52q-10 -60 -52 -60q-60 10 -60 52zM141 1130q10 60 52 60q60 -10 60 -52 q-10 -60 -52 -60q-60 10 -60 52zM285 410q10 60 52 60q60 -10 60 -52q-10 -60 -52 -60q-60 10 -60 52zM285 554q10 60 52 60q60 -10 60 -52q-10 -60 -52 -60q-60 10 -60 52zM285 842q10 60 52 60q60 -10 60 -52q-10 -60 -52 -60q-60 10 -60 52zM285 986q10 60 52 60 q60 -10 60 -52q-10 -60 -52 -60q-60 10 -60 52zM429 554q10 60 52 60q60 -10 60 -52q-10 -60 -52 -60q-60 10 -60 52zM429 698q10 60 52 60q60 -10 60 -52q-10 -60 -52 -60q-60 10 -60 52zM429 842q10 60 52 60q60 -10 60 -52q-10 -60 -52 -60q-60 10 -60 52zM573 698 q10 60 52 60q60 -10 60 -52q-10 -60 -52 -60q-60 10 -60 52z" />
<glyph unicode="?" horiz-adv-x="932" d="M12 1068q0 42 60 52q42 0 52 -60q0 -42 -60 -52q-42 0 -52 60zM12 1212q0 42 60 52q42 0 52 -60q0 -42 -60 -52q-42 0 -52 60zM156 1068q0 42 60 52q42 0 52 -60q0 -42 -60 -52q-42 0 -52 60zM156 1212q0 42 60 52q42 0 52 -60q0 -42 -60 -52q-42 0 -52 60zM156 1356 q0 42 60 52q42 0 52 -60q0 -42 -60 -52q-42 0 -52 60zM300 60q0 42 60 52q42 0 52 -60q0 -42 -60 -52q-42 0 -52 60zM300 204q0 42 60 52q42 0 52 -60q0 -42 -60 -52q-42 0 -52 60zM300 492q0 42 60 52q42 0 52 -60q0 -42 -60 -52q-42 0 -52 60zM300 636q0 42 60 52 q42 0 52 -60q0 -42 -60 -52q-42 0 -52 60zM300 1212q0 42 60 52q42 0 52 -60q0 -42 -60 -52q-42 0 -52 60zM300 1356q0 42 60 52q42 0 52 -60q0 -42 -60 -52q-42 0 -52 60zM444 60q0 42 60 52q42 0 52 -60q0 -42 -60 -52q-42 0 -52 60zM444 204q0 42 60 52q42 0 52 -60 q0 -42 -60 -52q-42 0 -52 60zM444 492q0 42 60 52q42 0 52 -60q0 -42 -60 -52q-42 0 -52 60zM444 636q0 42 60 52q42 0 52 -60q0 -42 -60 -52q-42 0 -52 60zM444 1212q0 42 60 52q42 0 52 -60q0 -42 -60 -52q-42 0 -52 60zM444 1356q0 42 60 52q42 0 52 -60q0 -42 -60 -52 q-42 0 -52 60zM588 636q0 42 60 52q42 0 52 -60q0 -42 -60 -52q-42 0 -52 60zM588 780q0 42 60 52q42 0 52 -60q0 -42 -60 -52q-42 0 -52 60zM588 924q0 42 60 52q42 0 52 -60q0 -42 -60 -52q-42 0 -52 60zM588 1068q0 42 60 52q42 0 52 -60q0 -42 -60 -52q-42 0 -52 60z M588 1212q0 42 60 52q42 0 52 -60q0 -42 -60 -52q-42 0 -52 60zM588 1356q0 42 60 52q42 0 52 -60q0 -42 -60 -52q-42 0 -52 60zM732 780q0 42 60 52q42 0 52 -60q0 -42 -60 -52q-42 0 -52 60zM732 924q0 42 60 52q42 0 52 -60q0 -42 -60 -52q-42 0 -52 60zM732 1068 q0 42 60 52q42 0 52 -60q0 -42 -60 -52q-42 0 -52 60zM732 1212q0 42 60 52q42 0 52 -60q0 -42 -60 -52q-42 0 -52 60z" />
<glyph unicode="@" horiz-adv-x="1395" d="M0 204q0 42 60 52q42 0 52 -60q0 -42 -60 -52q-42 0 -52 60zM0 348q0 42 60 52q42 0 52 -60q0 -42 -60 -52q-42 0 -52 60zM0 492q0 42 60 52q42 0 52 -60q0 -42 -60 -52q-42 0 -52 60zM0 636q0 42 60 52q42 0 52 -60q0 -42 -60 -52q-42 0 -52 60zM0 780q0 42 60 52 q42 0 52 -60q0 -42 -60 -52q-42 0 -52 60zM0 924q0 42 60 52q42 0 52 -60q0 -42 -60 -52q-42 0 -52 60zM0 1068q0 42 60 52q42 0 52 -60q0 -42 -60 -52q-42 0 -52 60zM0 1212q0 42 60 52q42 0 52 -60q0 -42 -60 -52q-42 0 -52 60zM148 204q0 42 60 52q42 0 52 -60 q0 -42 -60 -52q-42 0 -52 60zM148 348q0 42 60 52q42 0 52 -60q0 -42 -60 -52q-42 0 -52 60zM148 492q0 42 60 52q42 0 52 -60q0 -42 -60 -52q-42 0 -52 60zM148 636q0 42 60 52q42 0 52 -60q0 -42 -60 -52q-42 0 -52 60zM148 780q0 42 60 52q42 0 52 -60q0 -42 -60 -52 q-42 0 -52 60zM148 924q0 42 60 52q42 0 52 -60q0 -42 -60 -52q-42 0 -52 60zM148 1068q0 42 60 52q42 0 52 -60q0 -42 -60 -52q-42 0 -52 60zM148 1212q0 42 60 52q42 0 52 -60q0 -42 -60 -52q-42 0 -52 60zM292 60q0 42 60 52q42 0 52 -60q0 -42 -60 -52q-42 0 -52 60z M292 204q0 42 60 52q42 0 52 -60q0 -42 -60 -52q-42 0 -52 60zM292 1212q0 42 60 52q42 0 52 -60q0 -42 -60 -52q-42 0 -52 60zM292 1356q0 42 60 52q42 0 52 -60q0 -42 -60 -52q-42 0 -52 60zM436 60q0 42 60 52q42 0 52 -60q0 -42 -60 -52q-42 0 -52 60zM436 204 q0 42 60 52q42 0 52 -60q0 -42 -60 -52q-42 0 -52 60zM436 492q0 42 60 52q42 0 52 -60q0 -42 -60 -52q-42 0 -52 60zM436 636q0 42 60 52q42 0 52 -60q0 -42 -60 -52q-42 0 -52 60zM436 780q0 42 60 52q42 0 52 -60q0 -42 -60 -52q-42 0 -52 60zM436 924q0 42 60 52 q42 0 52 -60q0 -42 -60 -52q-42 0 -52 60zM436 1212q0 42 60 52q42 0 52 -60q0 -42 -60 -52q-42 0 -52 60zM436 1356q0 42 60 52q42 0 52 -60q0 -42 -60 -52q-42 0 -52 60zM580 60q0 42 60 52q42 0 52 -60q0 -42 -60 -52q-42 0 -52 60zM580 204q0 42 60 52q42 0 52 -60 q0 -42 -60 -52q-42 0 -52 60zM580 492q0 42 60 52q42 0 52 -60q0 -42 -60 -52q-42 0 -52 60zM580 924q0 42 60 52q42 0 52 -60q0 -42 -60 -52q-42 0 -52 60zM580 1212q0 42 60 52q42 0 52 -60q0 -42 -60 -52q-42 0 -52 60zM580 1356q0 42 60 52q42 0 52 -60q0 -42 -60 -52 q-42 0 -52 60zM724 60q0 42 60 52q42 0 52 -60q0 -42 -60 -52q-42 0 -52 60zM724 204q0 42 60 52q42 0 52 -60q0 -42 -60 -52q-42 0 -52 60zM724 492q0 42 60 52q42 0 52 -60q0 -42 -60 -52q-42 0 -52 60zM724 636q0 42 60 52q42 0 52 -60q0 -42 -60 -52q-42 0 -52 60z M724 780q0 42 60 52q42 0 52 -60q0 -42 -60 -52q-42 0 -52 60zM724 924q0 42 60 52q42 0 52 -60q0 -42 -60 -52q-42 0 -52 60zM724 1212q0 42 60 52q42 0 52 -60q0 -42 -60 -52q-42 0 -52 60zM724 1356q0 42 60 52q42 0 52 -60q0 -42 -60 -52q-42 0 -52 60zM868 60 q0 42 60 52q42 0 52 -60q0 -42 -60 -52q-42 0 -52 60zM868 204q0 42 60 52q42 0 52 -60q0 -42 -60 -52q-42 0 -52 60zM868 492q0 42 60 52q42 0 52 -60q0 -42 -60 -52q-42 0 -52 60zM868 1212q0 42 60 52q42 0 52 -60q0 -42 -60 -52q-42 0 -52 60zM868 1356q0 42 60 52 q42 0 52 -60q0 -42 -60 -52q-42 0 -52 60zM1012 204q0 42 60 52q42 0 52 -60q0 -42 -60 -52q-42 0 -52 60zM1012 348q0 42 60 52q42 0 52 -60q0 -42 -60 -52q-42 0 -52 60zM1012 492q0 42 60 52q42 0 52 -60q0 -42 -60 -52q-42 0 -52 60zM1012 636q0 42 60 52q42 0 52 -60 q0 -42 -60 -52q-42 0 -52 60zM1012 780q0 42 60 52q42 0 52 -60q0 -42 -60 -52q-42 0 -52 60zM1012 924q0 42 60 52q42 0 52 -60q0 -42 -60 -52q-42 0 -52 60zM1012 1068q0 42 60 52q42 0 52 -60q0 -42 -60 -52q-42 0 -52 60zM1012 1212q0 42 60 52q42 0 52 -60 q0 -42 -60 -52q-42 0 -52 60zM1156 204q0 42 60 52q42 0 52 -60q0 -42 -60 -52q-42 0 -52 60zM1156 348q0 42 60 52q42 0 52 -60q0 -42 -60 -52q-42 0 -52 60zM1156 492q0 42 60 52q42 0 52 -60q0 -42 -60 -52q-42 0 -52 60zM1156 636q0 42 60 52q42 0 52 -60q0 -42 -60 -52 q-42 0 -52 60zM1156 780q0 42 60 52q42 0 52 -60q0 -42 -60 -52q-42 0 -52 60zM1156 924q0 42 60 52q42 0 52 -60q0 -42 -60 -52q-42 0 -52 60zM1156 1068q0 42 60 52q42 0 52 -60q0 -42 -60 -52q-42 0 -52 60zM1156 1212q0 42 60 52q42 0 52 -60q0 -42 -60 -52 q-42 0 -52 60z" />
<glyph unicode="A" d="M0 60q0 42 60 52q42 0 52 -60q0 -42 -60 -52q-42 0 -52 60zM0 204q0 42 60 52q42 0 52 -60q0 -42 -60 -52q-42 0 -52 60zM0 348q0 42 60 52q42 0 52 -60q0 -42 -60 -52q-42 0 -52 60zM0 492q0 42 60 52q42 0 52 -60q0 -42 -60 -52q-42 0 -52 60zM0 636q0 42 60 52 q42 0 52 -60q0 -42 -60 -52q-42 0 -52 60zM0 780q0 42 60 52q42 0 52 -60q0 -42 -60 -52q-42 0 -52 60zM0 924q0 42 60 52q42 0 52 -60q0 -42 -60 -52q-42 0 -52 60zM0 1068q0 42 60 52q42 0 52 -60q0 -42 -60 -52q-42 0 -52 60zM0 1212q0 42 60 52q42 0 52 -60 q0 -42 -60 -52q-42 0 -52 60zM144 60q0 42 60 52q42 0 52 -60q0 -42 -60 -52q-42 0 -52 60zM144 204q0 42 60 52q42 0 52 -60q0 -42 -60 -52q-42 0 -52 60zM144 348q0 42 60 52q42 0 52 -60q0 -42 -60 -52q-42 0 -52 60zM144 492q0 42 60 52q42 0 52 -60q0 -42 -60 -52 q-42 0 -52 60zM144 636q0 42 60 52q42 0 52 -60q0 -42 -60 -52q-42 0 -52 60zM144 780q0 42 60 52q42 0 52 -60q0 -42 -60 -52q-42 0 -52 60zM144 924q0 42 60 52q42 0 52 -60q0 -42 -60 -52q-42 0 -52 60zM144 1068q0 42 60 52q42 0 52 -60q0 -42 -60 -52q-42 0 -52 60z M144 1212q0 42 60 52q42 0 52 -60q0 -42 -60 -52q-42 0 -52 60zM144 1356q0 42 60 52q42 0 52 -60q0 -42 -60 -52q-42 0 -52 60zM288 636q0 42 60 52q42 0 52 -60q0 -42 -60 -52q-42 0 -52 60zM288 1212q0 42 60 52q42 0 52 -60q0 -42 -60 -52q-42 0 -52 60zM288 1356 q0 42 60 52q42 0 52 -60q0 -42 -60 -52q-42 0 -52 60zM432 636q0 42 60 52q42 0 52 -60q0 -42 -60 -52q-42 0 -52 60zM432 1212q0 42 60 52q42 0 52 -60q0 -42 -60 -52q-42 0 -52 60zM432 1356q0 42 60 52q42 0 52 -60q0 -42 -60 -52q-42 0 -52 60zM576 60q0 42 60 52 q42 0 52 -60q0 -42 -60 -52q-42 0 -52 60zM576 204q0 42 60 52q42 0 52 -60q0 -42 -60 -52q-42 0 -52 60zM576 348q0 42 60 52q42 0 52 -60q0 -42 -60 -52q-42 0 -52 60zM576 492q0 42 60 52q42 0 52 -60q0 -42 -60 -52q-42 0 -52 60zM576 636q0 42 60 52q42 0 52 -60 q0 -42 -60 -52q-42 0 -52 60zM576 780q0 42 60 52q42 0 52 -60q0 -42 -60 -52q-42 0 -52 60zM576 924q0 42 60 52q42 0 52 -60q0 -42 -60 -52q-42 0 -52 60zM576 1068q0 42 60 52q42 0 52 -60q0 -42 -60 -52q-42 0 -52 60zM576 1212q0 42 60 52q42 0 52 -60q0 -42 -60 -52 q-42 0 -52 60zM576 1356q0 42 60 52q42 0 52 -60q0 -42 -60 -52q-42 0 -52 60zM720 60q0 42 60 52q42 0 52 -60q0 -42 -60 -52q-42 0 -52 60zM720 204q0 42 60 52q42 0 52 -60q0 -42 -60 -52q-42 0 -52 60zM720 348q0 42 60 52q42 0 52 -60q0 -42 -60 -52q-42 0 -52 60z M720 492q0 42 60 52q42 0 52 -60q0 -42 -60 -52q-42 0 -52 60zM720 636q0 42 60 52q42 0 52 -60q0 -42 -60 -52q-42 0 -52 60zM720 780q0 42 60 52q42 0 52 -60q0 -42 -60 -52q-42 0 -52 60zM720 924q0 42 60 52q42 0 52 -60q0 -42 -60 -52q-42 0 -52 60zM720 1068 q0 42 60 52q42 0 52 -60q0 -42 -60 -52q-42 0 -52 60zM720 1212q0 42 60 52q42 0 52 -60q0 -42 -60 -52q-42 0 -52 60z" />
<glyph unicode="B" d="M0 60q0 42 60 52q42 0 52 -60q0 -42 -60 -52q-42 0 -52 60zM0 204q0 42 60 52q42 0 52 -60q0 -42 -60 -52q-42 0 -52 60zM0 348q0 42 60 52q42 0 52 -60q0 -42 -60 -52q-42 0 -52 60zM0 492q0 42 60 52q42 0 52 -60q0 -42 -60 -52q-42 0 -52 60zM0 636q0 42 60 52 q42 0 52 -60q0 -42 -60 -52q-42 0 -52 60zM0 780q0 42 60 52q42 0 52 -60q0 -42 -60 -52q-42 0 -52 60zM0 924q0 42 60 52q42 0 52 -60q0 -42 -60 -52q-42 0 -52 60zM0 1068q0 42 60 52q42 0 52 -60q0 -42 -60 -52q-42 0 -52 60zM0 1212q0 42 60 52q42 0 52 -60 q0 -42 -60 -52q-42 0 -52 60zM0 1356q0 42 60 52q42 0 52 -60q0 -42 -60 -52q-42 0 -52 60zM144 60q0 42 60 52q42 0 52 -60q0 -42 -60 -52q-42 0 -52 60zM144 204q0 42 60 52q42 0 52 -60q0 -42 -60 -52q-42 0 -52 60zM144 348q0 42 60 52q42 0 52 -60q0 -42 -60 -52 q-42 0 -52 60zM144 492q0 42 60 52q42 0 52 -60q0 -42 -60 -52q-42 0 -52 60zM144 636q0 42 60 52q42 0 52 -60q0 -42 -60 -52q-42 0 -52 60zM144 780q0 42 60 52q42 0 52 -60q0 -42 -60 -52q-42 0 -52 60zM144 924q0 42 60 52q42 0 52 -60q0 -42 -60 -52q-42 0 -52 60z M144 1068q0 42 60 52q42 0 52 -60q0 -42 -60 -52q-42 0 -52 60zM144 1212q0 42 60 52q42 0 52 -60q0 -42 -60 -52q-42 0 -52 60zM144 1356q0 42 60 52q42 0 52 -60q0 -42 -60 -52q-42 0 -52 60zM288 60q0 42 60 52q42 0 52 -60q0 -42 -60 -52q-42 0 -52 60zM288 204 q0 42 60 52q42 0 52 -60q0 -42 -60 -52q-42 0 -52 60zM288 636q0 42 60 52q42 0 52 -60q0 -42 -60 -52q-42 0 -52 60zM288 780q0 42 60 52q42 0 52 -60q0 -42 -60 -52q-42 0 -52 60zM288 1212q0 42 60 52q42 0 52 -60q0 -42 -60 -52q-42 0 -52 60zM288 1356q0 42 60 52 q42 0 52 -60q0 -42 -60 -52q-42 0 -52 60zM432 60q0 42 60 52q42 0 52 -60q0 -42 -60 -52q-42 0 -52 60zM432 204q0 42 60 52q42 0 52 -60q0 -42 -60 -52q-42 0 -52 60zM432 636q0 42 60 52q42 0 52 -60q0 -42 -60 -52q-42 0 -52 60zM432 780q0 42 60 52q42 0 52 -60 q0 -42 -60 -52q-42 0 -52 60zM432 1212q0 42 60 52q42 0 52 -60q0 -42 -60 -52q-42 0 -52 60zM432 1356q0 42 60 52q42 0 52 -60q0 -42 -60 -52q-42 0 -52 60zM576 60q0 42 60 52q42 0 52 -60q0 -42 -60 -52q-42 0 -52 60zM576 204q0 42 60 52q42 0 52 -60q0 -42 -60 -52 q-42 0 -52 60zM576 348q0 42 60 52q42 0 52 -60q0 -42 -60 -52q-42 0 -52 60zM576 492q0 42 60 52q42 0 52 -60q0 -42 -60 -52q-42 0 -52 60zM576 636q0 42 60 52q42 0 52 -60q0 -42 -60 -52q-42 0 -52 60zM576 780q0 42 60 52q42 0 52 -60q0 -42 -60 -52q-42 0 -52 60z M576 924q0 42 60 52q42 0 52 -60q0 -42 -60 -52q-42 0 -52 60zM576 1068q0 42 60 52q42 0 52 -60q0 -42 -60 -52q-42 0 -52 60zM576 1212q0 42 60 52q42 0 52 -60q0 -42 -60 -52q-42 0 -52 60zM576 1356q0 42 60 52q42 0 52 -60q0 -42 -60 -52q-42 0 -52 60zM720 204 q0 42 60 52q42 0 52 -60q0 -42 -60 -52q-42 0 -52 60zM720 348q0 42 60 52q42 0 52 -60q0 -42 -60 -52q-42 0 -52 60zM720 492q0 42 60 52q42 0 52 -60q0 -42 -60 -52q-42 0 -52 60zM720 924q0 42 60 52q42 0 52 -60q0 -42 -60 -52q-42 0 -52 60zM720 1068q0 42 60 52 q42 0 52 -60q0 -42 -60 -52q-42 0 -52 60zM720 1212q0 42 60 52q42 0 52 -60q0 -42 -60 -52q-42 0 -52 60z" />
<glyph unicode="C" d="M0 204q0 42 60 52q42 0 52 -60q0 -42 -60 -52q-42 0 -52 60zM0 348q0 42 60 52q42 0 52 -60q0 -42 -60 -52q-42 0 -52 60zM0 492q0 42 60 52q42 0 52 -60q0 -42 -60 -52q-42 0 -52 60zM0 636q0 42 60 52q42 0 52 -60q0 -42 -60 -52q-42 0 -52 60zM0 780q0 42 60 52 q42 0 52 -60q0 -42 -60 -52q-42 0 -52 60zM0 924q0 42 60 52q42 0 52 -60q0 -42 -60 -52q-42 0 -52 60zM0 1068q0 42 60 52q42 0 52 -60q0 -42 -60 -52q-42 0 -52 60zM0 1212q0 42 60 52q42 0 52 -60q0 -42 -60 -52q-42 0 -52 60zM144 60q0 42 60 52q42 0 52 -60 q0 -42 -60 -52q-42 0 -52 60zM144 204q0 42 60 52q42 0 52 -60q0 -42 -60 -52q-42 0 -52 60zM144 348q0 42 60 52q42 0 52 -60q0 -42 -60 -52q-42 0 -52 60zM144 492q0 42 60 52q42 0 52 -60q0 -42 -60 -52q-42 0 -52 60zM144 636q0 42 60 52q42 0 52 -60q0 -42 -60 -52 q-42 0 -52 60zM144 780q0 42 60 52q42 0 52 -60q0 -42 -60 -52q-42 0 -52 60zM144 924q0 42 60 52q42 0 52 -60q0 -42 -60 -52q-42 0 -52 60zM144 1068q0 42 60 52q42 0 52 -60q0 -42 -60 -52q-42 0 -52 60zM144 1212q0 42 60 52q42 0 52 -60q0 -42 -60 -52q-42 0 -52 60z M144 1356q0 42 60 52q42 0 52 -60q0 -42 -60 -52q-42 0 -52 60zM288 60q0 42 60 52q42 0 52 -60q0 -42 -60 -52q-42 0 -52 60zM288 204q0 42 60 52q42 0 52 -60q0 -42 -60 -52q-42 0 -52 60zM288 1212q0 42 60 52q42 0 52 -60q0 -42 -60 -52q-42 0 -52 60zM288 1356 q0 42 60 52q42 0 52 -60q0 -42 -60 -52q-42 0 -52 60zM432 60q0 42 60 52q42 0 52 -60q0 -42 -60 -52q-42 0 -52 60zM432 204q0 42 60 52q42 0 52 -60q0 -42 -60 -52q-42 0 -52 60zM432 1212q0 42 60 52q42 0 52 -60q0 -42 -60 -52q-42 0 -52 60zM432 1356q0 42 60 52 q42 0 52 -60q0 -42 -60 -52q-42 0 -52 60zM576 60q0 42 60 52q42 0 52 -60q0 -42 -60 -52q-42 0 -52 60zM576 204q0 42 60 52q42 0 52 -60q0 -42 -60 -52q-42 0 -52 60zM576 1212q0 42 60 52q42 0 52 -60q0 -42 -60 -52q-42 0 -52 60zM576 1356q0 42 60 52q42 0 52 -60 q0 -42 -60 -52q-42 0 -52 60zM720 60q0 42 60 52q42 0 52 -60q0 -42 -60 -52q-42 0 -52 60zM720 204q0 42 60 52q42 0 52 -60q0 -42 -60 -52q-42 0 -52 60zM720 1212q0 42 60 52q42 0 52 -60q0 -42 -60 -52q-42 0 -52 60zM720 1356q0 42 60 52q42 0 52 -60q0 -42 -60 -52 q-42 0 -52 60z" />
<glyph unicode="D" d="M0 60q0 42 60 52q42 0 52 -60q0 -42 -60 -52q-42 0 -52 60zM0 204q0 42 60 52q42 0 52 -60q0 -42 -60 -52q-42 0 -52 60zM0 348q0 42 60 52q42 0 52 -60q0 -42 -60 -52q-42 0 -52 60zM0 492q0 42 60 52q42 0 52 -60q0 -42 -60 -52q-42 0 -52 60zM0 636q0 42 60 52 q42 0 52 -60q0 -42 -60 -52q-42 0 -52 60zM0 780q0 42 60 52q42 0 52 -60q0 -42 -60 -52q-42 0 -52 60zM0 924q0 42 60 52q42 0 52 -60q0 -42 -60 -52q-42 0 -52 60zM0 1068q0 42 60 52q42 0 52 -60q0 -42 -60 -52q-42 0 -52 60zM0 1212q0 42 60 52q42 0 52 -60 q0 -42 -60 -52q-42 0 -52 60zM0 1356q0 42 60 52q42 0 52 -60q0 -42 -60 -52q-42 0 -52 60zM144 60q0 42 60 52q42 0 52 -60q0 -42 -60 -52q-42 0 -52 60zM144 204q0 42 60 52q42 0 52 -60q0 -42 -60 -52q-42 0 -52 60zM144 348q0 42 60 52q42 0 52 -60q0 -42 -60 -52 q-42 0 -52 60zM144 492q0 42 60 52q42 0 52 -60q0 -42 -60 -52q-42 0 -52 60zM144 636q0 42 60 52q42 0 52 -60q0 -42 -60 -52q-42 0 -52 60zM144 780q0 42 60 52q42 0 52 -60q0 -42 -60 -52q-42 0 -52 60zM144 924q0 42 60 52q42 0 52 -60q0 -42 -60 -52q-42 0 -52 60z M144 1068q0 42 60 52q42 0 52 -60q0 -42 -60 -52q-42 0 -52 60zM144 1212q0 42 60 52q42 0 52 -60q0 -42 -60 -52q-42 0 -52 60zM144 1356q0 42 60 52q42 0 52 -60q0 -42 -60 -52q-42 0 -52 60zM288 60q0 42 60 52q42 0 52 -60q0 -42 -60 -52q-42 0 -52 60zM288 204 q0 42 60 52q42 0 52 -60q0 -42 -60 -52q-42 0 -52 60zM288 1212q0 42 60 52q42 0 52 -60q0 -42 -60 -52q-42 0 -52 60zM288 1356q0 42 60 52q42 0 52 -60q0 -42 -60 -52q-42 0 -52 60zM432 60q0 42 60 52q42 0 52 -60q0 -42 -60 -52q-42 0 -52 60zM432 204q0 42 60 52 q42 0 52 -60q0 -42 -60 -52q-42 0 -52 60zM432 1212q0 42 60 52q42 0 52 -60q0 -42 -60 -52q-42 0 -52 60zM432 1356q0 42 60 52q42 0 52 -60q0 -42 -60 -52q-42 0 -52 60zM576 60q0 42 60 52q42 0 52 -60q0 -42 -60 -52q-42 0 -52 60zM576 204q0 42 60 52q42 0 52 -60 q0 -42 -60 -52q-42 0 -52 60zM576 348q0 42 60 52q42 0 52 -60q0 -42 -60 -52q-42 0 -52 60zM576 492q0 42 60 52q42 0 52 -60q0 -42 -60 -52q-42 0 -52 60zM576 636q0 42 60 52q42 0 52 -60q0 -42 -60 -52q-42 0 -52 60zM576 780q0 42 60 52q42 0 52 -60q0 -42 -60 -52 q-42 0 -52 60zM576 924q0 42 60 52q42 0 52 -60q0 -42 -60 -52q-42 0 -52 60zM576 1068q0 42 60 52q42 0 52 -60q0 -42 -60 -52q-42 0 -52 60zM576 1212q0 42 60 52q42 0 52 -60q0 -42 -60 -52q-42 0 -52 60zM576 1356q0 42 60 52q42 0 52 -60q0 -42 -60 -52q-42 0 -52 60z M720 204q0 42 60 52q42 0 52 -60q0 -42 -60 -52q-42 0 -52 60zM720 348q0 42 60 52q42 0 52 -60q0 -42 -60 -52q-42 0 -52 60zM720 492q0 42 60 52q42 0 52 -60q0 -42 -60 -52q-42 0 -52 60zM720 636q0 42 60 52q42 0 52 -60q0 -42 -60 -52q-42 0 -52 60zM720 780 q0 42 60 52q42 0 52 -60q0 -42 -60 -52q-42 0 -52 60zM720 924q0 42 60 52q42 0 52 -60q0 -42 -60 -52q-42 0 -52 60zM720 1068q0 42 60 52q42 0 52 -60q0 -42 -60 -52q-42 0 -52 60zM720 1212q0 42 60 52q42 0 52 -60q0 -42 -60 -52q-42 0 -52 60z" />
<glyph unicode="E" d="M0 60q0 42 60 52q42 0 52 -60q0 -42 -60 -52q-42 0 -52 60zM0 204q0 42 60 52q42 0 52 -60q0 -42 -60 -52q-42 0 -52 60zM0 348q0 42 60 52q42 0 52 -60q0 -42 -60 -52q-42 0 -52 60zM0 492q0 42 60 52q42 0 52 -60q0 -42 -60 -52q-42 0 -52 60zM0 636q0 42 60 52 q42 0 52 -60q0 -42 -60 -52q-42 0 -52 60zM0 780q0 42 60 52q42 0 52 -60q0 -42 -60 -52q-42 0 -52 60zM0 924q0 42 60 52q42 0 52 -60q0 -42 -60 -52q-42 0 -52 60zM0 1068q0 42 60 52q42 0 52 -60q0 -42 -60 -52q-42 0 -52 60zM0 1212q0 42 60 52q42 0 52 -60 q0 -42 -60 -52q-42 0 -52 60zM0 1356q0 42 60 52q42 0 52 -60q0 -42 -60 -52q-42 0 -52 60zM144 60q0 42 60 52q42 0 52 -60q0 -42 -60 -52q-42 0 -52 60zM144 204q0 42 60 52q42 0 52 -60q0 -42 -60 -52q-42 0 -52 60zM144 348q0 42 60 52q42 0 52 -60q0 -42 -60 -52 q-42 0 -52 60zM144 492q0 42 60 52q42 0 52 -60q0 -42 -60 -52q-42 0 -52 60zM144 636q0 42 60 52q42 0 52 -60q0 -42 -60 -52q-42 0 -52 60zM144 780q0 42 60 52q42 0 52 -60q0 -42 -60 -52q-42 0 -52 60zM144 924q0 42 60 52q42 0 52 -60q0 -42 -60 -52q-42 0 -52 60z M144 1068q0 42 60 52q42 0 52 -60q0 -42 -60 -52q-42 0 -52 60zM144 1212q0 42 60 52q42 0 52 -60q0 -42 -60 -52q-42 0 -52 60zM144 1356q0 42 60 52q42 0 52 -60q0 -42 -60 -52q-42 0 -52 60zM288 60q0 42 60 52q42 0 52 -60q0 -42 -60 -52q-42 0 -52 60zM288 204 q0 42 60 52q42 0 52 -60q0 -42 -60 -52q-42 0 -52 60zM288 636q0 42 60 52q42 0 52 -60q0 -42 -60 -52q-42 0 -52 60zM288 780q0 42 60 52q42 0 52 -60q0 -42 -60 -52q-42 0 -52 60zM288 1212q0 42 60 52q42 0 52 -60q0 -42 -60 -52q-42 0 -52 60zM288 1356q0 42 60 52 q42 0 52 -60q0 -42 -60 -52q-42 0 -52 60zM432 60q0 42 60 52q42 0 52 -60q0 -42 -60 -52q-42 0 -52 60zM432 204q0 42 60 52q42 0 52 -60q0 -42 -60 -52q-42 0 -52 60zM432 636q0 42 60 52q42 0 52 -60q0 -42 -60 -52q-42 0 -52 60zM432 780q0 42 60 52q42 0 52 -60 q0 -42 -60 -52q-42 0 -52 60zM432 1212q0 42 60 52q42 0 52 -60q0 -42 -60 -52q-42 0 -52 60zM432 1356q0 42 60 52q42 0 52 -60q0 -42 -60 -52q-42 0 -52 60zM576 60q0 42 60 52q42 0 52 -60q0 -42 -60 -52q-42 0 -52 60zM576 204q0 42 60 52q42 0 52 -60q0 -42 -60 -52 q-42 0 -52 60zM576 1212q0 42 60 52q42 0 52 -60q0 -42 -60 -52q-42 0 -52 60zM576 1356q0 42 60 52q42 0 52 -60q0 -42 -60 -52q-42 0 -52 60zM720 60q0 42 60 52q42 0 52 -60q0 -42 -60 -52q-42 0 -52 60zM720 204q0 42 60 52q42 0 52 -60q0 -42 -60 -52q-42 0 -52 60z M720 1212q0 42 60 52q42 0 52 -60q0 -42 -60 -52q-42 0 -52 60zM720 1356q0 42 60 52q42 0 52 -60q0 -42 -60 -52q-42 0 -52 60z" />
<glyph unicode="F" d="M0 60q0 42 60 52q42 0 52 -60q0 -42 -60 -52q-42 0 -52 60zM0 204q0 42 60 52q42 0 52 -60q0 -42 -60 -52q-42 0 -52 60zM0 348q0 42 60 52q42 0 52 -60q0 -42 -60 -52q-42 0 -52 60zM0 492q0 42 60 52q42 0 52 -60q0 -42 -60 -52q-42 0 -52 60zM0 636q0 42 60 52 q42 0 52 -60q0 -42 -60 -52q-42 0 -52 60zM0 780q0 42 60 52q42 0 52 -60q0 -42 -60 -52q-42 0 -52 60zM0 924q0 42 60 52q42 0 52 -60q0 -42 -60 -52q-42 0 -52 60zM0 1068q0 42 60 52q42 0 52 -60q0 -42 -60 -52q-42 0 -52 60zM0 1212q0 42 60 52q42 0 52 -60 q0 -42 -60 -52q-42 0 -52 60zM0 1356q0 42 60 52q42 0 52 -60q0 -42 -60 -52q-42 0 -52 60zM144 60q0 42 60 52q42 0 52 -60q0 -42 -60 -52q-42 0 -52 60zM144 204q0 42 60 52q42 0 52 -60q0 -42 -60 -52q-42 0 -52 60zM144 348q0 42 60 52q42 0 52 -60q0 -42 -60 -52 q-42 0 -52 60zM144 492q0 42 60 52q42 0 52 -60q0 -42 -60 -52q-42 0 -52 60zM144 636q0 42 60 52q42 0 52 -60q0 -42 -60 -52q-42 0 -52 60zM144 780q0 42 60 52q42 0 52 -60q0 -42 -60 -52q-42 0 -52 60zM144 924q0 42 60 52q42 0 52 -60q0 -42 -60 -52q-42 0 -52 60z M144 1068q0 42 60 52q42 0 52 -60q0 -42 -60 -52q-42 0 -52 60zM144 1212q0 42 60 52q42 0 52 -60q0 -42 -60 -52q-42 0 -52 60zM144 1356q0 42 60 52q42 0 52 -60q0 -42 -60 -52q-42 0 -52 60zM288 636q0 42 60 52q42 0 52 -60q0 -42 -60 -52q-42 0 -52 60zM288 780 q0 42 60 52q42 0 52 -60q0 -42 -60 -52q-42 0 -52 60zM288 1212q0 42 60 52q42 0 52 -60q0 -42 -60 -52q-42 0 -52 60zM288 1356q0 42 60 52q42 0 52 -60q0 -42 -60 -52q-42 0 -52 60zM432 636q0 42 60 52q42 0 52 -60q0 -42 -60 -52q-42 0 -52 60zM432 780q0 42 60 52 q42 0 52 -60q0 -42 -60 -52q-42 0 -52 60zM432 1212q0 42 60 52q42 0 52 -60q0 -42 -60 -52q-42 0 -52 60zM432 1356q0 42 60 52q42 0 52 -60q0 -42 -60 -52q-42 0 -52 60zM576 1212q0 42 60 52q42 0 52 -60q0 -42 -60 -52q-42 0 -52 60zM576 1356q0 42 60 52q42 0 52 -60 q0 -42 -60 -52q-42 0 -52 60zM720 1212q0 42 60 52q42 0 52 -60q0 -42 -60 -52q-42 0 -52 60zM720 1356q0 42 60 52q42 0 52 -60q0 -42 -60 -52q-42 0 -52 60z" />
<glyph unicode="G" d="M0 204q0 42 60 52q42 0 52 -60q0 -42 -60 -52q-42 0 -52 60zM0 348q0 42 60 52q42 0 52 -60q0 -42 -60 -52q-42 0 -52 60zM0 492q0 42 60 52q42 0 52 -60q0 -42 -60 -52q-42 0 -52 60zM0 636q0 42 60 52q42 0 52 -60q0 -42 -60 -52q-42 0 -52 60zM0 780q0 42 60 52 q42 0 52 -60q0 -42 -60 -52q-42 0 -52 60zM0 924q0 42 60 52q42 0 52 -60q0 -42 -60 -52q-42 0 -52 60zM0 1068q0 42 60 52q42 0 52 -60q0 -42 -60 -52q-42 0 -52 60zM0 1212q0 42 60 52q42 0 52 -60q0 -42 -60 -52q-42 0 -52 60zM144 60q0 42 60 52q42 0 52 -60 q0 -42 -60 -52q-42 0 -52 60zM144 204q0 42 60 52q42 0 52 -60q0 -42 -60 -52q-42 0 -52 60zM144 348q0 42 60 52q42 0 52 -60q0 -42 -60 -52q-42 0 -52 60zM144 492q0 42 60 52q42 0 52 -60q0 -42 -60 -52q-42 0 -52 60zM144 636q0 42 60 52q42 0 52 -60q0 -42 -60 -52 q-42 0 -52 60zM144 780q0 42 60 52q42 0 52 -60q0 -42 -60 -52q-42 0 -52 60zM144 924q0 42 60 52q42 0 52 -60q0 -42 -60 -52q-42 0 -52 60zM144 1068q0 42 60 52q42 0 52 -60q0 -42 -60 -52q-42 0 -52 60zM144 1212q0 42 60 52q42 0 52 -60q0 -42 -60 -52q-42 0 -52 60z M144 1356q0 42 60 52q42 0 52 -60q0 -42 -60 -52q-42 0 -52 60zM288 60q0 42 60 52q42 0 52 -60q0 -42 -60 -52q-42 0 -52 60zM288 204q0 42 60 52q42 0 52 -60q0 -42 -60 -52q-42 0 -52 60zM288 1212q0 42 60 52q42 0 52 -60q0 -42 -60 -52q-42 0 -52 60zM288 1356 q0 42 60 52q42 0 52 -60q0 -42 -60 -52q-42 0 -52 60zM432 60q0 42 60 52q42 0 52 -60q0 -42 -60 -52q-42 0 -52 60zM432 204q0 42 60 52q42 0 52 -60q0 -42 -60 -52q-42 0 -52 60zM432 636q0 42 60 52q42 0 52 -60q0 -42 -60 -52q-42 0 -52 60zM432 780q0 42 60 52 q42 0 52 -60q0 -42 -60 -52q-42 0 -52 60zM432 1212q0 42 60 52q42 0 52 -60q0 -42 -60 -52q-42 0 -52 60zM432 1356q0 42 60 52q42 0 52 -60q0 -42 -60 -52q-42 0 -52 60zM576 60q0 42 60 52q42 0 52 -60q0 -42 -60 -52q-42 0 -52 60zM576 204q0 42 60 52q42 0 52 -60 q0 -42 -60 -52q-42 0 -52 60zM576 348q0 42 60 52q42 0 52 -60q0 -42 -60 -52q-42 0 -52 60zM576 492q0 42 60 52q42 0 52 -60q0 -42 -60 -52q-42 0 -52 60zM576 636q0 42 60 52q42 0 52 -60q0 -42 -60 -52q-42 0 -52 60zM576 780q0 42 60 52q42 0 52 -60q0 -42 -60 -52 q-42 0 -52 60zM576 1212q0 42 60 52q42 0 52 -60q0 -42 -60 -52q-42 0 -52 60zM576 1356q0 42 60 52q42 0 52 -60q0 -42 -60 -52q-42 0 -52 60zM720 204q0 42 60 52q42 0 52 -60q0 -42 -60 -52q-42 0 -52 60zM720 348q0 42 60 52q42 0 52 -60q0 -42 -60 -52q-42 0 -52 60z M720 492q0 42 60 52q42 0 52 -60q0 -42 -60 -52q-42 0 -52 60zM720 636q0 42 60 52q42 0 52 -60q0 -42 -60 -52q-42 0 -52 60zM720 780q0 42 60 52q42 0 52 -60q0 -42 -60 -52q-42 0 -52 60zM720 1212q0 42 60 52q42 0 52 -60q0 -42 -60 -52q-42 0 -52 60zM720 1356 q0 42 60 52q42 0 52 -60q0 -42 -60 -52q-42 0 -52 60z" />
<glyph unicode="H" d="M0 60q0 42 60 52q42 0 52 -60q0 -42 -60 -52q-42 0 -52 60zM0 204q0 42 60 52q42 0 52 -60q0 -42 -60 -52q-42 0 -52 60zM0 348q0 42 60 52q42 0 52 -60q0 -42 -60 -52q-42 0 -52 60zM0 492q0 42 60 52q42 0 52 -60q0 -42 -60 -52q-42 0 -52 60zM0 636q0 42 60 52 q42 0 52 -60q0 -42 -60 -52q-42 0 -52 60zM0 780q0 42 60 52q42 0 52 -60q0 -42 -60 -52q-42 0 -52 60zM0 924q0 42 60 52q42 0 52 -60q0 -42 -60 -52q-42 0 -52 60zM0 1068q0 42 60 52q42 0 52 -60q0 -42 -60 -52q-42 0 -52 60zM0 1212q0 42 60 52q42 0 52 -60 q0 -42 -60 -52q-42 0 -52 60zM0 1356q0 42 60 52q42 0 52 -60q0 -42 -60 -52q-42 0 -52 60zM144 60q0 42 60 52q42 0 52 -60q0 -42 -60 -52q-42 0 -52 60zM144 204q0 42 60 52q42 0 52 -60q0 -42 -60 -52q-42 0 -52 60zM144 348q0 42 60 52q42 0 52 -60q0 -42 -60 -52 q-42 0 -52 60zM144 492q0 42 60 52q42 0 52 -60q0 -42 -60 -52q-42 0 -52 60zM144 636q0 42 60 52q42 0 52 -60q0 -42 -60 -52q-42 0 -52 60zM144 780q0 42 60 52q42 0 52 -60q0 -42 -60 -52q-42 0 -52 60zM144 924q0 42 60 52q42 0 52 -60q0 -42 -60 -52q-42 0 -52 60z M144 1068q0 42 60 52q42 0 52 -60q0 -42 -60 -52q-42 0 -52 60zM144 1212q0 42 60 52q42 0 52 -60q0 -42 -60 -52q-42 0 -52 60zM144 1356q0 42 60 52q42 0 52 -60q0 -42 -60 -52q-42 0 -52 60zM288 636q0 42 60 52q42 0 52 -60q0 -42 -60 -52q-42 0 -52 60zM288 780 q0 42 60 52q42 0 52 -60q0 -42 -60 -52q-42 0 -52 60zM432 636q0 42 60 52q42 0 52 -60q0 -42 -60 -52q-42 0 -52 60zM432 780q0 42 60 52q42 0 52 -60q0 -42 -60 -52q-42 0 -52 60zM576 60q0 42 60 52q42 0 52 -60q0 -42 -60 -52q-42 0 -52 60zM576 204q0 42 60 52 q42 0 52 -60q0 -42 -60 -52q-42 0 -52 60zM576 348q0 42 60 52q42 0 52 -60q0 -42 -60 -52q-42 0 -52 60zM576 492q0 42 60 52q42 0 52 -60q0 -42 -60 -52q-42 0 -52 60zM576 636q0 42 60 52q42 0 52 -60q0 -42 -60 -52q-42 0 -52 60zM576 780q0 42 60 52q42 0 52 -60 q0 -42 -60 -52q-42 0 -52 60zM576 924q0 42 60 52q42 0 52 -60q0 -42 -60 -52q-42 0 -52 60zM576 1068q0 42 60 52q42 0 52 -60q0 -42 -60 -52q-42 0 -52 60zM576 1212q0 42 60 52q42 0 52 -60q0 -42 -60 -52q-42 0 -52 60zM576 1356q0 42 60 52q42 0 52 -60q0 -42 -60 -52 q-42 0 -52 60zM720 60q0 42 60 52q42 0 52 -60q0 -42 -60 -52q-42 0 -52 60zM720 204q0 42 60 52q42 0 52 -60q0 -42 -60 -52q-42 0 -52 60zM720 348q0 42 60 52q42 0 52 -60q0 -42 -60 -52q-42 0 -52 60zM720 492q0 42 60 52q42 0 52 -60q0 -42 -60 -52q-42 0 -52 60z M720 636q0 42 60 52q42 0 52 -60q0 -42 -60 -52q-42 0 -52 60zM720 780q0 42 60 52q42 0 52 -60q0 -42 -60 -52q-42 0 -52 60zM720 924q0 42 60 52q42 0 52 -60q0 -42 -60 -52q-42 0 -52 60zM720 1068q0 42 60 52q42 0 52 -60q0 -42 -60 -52q-42 0 -52 60zM720 1212 q0 42 60 52q42 0 52 -60q0 -42 -60 -52q-42 0 -52 60zM720 1356q0 42 60 52q42 0 52 -60q0 -42 -60 -52q-42 0 -52 60z" />
<glyph unicode="I" d="M0 60q0 42 60 52q42 0 52 -60q0 -42 -60 -52q-42 0 -52 60zM0 204q0 42 60 52q42 0 52 -60q0 -42 -60 -52q-42 0 -52 60zM0 1212q0 42 60 52q42 0 52 -60q0 -42 -60 -52q-42 0 -52 60zM0 1356q0 42 60 52q42 0 52 -60q0 -42 -60 -52q-42 0 -52 60zM144 60q0 42 60 52 q42 0 52 -60q0 -42 -60 -52q-42 0 -52 60zM144 204q0 42 60 52q42 0 52 -60q0 -42 -60 -52q-42 0 -52 60zM144 1212q0 42 60 52q42 0 52 -60q0 -42 -60 -52q-42 0 -52 60zM144 1356q0 42 60 52q42 0 52 -60q0 -42 -60 -52q-42 0 -52 60zM288 60q0 42 60 52q42 0 52 -60 q0 -42 -60 -52q-42 0 -52 60zM288 204q0 42 60 52q42 0 52 -60q0 -42 -60 -52q-42 0 -52 60zM288 348q0 42 60 52q42 0 52 -60q0 -42 -60 -52q-42 0 -52 60zM288 492q0 42 60 52q42 0 52 -60q0 -42 -60 -52q-42 0 -52 60zM288 636q0 42 60 52q42 0 52 -60q0 -42 -60 -52 q-42 0 -52 60zM288 780q0 42 60 52q42 0 52 -60q0 -42 -60 -52q-42 0 -52 60zM288 924q0 42 60 52q42 0 52 -60q0 -42 -60 -52q-42 0 -52 60zM288 1068q0 42 60 52q42 0 52 -60q0 -42 -60 -52q-42 0 -52 60zM288 1212q0 42 60 52q42 0 52 -60q0 -42 -60 -52q-42 0 -52 60z M288 1356q0 42 60 52q42 0 52 -60q0 -42 -60 -52q-42 0 -52 60zM432 60q0 42 60 52q42 0 52 -60q0 -42 -60 -52q-42 0 -52 60zM432 204q0 42 60 52q42 0 52 -60q0 -42 -60 -52q-42 0 -52 60zM432 348q0 42 60 52q42 0 52 -60q0 -42 -60 -52q-42 0 -52 60zM432 492 q0 42 60 52q42 0 52 -60q0 -42 -60 -52q-42 0 -52 60zM432 636q0 42 60 52q42 0 52 -60q0 -42 -60 -52q-42 0 -52 60zM432 780q0 42 60 52q42 0 52 -60q0 -42 -60 -52q-42 0 -52 60zM432 924q0 42 60 52q42 0 52 -60q0 -42 -60 -52q-42 0 -52 60zM432 1068q0 42 60 52 q42 0 52 -60q0 -42 -60 -52q-42 0 -52 60zM432 1212q0 42 60 52q42 0 52 -60q0 -42 -60 -52q-42 0 -52 60zM432 1356q0 42 60 52q42 0 52 -60q0 -42 -60 -52q-42 0 -52 60zM576 60q0 42 60 52q42 0 52 -60q0 -42 -60 -52q-42 0 -52 60zM576 204q0 42 60 52q42 0 52 -60 q0 -42 -60 -52q-42 0 -52 60zM576 1212q0 42 60 52q42 0 52 -60q0 -42 -60 -52q-42 0 -52 60zM576 1356q0 42 60 52q42 0 52 -60q0 -42 -60 -52q-42 0 -52 60zM720 60q0 42 60 52q42 0 52 -60q0 -42 -60 -52q-42 0 -52 60zM720 204q0 42 60 52q42 0 52 -60q0 -42 -60 -52 q-42 0 -52 60zM720 1212q0 42 60 52q42 0 52 -60q0 -42 -60 -52q-42 0 -52 60zM720 1356q0 42 60 52q42 0 52 -60q0 -42 -60 -52q-42 0 -52 60z" />
<glyph unicode="J" d="M0 204q0 42 60 52q42 0 52 -60q0 -42 -60 -52q-42 0 -52 60zM0 348q0 42 60 52q42 0 52 -60q0 -42 -60 -52q-42 0 -52 60zM0 492q0 42 60 52q42 0 52 -60q0 -42 -60 -52q-42 0 -52 60zM0 636q0 42 60 52q42 0 52 -60q0 -42 -60 -52q-42 0 -52 60zM144 60q0 42 60 52 q42 0 52 -60q0 -42 -60 -52q-42 0 -52 60zM144 204q0 42 60 52q42 0 52 -60q0 -42 -60 -52q-42 0 -52 60zM144 348q0 42 60 52q42 0 52 -60q0 -42 -60 -52q-42 0 -52 60zM144 492q0 42 60 52q42 0 52 -60q0 -42 -60 -52q-42 0 -52 60zM288 60q0 42 60 52q42 0 52 -60 q0 -42 -60 -52q-42 0 -52 60zM288 204q0 42 60 52q42 0 52 -60q0 -42 -60 -52q-42 0 -52 60zM432 60q0 42 60 52q42 0 52 -60q0 -42 -60 -52q-42 0 -52 60zM432 204q0 42 60 52q42 0 52 -60q0 -42 -60 -52q-42 0 -52 60zM576 60q0 42 60 52q42 0 52 -60q0 -42 -60 -52 q-42 0 -52 60zM576 204q0 42 60 52q42 0 52 -60q0 -42 -60 -52q-42 0 -52 60zM576 348q0 42 60 52q42 0 52 -60q0 -42 -60 -52q-42 0 -52 60zM576 492q0 42 60 52q42 0 52 -60q0 -42 -60 -52q-42 0 -52 60zM576 636q0 42 60 52q42 0 52 -60q0 -42 -60 -52q-42 0 -52 60z M576 780q0 42 60 52q42 0 52 -60q0 -42 -60 -52q-42 0 -52 60zM576 924q0 42 60 52q42 0 52 -60q0 -42 -60 -52q-42 0 -52 60zM576 1068q0 42 60 52q42 0 52 -60q0 -42 -60 -52q-42 0 -52 60zM576 1212q0 42 60 52q42 0 52 -60q0 -42 -60 -52q-42 0 -52 60zM576 1356 q0 42 60 52q42 0 52 -60q0 -42 -60 -52q-42 0 -52 60zM720 204q0 42 60 52q42 0 52 -60q0 -42 -60 -52q-42 0 -52 60zM720 348q0 42 60 52q42 0 52 -60q0 -42 -60 -52q-42 0 -52 60zM720 492q0 42 60 52q42 0 52 -60q0 -42 -60 -52q-42 0 -52 60zM720 636q0 42 60 52 q42 0 52 -60q0 -42 -60 -52q-42 0 -52 60zM720 780q0 42 60 52q42 0 52 -60q0 -42 -60 -52q-42 0 -52 60zM720 924q0 42 60 52q42 0 52 -60q0 -42 -60 -52q-42 0 -52 60zM720 1068q0 42 60 52q42 0 52 -60q0 -42 -60 -52q-42 0 -52 60zM720 1212q0 42 60 52q42 0 52 -60 q0 -42 -60 -52q-42 0 -52 60zM720 1356q0 42 60 52q42 0 52 -60q0 -42 -60 -52q-42 0 -52 60z" />
<glyph unicode="K" d="M0 60q0 42 60 52q42 0 52 -60q0 -42 -60 -52q-42 0 -52 60zM0 204q0 42 60 52q42 0 52 -60q0 -42 -60 -52q-42 0 -52 60zM0 348q0 42 60 52q42 0 52 -60q0 -42 -60 -52q-42 0 -52 60zM0 492q0 42 60 52q42 0 52 -60q0 -42 -60 -52q-42 0 -52 60zM0 636q0 42 60 52 q42 0 52 -60q0 -42 -60 -52q-42 0 -52 60zM0 780q0 42 60 52q42 0 52 -60q0 -42 -60 -52q-42 0 -52 60zM0 924q0 42 60 52q42 0 52 -60q0 -42 -60 -52q-42 0 -52 60zM0 1068q0 42 60 52q42 0 52 -60q0 -42 -60 -52q-42 0 -52 60zM0 1212q0 42 60 52q42 0 52 -60 q0 -42 -60 -52q-42 0 -52 60zM0 1356q0 42 60 52q42 0 52 -60q0 -42 -60 -52q-42 0 -52 60zM144 60q0 42 60 52q42 0 52 -60q0 -42 -60 -52q-42 0 -52 60zM144 204q0 42 60 52q42 0 52 -60q0 -42 -60 -52q-42 0 -52 60zM144 348q0 42 60 52q42 0 52 -60q0 -42 -60 -52 q-42 0 -52 60zM144 492q0 42 60 52q42 0 52 -60q0 -42 -60 -52q-42 0 -52 60zM144 636q0 42 60 52q42 0 52 -60q0 -42 -60 -52q-42 0 -52 60zM144 780q0 42 60 52q42 0 52 -60q0 -42 -60 -52q-42 0 -52 60zM144 924q0 42 60 52q42 0 52 -60q0 -42 -60 -52q-42 0 -52 60z M144 1068q0 42 60 52q42 0 52 -60q0 -42 -60 -52q-42 0 -52 60zM144 1212q0 42 60 52q42 0 52 -60q0 -42 -60 -52q-42 0 -52 60zM144 1356q0 42 60 52q42 0 52 -60q0 -42 -60 -52q-42 0 -52 60zM288 780q0 42 60 52q42 0 52 -60q0 -42 -60 -52q-42 0 -52 60zM288 924 q0 42 60 52q42 0 52 -60q0 -42 -60 -52q-42 0 -52 60zM288 1068q0 42 60 52q42 0 52 -60q0 -42 -60 -52q-42 0 -52 60zM432 636q0 42 60 52q42 0 52 -60q0 -42 -60 -52q-42 0 -52 60zM432 780q0 42 60 52q42 0 52 -60q0 -42 -60 -52q-42 0 -52 60zM432 1068q0 42 60 52 q42 0 52 -60q0 -42 -60 -52q-42 0 -52 60zM432 1212q0 42 60 52q42 0 52 -60q0 -42 -60 -52q-42 0 -52 60zM576 60q0 42 60 52q42 0 52 -60q0 -42 -60 -52q-42 0 -52 60zM576 204q0 42 60 52q42 0 52 -60q0 -42 -60 -52q-42 0 -52 60zM576 348q0 42 60 52q42 0 52 -60 q0 -42 -60 -52q-42 0 -52 60zM576 492q0 42 60 52q42 0 52 -60q0 -42 -60 -52q-42 0 -52 60zM576 636q0 42 60 52q42 0 52 -60q0 -42 -60 -52q-42 0 -52 60zM576 1212q0 42 60 52q42 0 52 -60q0 -42 -60 -52q-42 0 -52 60zM576 1356q0 42 60 52q42 0 52 -60q0 -42 -60 -52 q-42 0 -52 60zM720 60q0 42 60 52q42 0 52 -60q0 -42 -60 -52q-42 0 -52 60zM720 204q0 42 60 52q42 0 52 -60q0 -42 -60 -52q-42 0 -52 60zM720 348q0 42 60 52q42 0 52 -60q0 -42 -60 -52q-42 0 -52 60zM720 492q0 42 60 52q42 0 52 -60q0 -42 -60 -52q-42 0 -52 60z M720 1356q0 42 60 52q42 0 52 -60q0 -42 -60 -52q-42 0 -52 60z" />
<glyph unicode="L" d="M0 60q0 42 60 52q42 0 52 -60q0 -42 -60 -52q-42 0 -52 60zM0 204q0 42 60 52q42 0 52 -60q0 -42 -60 -52q-42 0 -52 60zM0 348q0 42 60 52q42 0 52 -60q0 -42 -60 -52q-42 0 -52 60zM0 492q0 42 60 52q42 0 52 -60q0 -42 -60 -52q-42 0 -52 60zM0 636q0 42 60 52 q42 0 52 -60q0 -42 -60 -52q-42 0 -52 60zM0 780q0 42 60 52q42 0 52 -60q0 -42 -60 -52q-42 0 -52 60zM0 924q0 42 60 52q42 0 52 -60q0 -42 -60 -52q-42 0 -52 60zM0 1068q0 42 60 52q42 0 52 -60q0 -42 -60 -52q-42 0 -52 60zM0 1212q0 42 60 52q42 0 52 -60 q0 -42 -60 -52q-42 0 -52 60zM0 1356q0 42 60 52q42 0 52 -60q0 -42 -60 -52q-42 0 -52 60zM144 60q0 42 60 52q42 0 52 -60q0 -42 -60 -52q-42 0 -52 60zM144 204q0 42 60 52q42 0 52 -60q0 -42 -60 -52q-42 0 -52 60zM144 348q0 42 60 52q42 0 52 -60q0 -42 -60 -52 q-42 0 -52 60zM144 492q0 42 60 52q42 0 52 -60q0 -42 -60 -52q-42 0 -52 60zM144 636q0 42 60 52q42 0 52 -60q0 -42 -60 -52q-42 0 -52 60zM144 780q0 42 60 52q42 0 52 -60q0 -42 -60 -52q-42 0 -52 60zM144 924q0 42 60 52q42 0 52 -60q0 -42 -60 -52q-42 0 -52 60z M144 1068q0 42 60 52q42 0 52 -60q0 -42 -60 -52q-42 0 -52 60zM144 1212q0 42 60 52q42 0 52 -60q0 -42 -60 -52q-42 0 -52 60zM144 1356q0 42 60 52q42 0 52 -60q0 -42 -60 -52q-42 0 -52 60zM288 60q0 42 60 52q42 0 52 -60q0 -42 -60 -52q-42 0 -52 60zM288 204 q0 42 60 52q42 0 52 -60q0 -42 -60 -52q-42 0 -52 60zM432 60q0 42 60 52q42 0 52 -60q0 -42 -60 -52q-42 0 -52 60zM432 204q0 42 60 52q42 0 52 -60q0 -42 -60 -52q-42 0 -52 60zM576 60q0 42 60 52q42 0 52 -60q0 -42 -60 -52q-42 0 -52 60zM576 204q0 42 60 52 q42 0 52 -60q0 -42 -60 -52q-42 0 -52 60zM720 60q0 42 60 52q42 0 52 -60q0 -42 -60 -52q-42 0 -52 60zM720 204q0 42 60 52q42 0 52 -60q0 -42 -60 -52q-42 0 -52 60z" />
<glyph unicode="M" horiz-adv-x="1101" d="M0 60q0 42 60 52q42 0 52 -60q0 -42 -60 -52q-42 0 -52 60zM0 204q0 42 60 52q42 0 52 -60q0 -42 -60 -52q-42 0 -52 60zM0 348q0 42 60 52q42 0 52 -60q0 -42 -60 -52q-42 0 -52 60zM0 492q0 42 60 52q42 0 52 -60q0 -42 -60 -52q-42 0 -52 60zM0 636q0 42 60 52 q42 0 52 -60q0 -42 -60 -52q-42 0 -52 60zM0 780q0 42 60 52q42 0 52 -60q0 -42 -60 -52q-42 0 -52 60zM0 924q0 42 60 52q42 0 52 -60q0 -42 -60 -52q-42 0 -52 60zM0 1068q0 42 60 52q42 0 52 -60q0 -42 -60 -52q-42 0 -52 60zM0 1212q0 42 60 52q42 0 52 -60 q0 -42 -60 -52q-42 0 -52 60zM0 1356q0 42 60 52q42 0 52 -60q0 -42 -60 -52q-42 0 -52 60zM144 60q0 42 60 52q42 0 52 -60q0 -42 -60 -52q-42 0 -52 60zM144 204q0 42 60 52q42 0 52 -60q0 -42 -60 -52q-42 0 -52 60zM144 348q0 42 60 52q42 0 52 -60q0 -42 -60 -52 q-42 0 -52 60zM144 492q0 42 60 52q42 0 52 -60q0 -42 -60 -52q-42 0 -52 60zM144 636q0 42 60 52q42 0 52 -60q0 -42 -60 -52q-42 0 -52 60zM144 780q0 42 60 52q42 0 52 -60q0 -42 -60 -52q-42 0 -52 60zM144 924q0 42 60 52q42 0 52 -60q0 -42 -60 -52q-42 0 -52 60z M144 1068q0 42 60 52q42 0 52 -60q0 -42 -60 -52q-42 0 -52 60zM144 1212q0 42 60 52q42 0 52 -60q0 -42 -60 -52q-42 0 -52 60zM288 924q0 42 60 52q42 0 52 -60q0 -42 -60 -52q-42 0 -52 60zM288 1068q0 42 60 52q42 0 52 -60q0 -42 -60 -52q-42 0 -52 60zM436 780 q10 48 56 48q48 -10 48 -56q-10 -48 -56 -48q-48 10 -48 56zM436 924q10 48 56 48q48 -10 48 -56q-10 -48 -56 -48q-48 10 -48 56zM580 924q10 48 56 48q48 -10 48 -56q-10 -48 -56 -48q-48 10 -48 56zM580 1068q10 48 56 48q48 -10 48 -56q-10 -48 -56 -48q-48 10 -48 56z M724 60q10 48 56 48q48 -10 48 -56q-10 -48 -56 -48q-48 10 -48 56zM724 204q10 48 56 48q48 -10 48 -56q-10 -48 -56 -48q-48 10 -48 56zM724 348q10 48 56 48q48 -10 48 -56q-10 -48 -56 -48q-48 10 -48 56zM724 492q10 48 56 48q48 -10 48 -56q-10 -48 -56 -48 q-48 10 -48 56zM724 636q10 48 56 48q48 -10 48 -56q-10 -48 -56 -48q-48 10 -48 56zM724 780q10 48 56 48q48 -10 48 -56q-10 -48 -56 -48q-48 10 -48 56zM724 924q10 48 56 48q48 -10 48 -56q-10 -48 -56 -48q-48 10 -48 56zM724 1068q10 48 56 48q48 -10 48 -56 q-10 -48 -56 -48q-48 10 -48 56zM724 1212q10 48 56 48q48 -10 48 -56q-10 -48 -56 -48q-48 10 -48 56zM868 60q10 48 56 48q48 -10 48 -56q-10 -48 -56 -48q-48 10 -48 56zM868 204q10 48 56 48q48 -10 48 -56q-10 -48 -56 -48q-48 10 -48 56zM868 348q10 48 56 48 q48 -10 48 -56q-10 -48 -56 -48q-48 10 -48 56zM868 492q10 48 56 48q48 -10 48 -56q-10 -48 -56 -48q-48 10 -48 56zM868 636q10 48 56 48q48 -10 48 -56q-10 -48 -56 -48q-48 10 -48 56zM868 780q10 48 56 48q48 -10 48 -56q-10 -48 -56 -48q-48 10 -48 56zM868 924 q10 48 56 48q48 -10 48 -56q-10 -48 -56 -48q-48 10 -48 56zM868 1068q10 48 56 48q48 -10 48 -56q-10 -48 -56 -48q-48 10 -48 56zM868 1212q10 48 56 48q48 -10 48 -56q-10 -48 -56 -48q-48 10 -48 56zM868 1356q10 48 56 48q48 -10 48 -56q-10 -48 -56 -48q-48 10 -48 56 z" />
<glyph unicode="N" d="M0 60q0 42 60 52q42 0 52 -60q0 -42 -60 -52q-42 0 -52 60zM0 204q0 42 60 52q42 0 52 -60q0 -42 -60 -52q-42 0 -52 60zM0 348q0 42 60 52q42 0 52 -60q0 -42 -60 -52q-42 0 -52 60zM0 492q0 42 60 52q42 0 52 -60q0 -42 -60 -52q-42 0 -52 60zM0 636q0 42 60 52 q42 0 52 -60q0 -42 -60 -52q-42 0 -52 60zM0 780q0 42 60 52q42 0 52 -60q0 -42 -60 -52q-42 0 -52 60zM0 924q0 42 60 52q42 0 52 -60q0 -42 -60 -52q-42 0 -52 60zM0 1068q0 42 60 52q42 0 52 -60q0 -42 -60 -52q-42 0 -52 60zM0 1212q0 42 60 52q42 0 52 -60 q0 -42 -60 -52q-42 0 -52 60zM0 1356q0 42 60 52q42 0 52 -60q0 -42 -60 -52q-42 0 -52 60zM144 60q0 42 60 52q42 0 52 -60q0 -42 -60 -52q-42 0 -52 60zM144 204q0 42 60 52q42 0 52 -60q0 -42 -60 -52q-42 0 -52 60zM144 348q0 42 60 52q42 0 52 -60q0 -42 -60 -52 q-42 0 -52 60zM144 492q0 42 60 52q42 0 52 -60q0 -42 -60 -52q-42 0 -52 60zM144 636q0 42 60 52q42 0 52 -60q0 -42 -60 -52q-42 0 -52 60zM144 780q0 42 60 52q42 0 52 -60q0 -42 -60 -52q-42 0 -52 60zM144 924q0 42 60 52q42 0 52 -60q0 -42 -60 -52q-42 0 -52 60z M144 1068q0 42 60 52q42 0 52 -60q0 -42 -60 -52q-42 0 -52 60zM144 1212q0 42 60 52q42 0 52 -60q0 -42 -60 -52q-42 0 -52 60zM288 924q0 42 60 52q42 0 52 -60q0 -42 -60 -52q-42 0 -52 60zM288 1068q0 42 60 52q42 0 52 -60q0 -42 -60 -52q-42 0 -52 60zM432 780 q0 42 60 52q42 0 52 -60q0 -42 -60 -52q-42 0 -52 60zM432 924q0 42 60 52q42 0 52 -60q0 -42 -60 -52q-42 0 -52 60zM576 60q0 42 60 52q42 0 52 -60q0 -42 -60 -52q-42 0 -52 60zM576 204q0 42 60 52q42 0 52 -60q0 -42 -60 -52q-42 0 -52 60zM576 348q0 42 60 52 q42 0 52 -60q0 -42 -60 -52q-42 0 -52 60zM576 492q0 42 60 52q42 0 52 -60q0 -42 -60 -52q-42 0 -52 60zM576 636q0 42 60 52q42 0 52 -60q0 -42 -60 -52q-42 0 -52 60zM576 780q0 42 60 52q42 0 52 -60q0 -42 -60 -52q-42 0 -52 60zM576 924q0 42 60 52q42 0 52 -60 q0 -42 -60 -52q-42 0 -52 60zM576 1068q0 42 60 52q42 0 52 -60q0 -42 -60 -52q-42 0 -52 60zM576 1212q0 42 60 52q42 0 52 -60q0 -42 -60 -52q-42 0 -52 60zM576 1356q0 42 60 52q42 0 52 -60q0 -42 -60 -52q-42 0 -52 60zM720 60q0 42 60 52q42 0 52 -60q0 -42 -60 -52 q-42 0 -52 60zM720 204q0 42 60 52q42 0 52 -60q0 -42 -60 -52q-42 0 -52 60zM720 348q0 42 60 52q42 0 52 -60q0 -42 -60 -52q-42 0 -52 60zM720 492q0 42 60 52q42 0 52 -60q0 -42 -60 -52q-42 0 -52 60zM720 636q0 42 60 52q42 0 52 -60q0 -42 -60 -52q-42 0 -52 60z M720 780q0 42 60 52q42 0 52 -60q0 -42 -60 -52q-42 0 -52 60zM720 924q0 42 60 52q42 0 52 -60q0 -42 -60 -52q-42 0 -52 60zM720 1068q0 42 60 52q42 0 52 -60q0 -42 -60 -52q-42 0 -52 60zM720 1212q0 42 60 52q42 0 52 -60q0 -42 -60 -52q-42 0 -52 60zM720 1356 q0 42 60 52q42 0 52 -60q0 -42 -60 -52q-42 0 -52 60z" />
<glyph unicode="O" d="M0 204q0 42 60 52q42 0 52 -60q0 -42 -60 -52q-42 0 -52 60zM0 348q0 42 60 52q42 0 52 -60q0 -42 -60 -52q-42 0 -52 60zM0 492q0 42 60 52q42 0 52 -60q0 -42 -60 -52q-42 0 -52 60zM0 636q0 42 60 52q42 0 52 -60q0 -42 -60 -52q-42 0 -52 60zM0 780q0 42 60 52 q42 0 52 -60q0 -42 -60 -52q-42 0 -52 60zM0 924q0 42 60 52q42 0 52 -60q0 -42 -60 -52q-42 0 -52 60zM0 1068q0 42 60 52q42 0 52 -60q0 -42 -60 -52q-42 0 -52 60zM0 1212q0 42 60 52q42 0 52 -60q0 -42 -60 -52q-42 0 -52 60zM144 60q0 42 60 52q42 0 52 -60 q0 -42 -60 -52q-42 0 -52 60zM144 204q0 42 60 52q42 0 52 -60q0 -42 -60 -52q-42 0 -52 60zM144 348q0 42 60 52q42 0 52 -60q0 -42 -60 -52q-42 0 -52 60zM144 492q0 42 60 52q42 0 52 -60q0 -42 -60 -52q-42 0 -52 60zM144 636q0 42 60 52q42 0 52 -60q0 -42 -60 -52 q-42 0 -52 60zM144 780q0 42 60 52q42 0 52 -60q0 -42 -60 -52q-42 0 -52 60zM144 924q0 42 60 52q42 0 52 -60q0 -42 -60 -52q-42 0 -52 60zM144 1068q0 42 60 52q42 0 52 -60q0 -42 -60 -52q-42 0 -52 60zM144 1212q0 42 60 52q42 0 52 -60q0 -42 -60 -52q-42 0 -52 60z M144 1356q0 42 60 52q42 0 52 -60q0 -42 -60 -52q-42 0 -52 60zM288 60q0 42 60 52q42 0 52 -60q0 -42 -60 -52q-42 0 -52 60zM288 204q0 42 60 52q42 0 52 -60q0 -42 -60 -52q-42 0 -52 60zM288 1212q0 42 60 52q42 0 52 -60q0 -42 -60 -52q-42 0 -52 60zM288 1356 q0 42 60 52q42 0 52 -60q0 -42 -60 -52q-42 0 -52 60zM432 60q0 42 60 52q42 0 52 -60q0 -42 -60 -52q-42 0 -52 60zM432 204q0 42 60 52q42 0 52 -60q0 -42 -60 -52q-42 0 -52 60zM432 1212q0 42 60 52q42 0 52 -60q0 -42 -60 -52q-42 0 -52 60zM432 1356q0 42 60 52 q42 0 52 -60q0 -42 -60 -52q-42 0 -52 60zM576 60q0 42 60 52q42 0 52 -60q0 -42 -60 -52q-42 0 -52 60zM576 204q0 42 60 52q42 0 52 -60q0 -42 -60 -52q-42 0 -52 60zM576 348q0 42 60 52q42 0 52 -60q0 -42 -60 -52q-42 0 -52 60zM576 492q0 42 60 52q42 0 52 -60 q0 -42 -60 -52q-42 0 -52 60zM576 636q0 42 60 52q42 0 52 -60q0 -42 -60 -52q-42 0 -52 60zM576 780q0 42 60 52q42 0 52 -60q0 -42 -60 -52q-42 0 -52 60zM576 924q0 42 60 52q42 0 52 -60q0 -42 -60 -52q-42 0 -52 60zM576 1068q0 42 60 52q42 0 52 -60q0 -42 -60 -52 q-42 0 -52 60zM576 1212q0 42 60 52q42 0 52 -60q0 -42 -60 -52q-42 0 -52 60zM576 1356q0 42 60 52q42 0 52 -60q0 -42 -60 -52q-42 0 -52 60zM720 204q0 42 60 52q42 0 52 -60q0 -42 -60 -52q-42 0 -52 60zM720 348q0 42 60 52q42 0 52 -60q0 -42 -60 -52q-42 0 -52 60z M720 492q0 42 60 52q42 0 52 -60q0 -42 -60 -52q-42 0 -52 60zM720 636q0 42 60 52q42 0 52 -60q0 -42 -60 -52q-42 0 -52 60zM720 780q0 42 60 52q42 0 52 -60q0 -42 -60 -52q-42 0 -52 60zM720 924q0 42 60 52q42 0 52 -60q0 -42 -60 -52q-42 0 -52 60zM720 1068 q0 42 60 52q42 0 52 -60q0 -42 -60 -52q-42 0 -52 60zM720 1212q0 42 60 52q42 0 52 -60q0 -42 -60 -52q-42 0 -52 60z" />
<glyph unicode="P" d="M0 60q0 42 60 52q42 0 52 -60q0 -42 -60 -52q-42 0 -52 60zM0 204q0 42 60 52q42 0 52 -60q0 -42 -60 -52q-42 0 -52 60zM0 348q0 42 60 52q42 0 52 -60q0 -42 -60 -52q-42 0 -52 60zM0 492q0 42 60 52q42 0 52 -60q0 -42 -60 -52q-42 0 -52 60zM0 636q0 42 60 52 q42 0 52 -60q0 -42 -60 -52q-42 0 -52 60zM0 780q0 42 60 52q42 0 52 -60q0 -42 -60 -52q-42 0 -52 60zM0 924q0 42 60 52q42 0 52 -60q0 -42 -60 -52q-42 0 -52 60zM0 1068q0 42 60 52q42 0 52 -60q0 -42 -60 -52q-42 0 -52 60zM0 1212q0 42 60 52q42 0 52 -60 q0 -42 -60 -52q-42 0 -52 60zM0 1356q0 42 60 52q42 0 52 -60q0 -42 -60 -52q-42 0 -52 60zM144 60q0 42 60 52q42 0 52 -60q0 -42 -60 -52q-42 0 -52 60zM144 204q0 42 60 52q42 0 52 -60q0 -42 -60 -52q-42 0 -52 60zM144 348q0 42 60 52q42 0 52 -60q0 -42 -60 -52 q-42 0 -52 60zM144 492q0 42 60 52q42 0 52 -60q0 -42 -60 -52q-42 0 -52 60zM144 636q0 42 60 52q42 0 52 -60q0 -42 -60 -52q-42 0 -52 60zM144 780q0 42 60 52q42 0 52 -60q0 -42 -60 -52q-42 0 -52 60zM144 924q0 42 60 52q42 0 52 -60q0 -42 -60 -52q-42 0 -52 60z M144 1068q0 42 60 52q42 0 52 -60q0 -42 -60 -52q-42 0 -52 60zM144 1212q0 42 60 52q42 0 52 -60q0 -42 -60 -52q-42 0 -52 60zM144 1356q0 42 60 52q42 0 52 -60q0 -42 -60 -52q-42 0 -52 60zM288 636q0 42 60 52q42 0 52 -60q0 -42 -60 -52q-42 0 -52 60zM288 780 q0 42 60 52q42 0 52 -60q0 -42 -60 -52q-42 0 -52 60zM288 1212q0 42 60 52q42 0 52 -60q0 -42 -60 -52q-42 0 -52 60zM288 1356q0 42 60 52q42 0 52 -60q0 -42 -60 -52q-42 0 -52 60zM432 636q0 42 60 52q42 0 52 -60q0 -42 -60 -52q-42 0 -52 60zM432 780q0 42 60 52 q42 0 52 -60q0 -42 -60 -52q-42 0 -52 60zM432 1212q0 42 60 52q42 0 52 -60q0 -42 -60 -52q-42 0 -52 60zM432 1356q0 42 60 52q42 0 52 -60q0 -42 -60 -52q-42 0 -52 60zM576 636q0 42 60 52q42 0 52 -60q0 -42 -60 -52q-42 0 -52 60zM576 780q0 42 60 52q42 0 52 -60 q0 -42 -60 -52q-42 0 -52 60zM576 924q0 42 60 52q42 0 52 -60q0 -42 -60 -52q-42 0 -52 60zM576 1068q0 42 60 52q42 0 52 -60q0 -42 -60 -52q-42 0 -52 60zM576 1212q0 42 60 52q42 0 52 -60q0 -42 -60 -52q-42 0 -52 60zM576 1356q0 42 60 52q42 0 52 -60q0 -42 -60 -52 q-42 0 -52 60zM720 780q0 42 60 52q42 0 52 -60q0 -42 -60 -52q-42 0 -52 60zM720 924q0 42 60 52q42 0 52 -60q0 -42 -60 -52q-42 0 -52 60zM720 1068q0 42 60 52q42 0 52 -60q0 -42 -60 -52q-42 0 -52 60zM720 1212q0 42 60 52q42 0 52 -60q0 -42 -60 -52q-42 0 -52 60z " />
<glyph unicode="Q" d="M0 202q0 42 60 52q42 0 52 -60q0 -42 -60 -52q-42 0 -52 60zM0 346q0 42 60 52q42 0 52 -60q0 -42 -60 -52q-42 0 -52 60zM0 490q0 42 60 52q42 0 52 -60q0 -42 -60 -52q-42 0 -52 60zM0 634q0 42 60 52q42 0 52 -60q0 -42 -60 -52q-42 0 -52 60zM0 778q0 42 60 52 q42 0 52 -60q0 -42 -60 -52q-42 0 -52 60zM0 922q0 42 60 52q42 0 52 -60q0 -42 -60 -52q-42 0 -52 60zM0 1066q0 42 60 52q42 0 52 -60q0 -42 -60 -52q-42 0 -52 60zM0 1210q0 42 60 52q42 0 52 -60q0 -42 -60 -52q-42 0 -52 60zM144 58q0 42 60 52q42 0 52 -60 q0 -42 -60 -52q-42 0 -52 60zM144 202q0 42 60 52q42 0 52 -60q0 -42 -60 -52q-42 0 -52 60zM144 346q0 42 60 52q42 0 52 -60q0 -42 -60 -52q-42 0 -52 60zM144 490q0 42 60 52q42 0 52 -60q0 -42 -60 -52q-42 0 -52 60zM144 634q0 42 60 52q42 0 52 -60q0 -42 -60 -52 q-42 0 -52 60zM144 778q0 42 60 52q42 0 52 -60q0 -42 -60 -52q-42 0 -52 60zM144 922q0 42 60 52q42 0 52 -60q0 -42 -60 -52q-42 0 -52 60zM144 1066q0 42 60 52q42 0 52 -60q0 -42 -60 -52q-42 0 -52 60zM144 1210q0 42 60 52q42 0 52 -60q0 -42 -60 -52q-42 0 -52 60z M144 1354q0 42 60 52q42 0 52 -60q0 -42 -60 -52q-42 0 -52 60zM288 58q0 42 60 52q42 0 52 -60q0 -42 -60 -52q-42 0 -52 60zM288 -86q0 42 60 52q42 0 52 -60q0 -42 -60 -52q-42 0 -52 60zM288 202q0 42 60 52q42 0 52 -60q0 -42 -60 -52q-42 0 -52 60zM288 -230 q0 42 60 52q42 0 52 -60q0 -42 -60 -52q-42 0 -52 60zM288 1210q0 42 60 52q42 0 52 -60q0 -42 -60 -52q-42 0 -52 60zM288 1354q0 42 60 52q42 0 52 -60q0 -42 -60 -52q-42 0 -52 60zM432 58q0 42 60 52q42 0 52 -60q0 -42 -60 -52q-42 0 -52 60zM432 -86q0 42 60 52 q42 0 52 -60q0 -42 -60 -52q-42 0 -52 60zM432 202q0 42 60 52q42 0 52 -60q0 -42 -60 -52q-42 0 -52 60zM432 -230q0 42 60 52q42 0 52 -60q0 -42 -60 -52q-42 0 -52 60zM432 1210q0 42 60 52q42 0 52 -60q0 -42 -60 -52q-42 0 -52 60zM432 1354q0 42 60 52q42 0 52 -60 q0 -42 -60 -52q-42 0 -52 60zM576 58q0 42 60 52q42 0 52 -60q0 -42 -60 -52q-42 0 -52 60zM576 202q0 42 60 52q42 0 52 -60q0 -42 -60 -52q-42 0 -52 60zM576 346q0 42 60 52q42 0 52 -60q0 -42 -60 -52q-42 0 -52 60zM576 490q0 42 60 52q42 0 52 -60q0 -42 -60 -52 q-42 0 -52 60zM576 634q0 42 60 52q42 0 52 -60q0 -42 -60 -52q-42 0 -52 60zM576 778q0 42 60 52q42 0 52 -60q0 -42 -60 -52q-42 0 -52 60zM576 922q0 42 60 52q42 0 52 -60q0 -42 -60 -52q-42 0 -52 60zM576 1066q0 42 60 52q42 0 52 -60q0 -42 -60 -52q-42 0 -52 60z M576 1210q0 42 60 52q42 0 52 -60q0 -42 -60 -52q-42 0 -52 60zM576 1354q0 42 60 52q42 0 52 -60q0 -42 -60 -52q-42 0 -52 60zM720 202q0 42 60 52q42 0 52 -60q0 -42 -60 -52q-42 0 -52 60zM720 346q0 42 60 52q42 0 52 -60q0 -42 -60 -52q-42 0 -52 60zM720 490 q0 42 60 52q42 0 52 -60q0 -42 -60 -52q-42 0 -52 60zM720 634q0 42 60 52q42 0 52 -60q0 -42 -60 -52q-42 0 -52 60zM720 778q0 42 60 52q42 0 52 -60q0 -42 -60 -52q-42 0 -52 60zM720 922q0 42 60 52q42 0 52 -60q0 -42 -60 -52q-42 0 -52 60zM720 1066q0 42 60 52 q42 0 52 -60q0 -42 -60 -52q-42 0 -52 60zM720 1210q0 42 60 52q42 0 52 -60q0 -42 -60 -52q-42 0 -52 60z" />
<glyph unicode="R" d="M0 60q0 42 60 52q42 0 52 -60q0 -42 -60 -52q-42 0 -52 60zM0 204q0 42 60 52q42 0 52 -60q0 -42 -60 -52q-42 0 -52 60zM0 348q0 42 60 52q42 0 52 -60q0 -42 -60 -52q-42 0 -52 60zM0 492q0 42 60 52q42 0 52 -60q0 -42 -60 -52q-42 0 -52 60zM0 636q0 42 60 52 q42 0 52 -60q0 -42 -60 -52q-42 0 -52 60zM0 780q0 42 60 52q42 0 52 -60q0 -42 -60 -52q-42 0 -52 60zM0 924q0 42 60 52q42 0 52 -60q0 -42 -60 -52q-42 0 -52 60zM0 1068q0 42 60 52q42 0 52 -60q0 -42 -60 -52q-42 0 -52 60zM0 1212q0 42 60 52q42 0 52 -60 q0 -42 -60 -52q-42 0 -52 60zM0 1356q0 42 60 52q42 0 52 -60q0 -42 -60 -52q-42 0 -52 60zM144 60q0 42 60 52q42 0 52 -60q0 -42 -60 -52q-42 0 -52 60zM144 204q0 42 60 52q42 0 52 -60q0 -42 -60 -52q-42 0 -52 60zM144 348q0 42 60 52q42 0 52 -60q0 -42 -60 -52 q-42 0 -52 60zM144 492q0 42 60 52q42 0 52 -60q0 -42 -60 -52q-42 0 -52 60zM144 636q0 42 60 52q42 0 52 -60q0 -42 -60 -52q-42 0 -52 60zM144 780q0 42 60 52q42 0 52 -60q0 -42 -60 -52q-42 0 -52 60zM144 924q0 42 60 52q42 0 52 -60q0 -42 -60 -52q-42 0 -52 60z M144 1068q0 42 60 52q42 0 52 -60q0 -42 -60 -52q-42 0 -52 60zM144 1212q0 42 60 52q42 0 52 -60q0 -42 -60 -52q-42 0 -52 60zM144 1356q0 42 60 52q42 0 52 -60q0 -42 -60 -52q-42 0 -52 60zM288 636q0 42 60 52q42 0 52 -60q0 -42 -60 -52q-42 0 -52 60zM288 780 q0 42 60 52q42 0 52 -60q0 -42 -60 -52q-42 0 -52 60zM288 1212q0 42 60 52q42 0 52 -60q0 -42 -60 -52q-42 0 -52 60zM288 1356q0 42 60 52q42 0 52 -60q0 -42 -60 -52q-42 0 -52 60zM432 636q0 42 60 52q42 0 52 -60q0 -42 -60 -52q-42 0 -52 60zM432 780q0 42 60 52 q42 0 52 -60q0 -42 -60 -52q-42 0 -52 60zM432 1212q0 42 60 52q42 0 52 -60q0 -42 -60 -52q-42 0 -52 60zM432 1356q0 42 60 52q42 0 52 -60q0 -42 -60 -52q-42 0 -52 60zM576 60q0 42 60 52q42 0 52 -60q0 -42 -60 -52q-42 0 -52 60zM576 204q0 42 60 52q42 0 52 -60 q0 -42 -60 -52q-42 0 -52 60zM576 348q0 42 60 52q42 0 52 -60q0 -42 -60 -52q-42 0 -52 60zM576 492q0 42 60 52q42 0 52 -60q0 -42 -60 -52q-42 0 -52 60zM576 636q0 42 60 52q42 0 52 -60q0 -42 -60 -52q-42 0 -52 60zM576 780q0 42 60 52q42 0 52 -60q0 -42 -60 -52 q-42 0 -52 60zM576 924q0 42 60 52q42 0 52 -60q0 -42 -60 -52q-42 0 -52 60zM576 1068q0 42 60 52q42 0 52 -60q0 -42 -60 -52q-42 0 -52 60zM576 1212q0 42 60 52q42 0 52 -60q0 -42 -60 -52q-42 0 -52 60zM576 1356q0 42 60 52q42 0 52 -60q0 -42 -60 -52q-42 0 -52 60z M720 60q0 42 60 52q42 0 52 -60q0 -42 -60 -52q-42 0 -52 60zM720 204q0 42 60 52q42 0 52 -60q0 -42 -60 -52q-42 0 -52 60zM720 348q0 42 60 52q42 0 52 -60q0 -42 -60 -52q-42 0 -52 60zM720 492q0 42 60 52q42 0 52 -60q0 -42 -60 -52q-42 0 -52 60zM720 780q0 42 60 52 q42 0 52 -60q0 -42 -60 -52q-42 0 -52 60zM720 924q0 42 60 52q42 0 52 -60q0 -42 -60 -52q-42 0 -52 60zM720 1068q0 42 60 52q42 0 52 -60q0 -42 -60 -52q-42 0 -52 60zM720 1212q0 42 60 52q42 0 52 -60q0 -42 -60 -52q-42 0 -52 60z" />
<glyph unicode="S" d="M0 60q0 42 60 52q42 0 52 -60q0 -42 -60 -52q-42 0 -52 60zM0 204q0 42 60 52q42 0 52 -60q0 -42 -60 -52q-42 0 -52 60zM0 780q0 42 60 52q42 0 52 -60q0 -42 -60 -52q-42 0 -52 60zM0 924q0 42 60 52q42 0 52 -60q0 -42 -60 -52q-42 0 -52 60zM0 1068q0 42 60 52 q42 0 52 -60q0 -42 -60 -52q-42 0 -52 60zM0 1212q0 42 60 52q42 0 52 -60q0 -42 -60 -52q-42 0 -52 60zM144 60q0 42 60 52q42 0 52 -60q0 -42 -60 -52q-42 0 -52 60zM144 204q0 42 60 52q42 0 52 -60q0 -42 -60 -52q-42 0 -52 60zM144 636q0 42 60 52q42 0 52 -60 q0 -42 -60 -52q-42 0 -52 60zM144 780q0 42 60 52q42 0 52 -60q0 -42 -60 -52q-42 0 -52 60zM144 924q0 42 60 52q42 0 52 -60q0 -42 -60 -52q-42 0 -52 60zM144 1068q0 42 60 52q42 0 52 -60q0 -42 -60 -52q-42 0 -52 60zM144 1212q0 42 60 52q42 0 52 -60q0 -42 -60 -52 q-42 0 -52 60zM144 1356q0 42 60 52q42 0 52 -60q0 -42 -60 -52q-42 0 -52 60zM288 60q0 42 60 52q42 0 52 -60q0 -42 -60 -52q-42 0 -52 60zM288 204q0 42 60 52q42 0 52 -60q0 -42 -60 -52q-42 0 -52 60zM288 636q0 42 60 52q42 0 52 -60q0 -42 -60 -52q-42 0 -52 60z M288 780q0 42 60 52q42 0 52 -60q0 -42 -60 -52q-42 0 -52 60zM288 1212q0 42 60 52q42 0 52 -60q0 -42 -60 -52q-42 0 -52 60zM288 1356q0 42 60 52q42 0 52 -60q0 -42 -60 -52q-42 0 -52 60zM432 60q0 42 60 52q42 0 52 -60q0 -42 -60 -52q-42 0 -52 60zM432 204 q0 42 60 52q42 0 52 -60q0 -42 -60 -52q-42 0 -52 60zM432 636q0 42 60 52q42 0 52 -60q0 -42 -60 -52q-42 0 -52 60zM432 780q0 42 60 52q42 0 52 -60q0 -42 -60 -52q-42 0 -52 60zM432 1212q0 42 60 52q42 0 52 -60q0 -42 -60 -52q-42 0 -52 60zM432 1356q0 42 60 52 q42 0 52 -60q0 -42 -60 -52q-42 0 -52 60zM576 60q0 42 60 52q42 0 52 -60q0 -42 -60 -52q-42 0 -52 60zM576 204q0 42 60 52q42 0 52 -60q0 -42 -60 -52q-42 0 -52 60zM576 348q0 42 60 52q42 0 52 -60q0 -42 -60 -52q-42 0 -52 60zM576 492q0 42 60 52q42 0 52 -60 q0 -42 -60 -52q-42 0 -52 60zM576 636q0 42 60 52q42 0 52 -60q0 -42 -60 -52q-42 0 -52 60zM576 780q0 42 60 52q42 0 52 -60q0 -42 -60 -52q-42 0 -52 60zM576 1212q0 42 60 52q42 0 52 -60q0 -42 -60 -52q-42 0 -52 60zM576 1356q0 42 60 52q42 0 52 -60q0 -42 -60 -52 q-42 0 -52 60zM720 204q0 42 60 52q42 0 52 -60q0 -42 -60 -52q-42 0 -52 60zM720 348q0 42 60 52q42 0 52 -60q0 -42 -60 -52q-42 0 -52 60zM720 492q0 42 60 52q42 0 52 -60q0 -42 -60 -52q-42 0 -52 60zM720 636q0 42 60 52q42 0 52 -60q0 -42 -60 -52q-42 0 -52 60z M720 1212q0 42 60 52q42 0 52 -60q0 -42 -60 -52q-42 0 -52 60zM720 1356q0 42 60 52q42 0 52 -60q0 -42 -60 -52q-42 0 -52 60z" />
<glyph unicode="T" d="M0 1212q0 42 60 52q42 0 52 -60q0 -42 -60 -52q-42 0 -52 60zM0 1356q0 42 60 52q42 0 52 -60q0 -42 -60 -52q-42 0 -52 60zM144 1212q0 42 60 52q42 0 52 -60q0 -42 -60 -52q-42 0 -52 60zM144 1356q0 42 60 52q42 0 52 -60q0 -42 -60 -52q-42 0 -52 60zM288 60 q0 42 60 52q42 0 52 -60q0 -42 -60 -52q-42 0 -52 60zM288 204q0 42 60 52q42 0 52 -60q0 -42 -60 -52q-42 0 -52 60zM288 348q0 42 60 52q42 0 52 -60q0 -42 -60 -52q-42 0 -52 60zM288 492q0 42 60 52q42 0 52 -60q0 -42 -60 -52q-42 0 -52 60zM288 636q0 42 60 52 q42 0 52 -60q0 -42 -60 -52q-42 0 -52 60zM288 780q0 42 60 52q42 0 52 -60q0 -42 -60 -52q-42 0 -52 60zM288 924q0 42 60 52q42 0 52 -60q0 -42 -60 -52q-42 0 -52 60zM288 1068q0 42 60 52q42 0 52 -60q0 -42 -60 -52q-42 0 -52 60zM288 1212q0 42 60 52q42 0 52 -60 q0 -42 -60 -52q-42 0 -52 60zM288 1356q0 42 60 52q42 0 52 -60q0 -42 -60 -52q-42 0 -52 60zM432 60q0 42 60 52q42 0 52 -60q0 -42 -60 -52q-42 0 -52 60zM432 204q0 42 60 52q42 0 52 -60q0 -42 -60 -52q-42 0 -52 60zM432 348q0 42 60 52q42 0 52 -60q0 -42 -60 -52 q-42 0 -52 60zM432 492q0 42 60 52q42 0 52 -60q0 -42 -60 -52q-42 0 -52 60zM432 636q0 42 60 52q42 0 52 -60q0 -42 -60 -52q-42 0 -52 60zM432 780q0 42 60 52q42 0 52 -60q0 -42 -60 -52q-42 0 -52 60zM432 924q0 42 60 52q42 0 52 -60q0 -42 -60 -52q-42 0 -52 60z M432 1068q0 42 60 52q42 0 52 -60q0 -42 -60 -52q-42 0 -52 60zM432 1212q0 42 60 52q42 0 52 -60q0 -42 -60 -52q-42 0 -52 60zM432 1356q0 42 60 52q42 0 52 -60q0 -42 -60 -52q-42 0 -52 60zM576 1212q0 42 60 52q42 0 52 -60q0 -42 -60 -52q-42 0 -52 60zM576 1356 q0 42 60 52q42 0 52 -60q0 -42 -60 -52q-42 0 -52 60zM720 1212q0 42 60 52q42 0 52 -60q0 -42 -60 -52q-42 0 -52 60zM720 1356q0 42 60 52q42 0 52 -60q0 -42 -60 -52q-42 0 -52 60z" />
<glyph unicode="U" d="M0 204q0 42 60 52q42 0 52 -60q0 -42 -60 -52q-42 0 -52 60zM0 348q0 42 60 52q42 0 52 -60q0 -42 -60 -52q-42 0 -52 60zM0 492q0 42 60 52q42 0 52 -60q0 -42 -60 -52q-42 0 -52 60zM0 636q0 42 60 52q42 0 52 -60q0 -42 -60 -52q-42 0 -52 60zM0 780q0 42 60 52 q42 0 52 -60q0 -42 -60 -52q-42 0 -52 60zM0 924q0 42 60 52q42 0 52 -60q0 -42 -60 -52q-42 0 -52 60zM0 1068q0 42 60 52q42 0 52 -60q0 -42 -60 -52q-42 0 -52 60zM0 1212q0 42 60 52q42 0 52 -60q0 -42 -60 -52q-42 0 -52 60zM0 1356q0 42 60 52q42 0 52 -60 q0 -42 -60 -52q-42 0 -52 60zM144 60q0 42 60 52q42 0 52 -60q0 -42 -60 -52q-42 0 -52 60zM144 204q0 42 60 52q42 0 52 -60q0 -42 -60 -52q-42 0 -52 60zM144 348q0 42 60 52q42 0 52 -60q0 -42 -60 -52q-42 0 -52 60zM144 492q0 42 60 52q42 0 52 -60q0 -42 -60 -52 q-42 0 -52 60zM144 636q0 42 60 52q42 0 52 -60q0 -42 -60 -52q-42 0 -52 60zM144 780q0 42 60 52q42 0 52 -60q0 -42 -60 -52q-42 0 -52 60zM144 924q0 42 60 52q42 0 52 -60q0 -42 -60 -52q-42 0 -52 60zM144 1068q0 42 60 52q42 0 52 -60q0 -42 -60 -52q-42 0 -52 60z M144 1212q0 42 60 52q42 0 52 -60q0 -42 -60 -52q-42 0 -52 60zM144 1356q0 42 60 52q42 0 52 -60q0 -42 -60 -52q-42 0 -52 60zM288 60q0 42 60 52q42 0 52 -60q0 -42 -60 -52q-42 0 -52 60zM288 204q0 42 60 52q42 0 52 -60q0 -42 -60 -52q-42 0 -52 60zM432 60 q0 42 60 52q42 0 52 -60q0 -42 -60 -52q-42 0 -52 60zM432 204q0 42 60 52q42 0 52 -60q0 -42 -60 -52q-42 0 -52 60zM576 60q0 42 60 52q42 0 52 -60q0 -42 -60 -52q-42 0 -52 60zM576 204q0 42 60 52q42 0 52 -60q0 -42 -60 -52q-42 0 -52 60zM576 348q0 42 60 52 q42 0 52 -60q0 -42 -60 -52q-42 0 -52 60zM576 492q0 42 60 52q42 0 52 -60q0 -42 -60 -52q-42 0 -52 60zM576 636q0 42 60 52q42 0 52 -60q0 -42 -60 -52q-42 0 -52 60zM576 780q0 42 60 52q42 0 52 -60q0 -42 -60 -52q-42 0 -52 60zM576 924q0 42 60 52q42 0 52 -60 q0 -42 -60 -52q-42 0 -52 60zM576 1068q0 42 60 52q42 0 52 -60q0 -42 -60 -52q-42 0 -52 60zM576 1212q0 42 60 52q42 0 52 -60q0 -42 -60 -52q-42 0 -52 60zM576 1356q0 42 60 52q42 0 52 -60q0 -42 -60 -52q-42 0 -52 60zM720 204q0 42 60 52q42 0 52 -60q0 -42 -60 -52 q-42 0 -52 60zM720 348q0 42 60 52q42 0 52 -60q0 -42 -60 -52q-42 0 -52 60zM720 492q0 42 60 52q42 0 52 -60q0 -42 -60 -52q-42 0 -52 60zM720 636q0 42 60 52q42 0 52 -60q0 -42 -60 -52q-42 0 -52 60zM720 780q0 42 60 52q42 0 52 -60q0 -42 -60 -52q-42 0 -52 60z M720 924q0 42 60 52q42 0 52 -60q0 -42 -60 -52q-42 0 -52 60zM720 1068q0 42 60 52q42 0 52 -60q0 -42 -60 -52q-42 0 -52 60zM720 1212q0 42 60 52q42 0 52 -60q0 -42 -60 -52q-42 0 -52 60zM720 1356q0 42 60 52q42 0 52 -60q0 -42 -60 -52q-42 0 -52 60z" />
<glyph unicode="V" d="M0 348q0 42 60 52q42 0 52 -60q0 -42 -60 -52q-42 0 -52 60zM0 492q0 42 60 52q42 0 52 -60q0 -42 -60 -52q-42 0 -52 60zM0 636q0 42 60 52q42 0 52 -60q0 -42 -60 -52q-42 0 -52 60zM0 780q0 42 60 52q42 0 52 -60q0 -42 -60 -52q-42 0 -52 60zM0 924q0 42 60 52 q42 0 52 -60q0 -42 -60 -52q-42 0 -52 60zM0 1068q0 42 60 52q42 0 52 -60q0 -42 -60 -52q-42 0 -52 60zM0 1212q0 42 60 52q42 0 52 -60q0 -42 -60 -52q-42 0 -52 60zM0 1356q0 42 60 52q42 0 52 -60q0 -42 -60 -52q-42 0 -52 60zM144 204q0 42 60 52q42 0 52 -60 q0 -42 -60 -52q-42 0 -52 60zM144 348q0 42 60 52q42 0 52 -60q0 -42 -60 -52q-42 0 -52 60zM144 492q0 42 60 52q42 0 52 -60q0 -42 -60 -52q-42 0 -52 60zM144 636q0 42 60 52q42 0 52 -60q0 -42 -60 -52q-42 0 -52 60zM144 780q0 42 60 52q42 0 52 -60q0 -42 -60 -52 q-42 0 -52 60zM144 924q0 42 60 52q42 0 52 -60q0 -42 -60 -52q-42 0 -52 60zM144 1068q0 42 60 52q42 0 52 -60q0 -42 -60 -52q-42 0 -52 60zM144 1212q0 42 60 52q42 0 52 -60q0 -42 -60 -52q-42 0 -52 60zM144 1356q0 42 60 52q42 0 52 -60q0 -42 -60 -52q-42 0 -52 60z M288 60q0 42 60 52q42 0 52 -60q0 -42 -60 -52q-42 0 -52 60zM288 204q0 42 60 52q42 0 52 -60q0 -42 -60 -52q-42 0 -52 60zM432 60q0 42 60 52q42 0 52 -60q0 -42 -60 -52q-42 0 -52 60zM432 204q0 42 60 52q42 0 52 -60q0 -42 -60 -52q-42 0 -52 60zM576 204q0 42 60 52 q42 0 52 -60q0 -42 -60 -52q-42 0 -52 60zM576 348q0 42 60 52q42 0 52 -60q0 -42 -60 -52q-42 0 -52 60zM576 492q0 42 60 52q42 0 52 -60q0 -42 -60 -52q-42 0 -52 60zM576 636q0 42 60 52q42 0 52 -60q0 -42 -60 -52q-42 0 -52 60zM576 780q0 42 60 52q42 0 52 -60 q0 -42 -60 -52q-42 0 -52 60zM576 924q0 42 60 52q42 0 52 -60q0 -42 -60 -52q-42 0 -52 60zM576 1068q0 42 60 52q42 0 52 -60q0 -42 -60 -52q-42 0 -52 60zM576 1212q0 42 60 52q42 0 52 -60q0 -42 -60 -52q-42 0 -52 60zM576 1356q0 42 60 52q42 0 52 -60q0 -42 -60 -52 q-42 0 -52 60zM720 348q0 42 60 52q42 0 52 -60q0 -42 -60 -52q-42 0 -52 60zM720 492q0 42 60 52q42 0 52 -60q0 -42 -60 -52q-42 0 -52 60zM720 636q0 42 60 52q42 0 52 -60q0 -42 -60 -52q-42 0 -52 60zM720 780q0 42 60 52q42 0 52 -60q0 -42 -60 -52q-42 0 -52 60z M720 924q0 42 60 52q42 0 52 -60q0 -42 -60 -52q-42 0 -52 60zM720 1068q0 42 60 52q42 0 52 -60q0 -42 -60 -52q-42 0 -52 60zM720 1212q0 42 60 52q42 0 52 -60q0 -42 -60 -52q-42 0 -52 60zM720 1356q0 42 60 52q42 0 52 -60q0 -42 -60 -52q-42 0 -52 60z" />
<glyph unicode="W" horiz-adv-x="1097" d="M0 60q0 42 60 52q42 0 52 -60q0 -42 -60 -52q-42 0 -52 60zM0 204q0 42 60 52q42 0 52 -60q0 -42 -60 -52q-42 0 -52 60zM0 348q0 42 60 52q42 0 52 -60q0 -42 -60 -52q-42 0 -52 60zM0 492q0 42 60 52q42 0 52 -60q0 -42 -60 -52q-42 0 -52 60zM0 636q0 42 60 52 q42 0 52 -60q0 -42 -60 -52q-42 0 -52 60zM0 780q0 42 60 52q42 0 52 -60q0 -42 -60 -52q-42 0 -52 60zM0 924q0 42 60 52q42 0 52 -60q0 -42 -60 -52q-42 0 -52 60zM0 1068q0 42 60 52q42 0 52 -60q0 -42 -60 -52q-42 0 -52 60zM0 1212q0 42 60 52q42 0 52 -60 q0 -42 -60 -52q-42 0 -52 60zM0 1356q0 42 60 52q42 0 52 -60q0 -42 -60 -52q-42 0 -52 60zM144 204q0 42 60 52q42 0 52 -60q0 -42 -60 -52q-42 0 -52 60zM144 348q0 42 60 52q42 0 52 -60q0 -42 -60 -52q-42 0 -52 60zM144 492q0 42 60 52q42 0 52 -60q0 -42 -60 -52 q-42 0 -52 60zM144 636q0 42 60 52q42 0 52 -60q0 -42 -60 -52q-42 0 -52 60zM144 780q0 42 60 52q42 0 52 -60q0 -42 -60 -52q-42 0 -52 60zM144 924q0 42 60 52q42 0 52 -60q0 -42 -60 -52q-42 0 -52 60zM144 1068q0 42 60 52q42 0 52 -60q0 -42 -60 -52q-42 0 -52 60z M144 1212q0 42 60 52q42 0 52 -60q0 -42 -60 -52q-42 0 -52 60zM288 348q0 42 60 52q42 0 52 -60q0 -42 -60 -52q-42 0 -52 60zM288 492q0 42 60 52q42 0 52 -60q0 -42 -60 -52q-42 0 -52 60zM436 492q10 48 56 48q48 -10 48 -56q-10 -48 -56 -48q-48 10 -48 56zM436 636 q10 48 56 48q48 -10 48 -56q-10 -48 -56 -48q-48 10 -48 56zM580 348q10 48 56 48q48 -10 48 -56q-10 -48 -56 -48q-48 10 -48 56zM580 492q10 48 56 48q48 -10 48 -56q-10 -48 -56 -48q-48 10 -48 56zM724 204q10 48 56 48q48 -10 48 -56q-10 -48 -56 -48q-48 10 -48 56z M724 348q10 48 56 48q48 -10 48 -56q-10 -48 -56 -48q-48 10 -48 56zM724 492q10 48 56 48q48 -10 48 -56q-10 -48 -56 -48q-48 10 -48 56zM724 636q10 48 56 48q48 -10 48 -56q-10 -48 -56 -48q-48 10 -48 56zM724 780q10 48 56 48q48 -10 48 -56q-10 -48 -56 -48 q-48 10 -48 56zM724 924q10 48 56 48q48 -10 48 -56q-10 -48 -56 -48q-48 10 -48 56zM724 1068q10 48 56 48q48 -10 48 -56q-10 -48 -56 -48q-48 10 -48 56zM724 1212q10 48 56 48q48 -10 48 -56q-10 -48 -56 -48q-48 10 -48 56zM868 60q10 48 56 48q48 -10 48 -56 q-10 -48 -56 -48q-48 10 -48 56zM868 204q10 48 56 48q48 -10 48 -56q-10 -48 -56 -48q-48 10 -48 56zM868 348q10 48 56 48q48 -10 48 -56q-10 -48 -56 -48q-48 10 -48 56zM868 492q10 48 56 48q48 -10 48 -56q-10 -48 -56 -48q-48 10 -48 56zM868 636q10 48 56 48 q48 -10 48 -56q-10 -48 -56 -48q-48 10 -48 56zM868 780q10 48 56 48q48 -10 48 -56q-10 -48 -56 -48q-48 10 -48 56zM868 924q10 48 56 48q48 -10 48 -56q-10 -48 -56 -48q-48 10 -48 56zM868 1068q10 48 56 48q48 -10 48 -56q-10 -48 -56 -48q-48 10 -48 56zM868 1212 q10 48 56 48q48 -10 48 -56q-10 -48 -56 -48q-48 10 -48 56zM868 1356q10 48 56 48q48 -10 48 -56q-10 -48 -56 -48q-48 10 -48 56z" />
<glyph unicode="X" d="M0 60q0 42 60 52q42 0 52 -60q0 -42 -60 -52q-42 0 -52 60zM0 204q0 42 60 52q42 0 52 -60q0 -42 -60 -52q-42 0 -52 60zM0 348q0 42 60 52q42 0 52 -60q0 -42 -60 -52q-42 0 -52 60zM0 492q0 42 60 52q42 0 52 -60q0 -42 -60 -52q-42 0 -52 60zM0 924q0 42 60 52 q42 0 52 -60q0 -42 -60 -52q-42 0 -52 60zM0 1068q0 42 60 52q42 0 52 -60q0 -42 -60 -52q-42 0 -52 60zM0 1212q0 42 60 52q42 0 52 -60q0 -42 -60 -52q-42 0 -52 60zM0 1356q0 42 60 52q42 0 52 -60q0 -42 -60 -52q-42 0 -52 60zM144 204q0 42 60 52q42 0 52 -60 q0 -42 -60 -52q-42 0 -52 60zM144 348q0 42 60 52q42 0 52 -60q0 -42 -60 -52q-42 0 -52 60zM144 492q0 42 60 52q42 0 52 -60q0 -42 -60 -52q-42 0 -52 60zM144 924q0 42 60 52q42 0 52 -60q0 -42 -60 -52q-42 0 -52 60zM144 1068q0 42 60 52q42 0 52 -60q0 -42 -60 -52 q-42 0 -52 60zM144 1212q0 42 60 52q42 0 52 -60q0 -42 -60 -52q-42 0 -52 60zM288 636q0 42 60 52q42 0 52 -60q0 -42 -60 -52q-42 0 -52 60zM288 780q0 42 60 52q42 0 52 -60q0 -42 -60 -52q-42 0 -52 60zM432 636q0 42 60 52q42 0 52 -60q0 -42 -60 -52q-42 0 -52 60z M432 780q0 42 60 52q42 0 52 -60q0 -42 -60 -52q-42 0 -52 60zM576 204q0 42 60 52q42 0 52 -60q0 -42 -60 -52q-42 0 -52 60zM576 348q0 42 60 52q42 0 52 -60q0 -42 -60 -52q-42 0 -52 60zM576 492q0 42 60 52q42 0 52 -60q0 -42 -60 -52q-42 0 -52 60zM576 924 q0 42 60 52q42 0 52 -60q0 -42 -60 -52q-42 0 -52 60zM576 1068q0 42 60 52q42 0 52 -60q0 -42 -60 -52q-42 0 -52 60zM576 1212q0 42 60 52q42 0 52 -60q0 -42 -60 -52q-42 0 -52 60zM720 60q0 42 60 52q42 0 52 -60q0 -42 -60 -52q-42 0 -52 60zM720 204q0 42 60 52 q42 0 52 -60q0 -42 -60 -52q-42 0 -52 60zM720 348q0 42 60 52q42 0 52 -60q0 -42 -60 -52q-42 0 -52 60zM720 492q0 42 60 52q42 0 52 -60q0 -42 -60 -52q-42 0 -52 60zM720 924q0 42 60 52q42 0 52 -60q0 -42 -60 -52q-42 0 -52 60zM720 1068q0 42 60 52q42 0 52 -60 q0 -42 -60 -52q-42 0 -52 60zM720 1212q0 42 60 52q42 0 52 -60q0 -42 -60 -52q-42 0 -52 60zM720 1356q0 42 60 52q42 0 52 -60q0 -42 -60 -52q-42 0 -52 60z" />
<glyph unicode="Y" d="M0 780q0 42 60 52q42 0 52 -60q0 -42 -60 -52q-42 0 -52 60zM0 924q0 42 60 52q42 0 52 -60q0 -42 -60 -52q-42 0 -52 60zM0 1068q0 42 60 52q42 0 52 -60q0 -42 -60 -52q-42 0 -52 60zM0 1212q0 42 60 52q42 0 52 -60q0 -42 -60 -52q-42 0 -52 60zM0 1356q0 42 60 52 q42 0 52 -60q0 -42 -60 -52q-42 0 -52 60zM144 636q0 42 60 52q42 0 52 -60q0 -42 -60 -52q-42 0 -52 60zM144 780q0 42 60 52q42 0 52 -60q0 -42 -60 -52q-42 0 -52 60zM144 924q0 42 60 52q42 0 52 -60q0 -42 -60 -52q-42 0 -52 60zM144 1068q0 42 60 52q42 0 52 -60 q0 -42 -60 -52q-42 0 -52 60zM144 1212q0 42 60 52q42 0 52 -60q0 -42 -60 -52q-42 0 -52 60zM288 60q0 42 60 52q42 0 52 -60q0 -42 -60 -52q-42 0 -52 60zM288 204q0 42 60 52q42 0 52 -60q0 -42 -60 -52q-42 0 -52 60zM288 348q0 42 60 52q42 0 52 -60q0 -42 -60 -52 q-42 0 -52 60zM288 492q0 42 60 52q42 0 52 -60q0 -42 -60 -52q-42 0 -52 60zM288 636q0 42 60 52q42 0 52 -60q0 -42 -60 -52q-42 0 -52 60zM288 780q0 42 60 52q42 0 52 -60q0 -42 -60 -52q-42 0 -52 60zM432 60q0 42 60 52q42 0 52 -60q0 -42 -60 -52q-42 0 -52 60z M432 204q0 42 60 52q42 0 52 -60q0 -42 -60 -52q-42 0 -52 60zM432 348q0 42 60 52q42 0 52 -60q0 -42 -60 -52q-42 0 -52 60zM432 492q0 42 60 52q42 0 52 -60q0 -42 -60 -52q-42 0 -52 60zM432 636q0 42 60 52q42 0 52 -60q0 -42 -60 -52q-42 0 -52 60zM432 780 q0 42 60 52q42 0 52 -60q0 -42 -60 -52q-42 0 -52 60zM576 636q0 42 60 52q42 0 52 -60q0 -42 -60 -52q-42 0 -52 60zM576 780q0 42 60 52q42 0 52 -60q0 -42 -60 -52q-42 0 -52 60zM576 924q0 42 60 52q42 0 52 -60q0 -42 -60 -52q-42 0 -52 60zM576 1068q0 42 60 52 q42 0 52 -60q0 -42 -60 -52q-42 0 -52 60zM576 1212q0 42 60 52q42 0 52 -60q0 -42 -60 -52q-42 0 -52 60zM720 780q0 42 60 52q42 0 52 -60q0 -42 -60 -52q-42 0 -52 60zM720 924q0 42 60 52q42 0 52 -60q0 -42 -60 -52q-42 0 -52 60zM720 1068q0 42 60 52q42 0 52 -60 q0 -42 -60 -52q-42 0 -52 60zM720 1212q0 42 60 52q42 0 52 -60q0 -42 -60 -52q-42 0 -52 60zM720 1356q0 42 60 52q42 0 52 -60q0 -42 -60 -52q-42 0 -52 60z" />
<glyph unicode="Z" d="M0 60q0 42 60 52q42 0 52 -60q0 -42 -60 -52q-42 0 -52 60zM0 204q0 42 60 52q42 0 52 -60q0 -42 -60 -52q-42 0 -52 60zM0 348q0 42 60 52q42 0 52 -60q0 -42 -60 -52q-42 0 -52 60zM0 1212q0 42 60 52q42 0 52 -60q0 -42 -60 -52q-42 0 -52 60zM0 1356q0 42 60 52 q42 0 52 -60q0 -42 -60 -52q-42 0 -52 60zM144 60q0 42 60 52q42 0 52 -60q0 -42 -60 -52q-42 0 -52 60zM144 204q0 42 60 52q42 0 52 -60q0 -42 -60 -52q-42 0 -52 60zM144 348q0 42 60 52q42 0 52 -60q0 -42 -60 -52q-42 0 -52 60zM144 492q0 42 60 52q42 0 52 -60 q0 -42 -60 -52q-42 0 -52 60zM144 1212q0 42 60 52q42 0 52 -60q0 -42 -60 -52q-42 0 -52 60zM144 1356q0 42 60 52q42 0 52 -60q0 -42 -60 -52q-42 0 -52 60zM288 60q0 42 60 52q42 0 52 -60q0 -42 -60 -52q-42 0 -52 60zM288 204q0 42 60 52q42 0 52 -60q0 -42 -60 -52 q-42 0 -52 60zM288 492q0 42 60 52q42 0 52 -60q0 -42 -60 -52q-42 0 -52 60zM288 636q0 42 60 52q42 0 52 -60q0 -42 -60 -52q-42 0 -52 60zM288 1212q0 42 60 52q42 0 52 -60q0 -42 -60 -52q-42 0 -52 60zM288 1356q0 42 60 52q42 0 52 -60q0 -42 -60 -52q-42 0 -52 60z M432 60q0 42 60 52q42 0 52 -60q0 -42 -60 -52q-42 0 -52 60zM432 204q0 42 60 52q42 0 52 -60q0 -42 -60 -52q-42 0 -52 60zM432 636q0 42 60 52q42 0 52 -60q0 -42 -60 -52q-42 0 -52 60zM432 780q0 42 60 52q42 0 52 -60q0 -42 -60 -52q-42 0 -52 60zM432 1212 q0 42 60 52q42 0 52 -60q0 -42 -60 -52q-42 0 -52 60zM432 1356q0 42 60 52q42 0 52 -60q0 -42 -60 -52q-42 0 -52 60zM576 60q0 42 60 52q42 0 52 -60q0 -42 -60 -52q-42 0 -52 60zM576 204q0 42 60 52q42 0 52 -60q0 -42 -60 -52q-42 0 -52 60zM576 780q0 42 60 52 q42 0 52 -60q0 -42 -60 -52q-42 0 -52 60zM576 924q0 42 60 52q42 0 52 -60q0 -42 -60 -52q-42 0 -52 60zM576 1068q0 42 60 52q42 0 52 -60q0 -42 -60 -52q-42 0 -52 60zM576 1212q0 42 60 52q42 0 52 -60q0 -42 -60 -52q-42 0 -52 60zM576 1356q0 42 60 52q42 0 52 -60 q0 -42 -60 -52q-42 0 -52 60zM720 60q0 42 60 52q42 0 52 -60q0 -42 -60 -52q-42 0 -52 60zM720 204q0 42 60 52q42 0 52 -60q0 -42 -60 -52q-42 0 -52 60zM720 924q0 42 60 52q42 0 52 -60q0 -42 -60 -52q-42 0 -52 60zM720 1068q0 42 60 52q42 0 52 -60q0 -42 -60 -52 q-42 0 -52 60zM720 1212q0 42 60 52q42 0 52 -60q0 -42 -60 -52q-42 0 -52 60zM720 1356q0 42 60 52q42 0 52 -60q0 -42 -60 -52q-42 0 -52 60z" />
<glyph unicode="[" horiz-adv-x="904" d="M0 60q0 42 60 52q42 0 52 -60q0 -42 -60 -52q-42 0 -52 60zM0 204q0 42 60 52q42 0 52 -60q0 -42 -60 -52q-42 0 -52 60zM0 348q0 42 60 52q42 0 52 -60q0 -42 -60 -52q-42 0 -52 60zM0 492q0 42 60 52q42 0 52 -60q0 -42 -60 -52q-42 0 -52 60zM0 636q0 42 60 52 q42 0 52 -60q0 -42 -60 -52q-42 0 -52 60zM0 780q0 42 60 52q42 0 52 -60q0 -42 -60 -52q-42 0 -52 60zM0 924q0 42 60 52q42 0 52 -60q0 -42 -60 -52q-42 0 -52 60zM0 1068q0 42 60 52q42 0 52 -60q0 -42 -60 -52q-42 0 -52 60zM0 1212q0 42 60 52q42 0 52 -60 q0 -42 -60 -52q-42 0 -52 60zM0 1356q0 42 60 52q42 0 52 -60q0 -42 -60 -52q-42 0 -52 60zM144 60q0 42 60 52q42 0 52 -60q0 -42 -60 -52q-42 0 -52 60zM144 204q0 42 60 52q42 0 52 -60q0 -42 -60 -52q-42 0 -52 60zM144 348q0 42 60 52q42 0 52 -60q0 -42 -60 -52 q-42 0 -52 60zM144 492q0 42 60 52q42 0 52 -60q0 -42 -60 -52q-42 0 -52 60zM144 636q0 42 60 52q42 0 52 -60q0 -42 -60 -52q-42 0 -52 60zM144 780q0 42 60 52q42 0 52 -60q0 -42 -60 -52q-42 0 -52 60zM144 924q0 42 60 52q42 0 52 -60q0 -42 -60 -52q-42 0 -52 60z M144 1068q0 42 60 52q42 0 52 -60q0 -42 -60 -52q-42 0 -52 60zM144 1212q0 42 60 52q42 0 52 -60q0 -42 -60 -52q-42 0 -52 60zM144 1356q0 42 60 52q42 0 52 -60q0 -42 -60 -52q-42 0 -52 60zM288 60q0 42 60 52q42 0 52 -60q0 -42 -60 -52q-42 0 -52 60zM288 204 q0 42 60 52q42 0 52 -60q0 -42 -60 -52q-42 0 -52 60zM288 1212q0 42 60 52q42 0 52 -60q0 -42 -60 -52q-42 0 -52 60zM288 1356q0 42 60 52q42 0 52 -60q0 -42 -60 -52q-42 0 -52 60zM432 60q0 42 60 52q42 0 52 -60q0 -42 -60 -52q-42 0 -52 60zM432 204q0 42 60 52 q42 0 52 -60q0 -42 -60 -52q-42 0 -52 60zM432 1212q0 42 60 52q42 0 52 -60q0 -42 -60 -52q-42 0 -52 60zM432 1356q0 42 60 52q42 0 52 -60q0 -42 -60 -52q-42 0 -52 60zM576 60q0 42 60 52q42 0 52 -60q0 -42 -60 -52q-42 0 -52 60zM576 204q0 42 60 52q42 0 52 -60 q0 -42 -60 -52q-42 0 -52 60zM576 1212q0 42 60 52q42 0 52 -60q0 -42 -60 -52q-42 0 -52 60zM576 1356q0 42 60 52q42 0 52 -60q0 -42 -60 -52q-42 0 -52 60zM720 60q0 42 60 52q42 0 52 -60q0 -42 -60 -52q-42 0 -52 60zM720 204q0 42 60 52q42 0 52 -60q0 -42 -60 -52 q-42 0 -52 60zM720 1212q0 42 60 52q42 0 52 -60q0 -42 -60 -52q-42 0 -52 60zM720 1356q0 42 60 52q42 0 52 -60q0 -42 -60 -52q-42 0 -52 60z" />
<glyph unicode="\" horiz-adv-x="1011" d="M13 1204q10 60 52 60q60 -10 60 -52q-10 -60 -52 -60q-60 10 -60 52zM13 1348q10 60 52 60q60 -10 60 -52q-10 -60 -52 -60q-60 10 -60 52zM157 1060q10 60 52 60q60 -10 60 -52q-10 -60 -52 -60q-60 10 -60 52zM157 1204q10 60 52 60q60 -10 60 -52q-10 -60 -52 -60 q-60 10 -60 52zM157 1348q10 60 52 60q60 -10 60 -52q-10 -60 -52 -60q-60 10 -60 52zM301 772q10 60 52 60q60 -10 60 -52q-10 -60 -52 -60q-60 10 -60 52zM301 916q10 60 52 60q60 -10 60 -52q-10 -60 -52 -60q-60 10 -60 52zM301 1060q10 60 52 60q60 -10 60 -52 q-10 -60 -52 -60q-60 10 -60 52zM445 484q10 60 52 60q60 -10 60 -52q-10 -60 -52 -60q-60 10 -60 52zM445 628q10 60 52 60q60 -10 60 -52q-10 -60 -52 -60q-60 10 -60 52zM445 772q10 60 52 60q60 -10 60 -52q-10 -60 -52 -60q-60 10 -60 52zM445 916q10 60 52 60 q60 -10 60 -52q-10 -60 -52 -60q-60 10 -60 52zM589 52q10 60 52 60q60 -10 60 -52q-10 -60 -52 -60q-60 10 -60 52zM589 196q10 60 52 60q60 -10 60 -52q-10 -60 -52 -60q-60 10 -60 52zM589 340q10 60 52 60q60 -10 60 -52q-10 -60 -52 -60q-60 10 -60 52zM589 484 q10 60 52 60q60 -10 60 -52q-10 -60 -52 -60q-60 10 -60 52zM589 628q10 60 52 60q60 -10 60 -52q-10 -60 -52 -60q-60 10 -60 52zM733 52q10 60 52 60q60 -10 60 -52q-10 -60 -52 -60q-60 10 -60 52zM733 196q10 60 52 60q60 -10 60 -52q-10 -60 -52 -60q-60 10 -60 52z M733 340q10 60 52 60q60 -10 60 -52q-10 -60 -52 -60q-60 10 -60 52z" />
<glyph unicode="]" horiz-adv-x="904" d="M0 52q10 60 52 60q60 -10 60 -52q-10 -60 -52 -60q-60 10 -60 52zM0 196q10 60 52 60q60 -10 60 -52q-10 -60 -52 -60q-60 10 -60 52zM0 1204q10 60 52 60q60 -10 60 -52q-10 -60 -52 -60q-60 10 -60 52zM0 1348q10 60 52 60q60 -10 60 -52q-10 -60 -52 -60 q-60 10 -60 52zM144 52q10 60 52 60q60 -10 60 -52q-10 -60 -52 -60q-60 10 -60 52zM144 196q10 60 52 60q60 -10 60 -52q-10 -60 -52 -60q-60 10 -60 52zM144 1204q10 60 52 60q60 -10 60 -52q-10 -60 -52 -60q-60 10 -60 52zM144 1348q10 60 52 60q60 -10 60 -52 q-10 -60 -52 -60q-60 10 -60 52zM288 52q10 60 52 60q60 -10 60 -52q-10 -60 -52 -60q-60 10 -60 52zM288 196q10 60 52 60q60 -10 60 -52q-10 -60 -52 -60q-60 10 -60 52zM288 1204q10 60 52 60q60 -10 60 -52q-10 -60 -52 -60q-60 10 -60 52zM288 1348q10 60 52 60 q60 -10 60 -52q-10 -60 -52 -60q-60 10 -60 52zM432 52q10 60 52 60q60 -10 60 -52q-10 -60 -52 -60q-60 10 -60 52zM432 196q10 60 52 60q60 -10 60 -52q-10 -60 -52 -60q-60 10 -60 52zM432 1204q10 60 52 60q60 -10 60 -52q-10 -60 -52 -60q-60 10 -60 52zM432 1348 q10 60 52 60q60 -10 60 -52q-10 -60 -52 -60q-60 10 -60 52zM576 52q10 60 52 60q60 -10 60 -52q-10 -60 -52 -60q-60 10 -60 52zM576 196q10 60 52 60q60 -10 60 -52q-10 -60 -52 -60q-60 10 -60 52zM576 340q10 60 52 60q60 -10 60 -52q-10 -60 -52 -60q-60 10 -60 52z M576 484q10 60 52 60q60 -10 60 -52q-10 -60 -52 -60q-60 10 -60 52zM576 628q10 60 52 60q60 -10 60 -52q-10 -60 -52 -60q-60 10 -60 52zM576 772q10 60 52 60q60 -10 60 -52q-10 -60 -52 -60q-60 10 -60 52zM576 916q10 60 52 60q60 -10 60 -52q-10 -60 -52 -60 q-60 10 -60 52zM576 1060q10 60 52 60q60 -10 60 -52q-10 -60 -52 -60q-60 10 -60 52zM576 1204q10 60 52 60q60 -10 60 -52q-10 -60 -52 -60q-60 10 -60 52zM576 1348q10 60 52 60q60 -10 60 -52q-10 -60 -52 -60q-60 10 -60 52zM720 52q10 60 52 60q60 -10 60 -52 q-10 -60 -52 -60q-60 10 -60 52zM720 196q10 60 52 60q60 -10 60 -52q-10 -60 -52 -60q-60 10 -60 52zM720 340q10 60 52 60q60 -10 60 -52q-10 -60 -52 -60q-60 10 -60 52zM720 484q10 60 52 60q60 -10 60 -52q-10 -60 -52 -60q-60 10 -60 52zM720 628q10 60 52 60 q60 -10 60 -52q-10 -60 -52 -60q-60 10 -60 52zM720 772q10 60 52 60q60 -10 60 -52q-10 -60 -52 -60q-60 10 -60 52zM720 916q10 60 52 60q60 -10 60 -52q-10 -60 -52 -60q-60 10 -60 52zM720 1060q10 60 52 60q60 -10 60 -52q-10 -60 -52 -60q-60 10 -60 52zM720 1204 q10 60 52 60q60 -10 60 -52q-10 -60 -52 -60q-60 10 -60 52zM720 1348q10 60 52 60q60 -10 60 -52q-10 -60 -52 -60q-60 10 -60 52z" />
<glyph unicode="^" horiz-adv-x="1398" d="M27 766q0 42 60 52q42 0 52 -60q0 -42 -60 -52q-42 0 -52 60zM171 766q0 42 60 52q42 0 52 -60q0 -42 -60 -52q-42 0 -52 60zM171 910q0 42 60 52q42 0 52 -60q0 -42 -60 -52q-42 0 -52 60zM315 910q0 42 60 52q42 0 52 -60q0 -42 -60 -52q-42 0 -52 60zM315 1054 q0 42 60 52q42 0 52 -60q0 -42 -60 -52q-42 0 -52 60zM459 1054q0 42 60 52q42 0 52 -60q0 -42 -60 -52q-42 0 -52 60zM459 1198q0 42 60 52q42 0 52 -60q0 -42 -60 -52q-42 0 -52 60zM603 1198q0 42 60 52q42 0 52 -60q0 -42 -60 -52q-42 0 -52 60zM603 1342q0 42 60 52 q42 0 52 -60q0 -42 -60 -52q-42 0 -52 60zM747 1054q0 42 60 52q42 0 52 -60q0 -42 -60 -52q-42 0 -52 60zM747 1198q0 42 60 52q42 0 52 -60q0 -42 -60 -52q-42 0 -52 60zM891 910q0 42 60 52q42 0 52 -60q0 -42 -60 -52q-42 0 -52 60zM891 1054q0 42 60 52q42 0 52 -60 q0 -42 -60 -52q-42 0 -52 60zM1035 766q0 42 60 52q42 0 52 -60q0 -42 -60 -52q-42 0 -52 60zM1035 910q0 42 60 52q42 0 52 -60q0 -42 -60 -52q-42 0 -52 60zM1179 766q0 42 60 52q42 0 52 -60q0 -42 -60 -52q-42 0 -52 60z" />
<glyph unicode="_" horiz-adv-x="1024" />
<glyph unicode="`" horiz-adv-x="1024" d="M220 1788q10 48 56 48q48 -10 48 -56q-10 -48 -56 -48q-48 10 -48 56zM364 1644q10 48 56 48q48 -10 48 -56q-10 -48 -56 -48q-48 10 -48 56z" />
<glyph unicode="a" d="M0 60q0 42 60 52q42 0 52 -60q0 -42 -60 -52q-42 0 -52 60zM0 204q0 42 60 52q42 0 52 -60q0 -42 -60 -52q-42 0 -52 60zM0 348q0 42 60 52q42 0 52 -60q0 -42 -60 -52q-42 0 -52 60zM0 492q0 42 60 52q42 0 52 -60q0 -42 -60 -52q-42 0 -52 60zM0 636q0 42 60 52 q42 0 52 -60q0 -42 -60 -52q-42 0 -52 60zM0 780q0 42 60 52q42 0 52 -60q0 -42 -60 -52q-42 0 -52 60zM0 924q0 42 60 52q42 0 52 -60q0 -42 -60 -52q-42 0 -52 60zM0 1068q0 42 60 52q42 0 52 -60q0 -42 -60 -52q-42 0 -52 60zM0 1212q0 42 60 52q42 0 52 -60 q0 -42 -60 -52q-42 0 -52 60zM144 60q0 42 60 52q42 0 52 -60q0 -42 -60 -52q-42 0 -52 60zM144 204q0 42 60 52q42 0 52 -60q0 -42 -60 -52q-42 0 -52 60zM144 348q0 42 60 52q42 0 52 -60q0 -42 -60 -52q-42 0 -52 60zM144 492q0 42 60 52q42 0 52 -60q0 -42 -60 -52 q-42 0 -52 60zM144 636q0 42 60 52q42 0 52 -60q0 -42 -60 -52q-42 0 -52 60zM144 780q0 42 60 52q42 0 52 -60q0 -42 -60 -52q-42 0 -52 60zM144 924q0 42 60 52q42 0 52 -60q0 -42 -60 -52q-42 0 -52 60zM144 1068q0 42 60 52q42 0 52 -60q0 -42 -60 -52q-42 0 -52 60z M144 1212q0 42 60 52q42 0 52 -60q0 -42 -60 -52q-42 0 -52 60zM144 1356q0 42 60 52q42 0 52 -60q0 -42 -60 -52q-42 0 -52 60zM288 636q0 42 60 52q42 0 52 -60q0 -42 -60 -52q-42 0 -52 60zM288 1212q0 42 60 52q42 0 52 -60q0 -42 -60 -52q-42 0 -52 60zM288 1356 q0 42 60 52q42 0 52 -60q0 -42 -60 -52q-42 0 -52 60zM432 636q0 42 60 52q42 0 52 -60q0 -42 -60 -52q-42 0 -52 60zM432 1212q0 42 60 52q42 0 52 -60q0 -42 -60 -52q-42 0 -52 60zM432 1356q0 42 60 52q42 0 52 -60q0 -42 -60 -52q-42 0 -52 60zM576 60q0 42 60 52 q42 0 52 -60q0 -42 -60 -52q-42 0 -52 60zM576 204q0 42 60 52q42 0 52 -60q0 -42 -60 -52q-42 0 -52 60zM576 348q0 42 60 52q42 0 52 -60q0 -42 -60 -52q-42 0 -52 60zM576 492q0 42 60 52q42 0 52 -60q0 -42 -60 -52q-42 0 -52 60zM576 636q0 42 60 52q42 0 52 -60 q0 -42 -60 -52q-42 0 -52 60zM576 780q0 42 60 52q42 0 52 -60q0 -42 -60 -52q-42 0 -52 60zM576 924q0 42 60 52q42 0 52 -60q0 -42 -60 -52q-42 0 -52 60zM576 1068q0 42 60 52q42 0 52 -60q0 -42 -60 -52q-42 0 -52 60zM576 1212q0 42 60 52q42 0 52 -60q0 -42 -60 -52 q-42 0 -52 60zM576 1356q0 42 60 52q42 0 52 -60q0 -42 -60 -52q-42 0 -52 60zM720 60q0 42 60 52q42 0 52 -60q0 -42 -60 -52q-42 0 -52 60zM720 204q0 42 60 52q42 0 52 -60q0 -42 -60 -52q-42 0 -52 60zM720 348q0 42 60 52q42 0 52 -60q0 -42 -60 -52q-42 0 -52 60z M720 492q0 42 60 52q42 0 52 -60q0 -42 -60 -52q-42 0 -52 60zM720 636q0 42 60 52q42 0 52 -60q0 -42 -60 -52q-42 0 -52 60zM720 780q0 42 60 52q42 0 52 -60q0 -42 -60 -52q-42 0 -52 60zM720 924q0 42 60 52q42 0 52 -60q0 -42 -60 -52q-42 0 -52 60zM720 1068 q0 42 60 52q42 0 52 -60q0 -42 -60 -52q-42 0 -52 60zM720 1212q0 42 60 52q42 0 52 -60q0 -42 -60 -52q-42 0 -52 60z" />
<glyph unicode="b" d="M0 60q0 42 60 52q42 0 52 -60q0 -42 -60 -52q-42 0 -52 60zM0 204q0 42 60 52q42 0 52 -60q0 -42 -60 -52q-42 0 -52 60zM0 348q0 42 60 52q42 0 52 -60q0 -42 -60 -52q-42 0 -52 60zM0 492q0 42 60 52q42 0 52 -60q0 -42 -60 -52q-42 0 -52 60zM0 636q0 42 60 52 q42 0 52 -60q0 -42 -60 -52q-42 0 -52 60zM0 780q0 42 60 52q42 0 52 -60q0 -42 -60 -52q-42 0 -52 60zM0 924q0 42 60 52q42 0 52 -60q0 -42 -60 -52q-42 0 -52 60zM0 1068q0 42 60 52q42 0 52 -60q0 -42 -60 -52q-42 0 -52 60zM0 1212q0 42 60 52q42 0 52 -60 q0 -42 -60 -52q-42 0 -52 60zM0 1356q0 42 60 52q42 0 52 -60q0 -42 -60 -52q-42 0 -52 60zM144 60q0 42 60 52q42 0 52 -60q0 -42 -60 -52q-42 0 -52 60zM144 204q0 42 60 52q42 0 52 -60q0 -42 -60 -52q-42 0 -52 60zM144 348q0 42 60 52q42 0 52 -60q0 -42 -60 -52 q-42 0 -52 60zM144 492q0 42 60 52q42 0 52 -60q0 -42 -60 -52q-42 0 -52 60zM144 636q0 42 60 52q42 0 52 -60q0 -42 -60 -52q-42 0 -52 60zM144 780q0 42 60 52q42 0 52 -60q0 -42 -60 -52q-42 0 -52 60zM144 924q0 42 60 52q42 0 52 -60q0 -42 -60 -52q-42 0 -52 60z M144 1068q0 42 60 52q42 0 52 -60q0 -42 -60 -52q-42 0 -52 60zM144 1212q0 42 60 52q42 0 52 -60q0 -42 -60 -52q-42 0 -52 60zM144 1356q0 42 60 52q42 0 52 -60q0 -42 -60 -52q-42 0 -52 60zM288 60q0 42 60 52q42 0 52 -60q0 -42 -60 -52q-42 0 -52 60zM288 204 q0 42 60 52q42 0 52 -60q0 -42 -60 -52q-42 0 -52 60zM288 636q0 42 60 52q42 0 52 -60q0 -42 -60 -52q-42 0 -52 60zM288 780q0 42 60 52q42 0 52 -60q0 -42 -60 -52q-42 0 -52 60zM288 1212q0 42 60 52q42 0 52 -60q0 -42 -60 -52q-42 0 -52 60zM288 1356q0 42 60 52 q42 0 52 -60q0 -42 -60 -52q-42 0 -52 60zM432 60q0 42 60 52q42 0 52 -60q0 -42 -60 -52q-42 0 -52 60zM432 204q0 42 60 52q42 0 52 -60q0 -42 -60 -52q-42 0 -52 60zM432 636q0 42 60 52q42 0 52 -60q0 -42 -60 -52q-42 0 -52 60zM432 780q0 42 60 52q42 0 52 -60 q0 -42 -60 -52q-42 0 -52 60zM432 1212q0 42 60 52q42 0 52 -60q0 -42 -60 -52q-42 0 -52 60zM432 1356q0 42 60 52q42 0 52 -60q0 -42 -60 -52q-42 0 -52 60zM576 60q0 42 60 52q42 0 52 -60q0 -42 -60 -52q-42 0 -52 60zM576 204q0 42 60 52q42 0 52 -60q0 -42 -60 -52 q-42 0 -52 60zM576 348q0 42 60 52q42 0 52 -60q0 -42 -60 -52q-42 0 -52 60zM576 492q0 42 60 52q42 0 52 -60q0 -42 -60 -52q-42 0 -52 60zM576 636q0 42 60 52q42 0 52 -60q0 -42 -60 -52q-42 0 -52 60zM576 780q0 42 60 52q42 0 52 -60q0 -42 -60 -52q-42 0 -52 60z M576 924q0 42 60 52q42 0 52 -60q0 -42 -60 -52q-42 0 -52 60zM576 1068q0 42 60 52q42 0 52 -60q0 -42 -60 -52q-42 0 -52 60zM576 1212q0 42 60 52q42 0 52 -60q0 -42 -60 -52q-42 0 -52 60zM576 1356q0 42 60 52q42 0 52 -60q0 -42 -60 -52q-42 0 -52 60zM720 204 q0 42 60 52q42 0 52 -60q0 -42 -60 -52q-42 0 -52 60zM720 348q0 42 60 52q42 0 52 -60q0 -42 -60 -52q-42 0 -52 60zM720 492q0 42 60 52q42 0 52 -60q0 -42 -60 -52q-42 0 -52 60zM720 924q0 42 60 52q42 0 52 -60q0 -42 -60 -52q-42 0 -52 60zM720 1068q0 42 60 52 q42 0 52 -60q0 -42 -60 -52q-42 0 -52 60zM720 1212q0 42 60 52q42 0 52 -60q0 -42 -60 -52q-42 0 -52 60z" />
<glyph unicode="c" d="M0 204q0 42 60 52q42 0 52 -60q0 -42 -60 -52q-42 0 -52 60zM0 348q0 42 60 52q42 0 52 -60q0 -42 -60 -52q-42 0 -52 60zM0 492q0 42 60 52q42 0 52 -60q0 -42 -60 -52q-42 0 -52 60zM0 636q0 42 60 52q42 0 52 -60q0 -42 -60 -52q-42 0 -52 60zM0 780q0 42 60 52 q42 0 52 -60q0 -42 -60 -52q-42 0 -52 60zM0 924q0 42 60 52q42 0 52 -60q0 -42 -60 -52q-42 0 -52 60zM0 1068q0 42 60 52q42 0 52 -60q0 -42 -60 -52q-42 0 -52 60zM0 1212q0 42 60 52q42 0 52 -60q0 -42 -60 -52q-42 0 -52 60zM144 60q0 42 60 52q42 0 52 -60 q0 -42 -60 -52q-42 0 -52 60zM144 204q0 42 60 52q42 0 52 -60q0 -42 -60 -52q-42 0 -52 60zM144 348q0 42 60 52q42 0 52 -60q0 -42 -60 -52q-42 0 -52 60zM144 492q0 42 60 52q42 0 52 -60q0 -42 -60 -52q-42 0 -52 60zM144 636q0 42 60 52q42 0 52 -60q0 -42 -60 -52 q-42 0 -52 60zM144 780q0 42 60 52q42 0 52 -60q0 -42 -60 -52q-42 0 -52 60zM144 924q0 42 60 52q42 0 52 -60q0 -42 -60 -52q-42 0 -52 60zM144 1068q0 42 60 52q42 0 52 -60q0 -42 -60 -52q-42 0 -52 60zM144 1212q0 42 60 52q42 0 52 -60q0 -42 -60 -52q-42 0 -52 60z M144 1356q0 42 60 52q42 0 52 -60q0 -42 -60 -52q-42 0 -52 60zM288 60q0 42 60 52q42 0 52 -60q0 -42 -60 -52q-42 0 -52 60zM288 204q0 42 60 52q42 0 52 -60q0 -42 -60 -52q-42 0 -52 60zM288 1212q0 42 60 52q42 0 52 -60q0 -42 -60 -52q-42 0 -52 60zM288 1356 q0 42 60 52q42 0 52 -60q0 -42 -60 -52q-42 0 -52 60zM432 60q0 42 60 52q42 0 52 -60q0 -42 -60 -52q-42 0 -52 60zM432 204q0 42 60 52q42 0 52 -60q0 -42 -60 -52q-42 0 -52 60zM432 1212q0 42 60 52q42 0 52 -60q0 -42 -60 -52q-42 0 -52 60zM432 1356q0 42 60 52 q42 0 52 -60q0 -42 -60 -52q-42 0 -52 60zM576 60q0 42 60 52q42 0 52 -60q0 -42 -60 -52q-42 0 -52 60zM576 204q0 42 60 52q42 0 52 -60q0 -42 -60 -52q-42 0 -52 60zM576 1212q0 42 60 52q42 0 52 -60q0 -42 -60 -52q-42 0 -52 60zM576 1356q0 42 60 52q42 0 52 -60 q0 -42 -60 -52q-42 0 -52 60zM720 60q0 42 60 52q42 0 52 -60q0 -42 -60 -52q-42 0 -52 60zM720 204q0 42 60 52q42 0 52 -60q0 -42 -60 -52q-42 0 -52 60zM720 1212q0 42 60 52q42 0 52 -60q0 -42 -60 -52q-42 0 -52 60zM720 1356q0 42 60 52q42 0 52 -60q0 -42 -60 -52 q-42 0 -52 60z" />
<glyph unicode="d" d="M0 60q0 42 60 52q42 0 52 -60q0 -42 -60 -52q-42 0 -52 60zM0 204q0 42 60 52q42 0 52 -60q0 -42 -60 -52q-42 0 -52 60zM0 348q0 42 60 52q42 0 52 -60q0 -42 -60 -52q-42 0 -52 60zM0 492q0 42 60 52q42 0 52 -60q0 -42 -60 -52q-42 0 -52 60zM0 636q0 42 60 52 q42 0 52 -60q0 -42 -60 -52q-42 0 -52 60zM0 780q0 42 60 52q42 0 52 -60q0 -42 -60 -52q-42 0 -52 60zM0 924q0 42 60 52q42 0 52 -60q0 -42 -60 -52q-42 0 -52 60zM0 1068q0 42 60 52q42 0 52 -60q0 -42 -60 -52q-42 0 -52 60zM0 1212q0 42 60 52q42 0 52 -60 q0 -42 -60 -52q-42 0 -52 60zM0 1356q0 42 60 52q42 0 52 -60q0 -42 -60 -52q-42 0 -52 60zM144 60q0 42 60 52q42 0 52 -60q0 -42 -60 -52q-42 0 -52 60zM144 204q0 42 60 52q42 0 52 -60q0 -42 -60 -52q-42 0 -52 60zM144 348q0 42 60 52q42 0 52 -60q0 -42 -60 -52 q-42 0 -52 60zM144 492q0 42 60 52q42 0 52 -60q0 -42 -60 -52q-42 0 -52 60zM144 636q0 42 60 52q42 0 52 -60q0 -42 -60 -52q-42 0 -52 60zM144 780q0 42 60 52q42 0 52 -60q0 -42 -60 -52q-42 0 -52 60zM144 924q0 42 60 52q42 0 52 -60q0 -42 -60 -52q-42 0 -52 60z M144 1068q0 42 60 52q42 0 52 -60q0 -42 -60 -52q-42 0 -52 60zM144 1212q0 42 60 52q42 0 52 -60q0 -42 -60 -52q-42 0 -52 60zM144 1356q0 42 60 52q42 0 52 -60q0 -42 -60 -52q-42 0 -52 60zM288 60q0 42 60 52q42 0 52 -60q0 -42 -60 -52q-42 0 -52 60zM288 204 q0 42 60 52q42 0 52 -60q0 -42 -60 -52q-42 0 -52 60zM288 1212q0 42 60 52q42 0 52 -60q0 -42 -60 -52q-42 0 -52 60zM288 1356q0 42 60 52q42 0 52 -60q0 -42 -60 -52q-42 0 -52 60zM432 60q0 42 60 52q42 0 52 -60q0 -42 -60 -52q-42 0 -52 60zM432 204q0 42 60 52 q42 0 52 -60q0 -42 -60 -52q-42 0 -52 60zM432 1212q0 42 60 52q42 0 52 -60q0 -42 -60 -52q-42 0 -52 60zM432 1356q0 42 60 52q42 0 52 -60q0 -42 -60 -52q-42 0 -52 60zM576 60q0 42 60 52q42 0 52 -60q0 -42 -60 -52q-42 0 -52 60zM576 204q0 42 60 52q42 0 52 -60 q0 -42 -60 -52q-42 0 -52 60zM576 348q0 42 60 52q42 0 52 -60q0 -42 -60 -52q-42 0 -52 60zM576 492q0 42 60 52q42 0 52 -60q0 -42 -60 -52q-42 0 -52 60zM576 636q0 42 60 52q42 0 52 -60q0 -42 -60 -52q-42 0 -52 60zM576 780q0 42 60 52q42 0 52 -60q0 -42 -60 -52 q-42 0 -52 60zM576 924q0 42 60 52q42 0 52 -60q0 -42 -60 -52q-42 0 -52 60zM576 1068q0 42 60 52q42 0 52 -60q0 -42 -60 -52q-42 0 -52 60zM576 1212q0 42 60 52q42 0 52 -60q0 -42 -60 -52q-42 0 -52 60zM576 1356q0 42 60 52q42 0 52 -60q0 -42 -60 -52q-42 0 -52 60z M720 204q0 42 60 52q42 0 52 -60q0 -42 -60 -52q-42 0 -52 60zM720 348q0 42 60 52q42 0 52 -60q0 -42 -60 -52q-42 0 -52 60zM720 492q0 42 60 52q42 0 52 -60q0 -42 -60 -52q-42 0 -52 60zM720 636q0 42 60 52q42 0 52 -60q0 -42 -60 -52q-42 0 -52 60zM720 780 q0 42 60 52q42 0 52 -60q0 -42 -60 -52q-42 0 -52 60zM720 924q0 42 60 52q42 0 52 -60q0 -42 -60 -52q-42 0 -52 60zM720 1068q0 42 60 52q42 0 52 -60q0 -42 -60 -52q-42 0 -52 60zM720 1212q0 42 60 52q42 0 52 -60q0 -42 -60 -52q-42 0 -52 60z" />
<glyph unicode="e" d="M0 60q0 42 60 52q42 0 52 -60q0 -42 -60 -52q-42 0 -52 60zM0 204q0 42 60 52q42 0 52 -60q0 -42 -60 -52q-42 0 -52 60zM0 348q0 42 60 52q42 0 52 -60q0 -42 -60 -52q-42 0 -52 60zM0 492q0 42 60 52q42 0 52 -60q0 -42 -60 -52q-42 0 -52 60zM0 636q0 42 60 52 q42 0 52 -60q0 -42 -60 -52q-42 0 -52 60zM0 780q0 42 60 52q42 0 52 -60q0 -42 -60 -52q-42 0 -52 60zM0 924q0 42 60 52q42 0 52 -60q0 -42 -60 -52q-42 0 -52 60zM0 1068q0 42 60 52q42 0 52 -60q0 -42 -60 -52q-42 0 -52 60zM0 1212q0 42 60 52q42 0 52 -60 q0 -42 -60 -52q-42 0 -52 60zM0 1356q0 42 60 52q42 0 52 -60q0 -42 -60 -52q-42 0 -52 60zM144 60q0 42 60 52q42 0 52 -60q0 -42 -60 -52q-42 0 -52 60zM144 204q0 42 60 52q42 0 52 -60q0 -42 -60 -52q-42 0 -52 60zM144 348q0 42 60 52q42 0 52 -60q0 -42 -60 -52 q-42 0 -52 60zM144 492q0 42 60 52q42 0 52 -60q0 -42 -60 -52q-42 0 -52 60zM144 636q0 42 60 52q42 0 52 -60q0 -42 -60 -52q-42 0 -52 60zM144 780q0 42 60 52q42 0 52 -60q0 -42 -60 -52q-42 0 -52 60zM144 924q0 42 60 52q42 0 52 -60q0 -42 -60 -52q-42 0 -52 60z M144 1068q0 42 60 52q42 0 52 -60q0 -42 -60 -52q-42 0 -52 60zM144 1212q0 42 60 52q42 0 52 -60q0 -42 -60 -52q-42 0 -52 60zM144 1356q0 42 60 52q42 0 52 -60q0 -42 -60 -52q-42 0 -52 60zM288 60q0 42 60 52q42 0 52 -60q0 -42 -60 -52q-42 0 -52 60zM288 204 q0 42 60 52q42 0 52 -60q0 -42 -60 -52q-42 0 -52 60zM288 636q0 42 60 52q42 0 52 -60q0 -42 -60 -52q-42 0 -52 60zM288 780q0 42 60 52q42 0 52 -60q0 -42 -60 -52q-42 0 -52 60zM288 1212q0 42 60 52q42 0 52 -60q0 -42 -60 -52q-42 0 -52 60zM288 1356q0 42 60 52 q42 0 52 -60q0 -42 -60 -52q-42 0 -52 60zM432 60q0 42 60 52q42 0 52 -60q0 -42 -60 -52q-42 0 -52 60zM432 204q0 42 60 52q42 0 52 -60q0 -42 -60 -52q-42 0 -52 60zM432 636q0 42 60 52q42 0 52 -60q0 -42 -60 -52q-42 0 -52 60zM432 780q0 42 60 52q42 0 52 -60 q0 -42 -60 -52q-42 0 -52 60zM432 1212q0 42 60 52q42 0 52 -60q0 -42 -60 -52q-42 0 -52 60zM432 1356q0 42 60 52q42 0 52 -60q0 -42 -60 -52q-42 0 -52 60zM576 60q0 42 60 52q42 0 52 -60q0 -42 -60 -52q-42 0 -52 60zM576 204q0 42 60 52q42 0 52 -60q0 -42 -60 -52 q-42 0 -52 60zM576 1212q0 42 60 52q42 0 52 -60q0 -42 -60 -52q-42 0 -52 60zM576 1356q0 42 60 52q42 0 52 -60q0 -42 -60 -52q-42 0 -52 60zM720 60q0 42 60 52q42 0 52 -60q0 -42 -60 -52q-42 0 -52 60zM720 204q0 42 60 52q42 0 52 -60q0 -42 -60 -52q-42 0 -52 60z M720 1212q0 42 60 52q42 0 52 -60q0 -42 -60 -52q-42 0 -52 60zM720 1356q0 42 60 52q42 0 52 -60q0 -42 -60 -52q-42 0 -52 60z" />
<glyph unicode="f" d="M0 60q0 42 60 52q42 0 52 -60q0 -42 -60 -52q-42 0 -52 60zM0 204q0 42 60 52q42 0 52 -60q0 -42 -60 -52q-42 0 -52 60zM0 348q0 42 60 52q42 0 52 -60q0 -42 -60 -52q-42 0 -52 60zM0 492q0 42 60 52q42 0 52 -60q0 -42 -60 -52q-42 0 -52 60zM0 636q0 42 60 52 q42 0 52 -60q0 -42 -60 -52q-42 0 -52 60zM0 780q0 42 60 52q42 0 52 -60q0 -42 -60 -52q-42 0 -52 60zM0 924q0 42 60 52q42 0 52 -60q0 -42 -60 -52q-42 0 -52 60zM0 1068q0 42 60 52q42 0 52 -60q0 -42 -60 -52q-42 0 -52 60zM0 1212q0 42 60 52q42 0 52 -60 q0 -42 -60 -52q-42 0 -52 60zM0 1356q0 42 60 52q42 0 52 -60q0 -42 -60 -52q-42 0 -52 60zM144 60q0 42 60 52q42 0 52 -60q0 -42 -60 -52q-42 0 -52 60zM144 204q0 42 60 52q42 0 52 -60q0 -42 -60 -52q-42 0 -52 60zM144 348q0 42 60 52q42 0 52 -60q0 -42 -60 -52 q-42 0 -52 60zM144 492q0 42 60 52q42 0 52 -60q0 -42 -60 -52q-42 0 -52 60zM144 636q0 42 60 52q42 0 52 -60q0 -42 -60 -52q-42 0 -52 60zM144 780q0 42 60 52q42 0 52 -60q0 -42 -60 -52q-42 0 -52 60zM144 924q0 42 60 52q42 0 52 -60q0 -42 -60 -52q-42 0 -52 60z M144 1068q0 42 60 52q42 0 52 -60q0 -42 -60 -52q-42 0 -52 60zM144 1212q0 42 60 52q42 0 52 -60q0 -42 -60 -52q-42 0 -52 60zM144 1356q0 42 60 52q42 0 52 -60q0 -42 -60 -52q-42 0 -52 60zM288 636q0 42 60 52q42 0 52 -60q0 -42 -60 -52q-42 0 -52 60zM288 780 q0 42 60 52q42 0 52 -60q0 -42 -60 -52q-42 0 -52 60zM288 1212q0 42 60 52q42 0 52 -60q0 -42 -60 -52q-42 0 -52 60zM288 1356q0 42 60 52q42 0 52 -60q0 -42 -60 -52q-42 0 -52 60zM432 636q0 42 60 52q42 0 52 -60q0 -42 -60 -52q-42 0 -52 60zM432 780q0 42 60 52 q42 0 52 -60q0 -42 -60 -52q-42 0 -52 60zM432 1212q0 42 60 52q42 0 52 -60q0 -42 -60 -52q-42 0 -52 60zM432 1356q0 42 60 52q42 0 52 -60q0 -42 -60 -52q-42 0 -52 60zM576 1212q0 42 60 52q42 0 52 -60q0 -42 -60 -52q-42 0 -52 60zM576 1356q0 42 60 52q42 0 52 -60 q0 -42 -60 -52q-42 0 -52 60zM720 1212q0 42 60 52q42 0 52 -60q0 -42 -60 -52q-42 0 -52 60zM720 1356q0 42 60 52q42 0 52 -60q0 -42 -60 -52q-42 0 -52 60z" />
<glyph unicode="g" d="M0 204q0 42 60 52q42 0 52 -60q0 -42 -60 -52q-42 0 -52 60zM0 348q0 42 60 52q42 0 52 -60q0 -42 -60 -52q-42 0 -52 60zM0 492q0 42 60 52q42 0 52 -60q0 -42 -60 -52q-42 0 -52 60zM0 636q0 42 60 52q42 0 52 -60q0 -42 -60 -52q-42 0 -52 60zM0 780q0 42 60 52 q42 0 52 -60q0 -42 -60 -52q-42 0 -52 60zM0 924q0 42 60 52q42 0 52 -60q0 -42 -60 -52q-42 0 -52 60zM0 1068q0 42 60 52q42 0 52 -60q0 -42 -60 -52q-42 0 -52 60zM0 1212q0 42 60 52q42 0 52 -60q0 -42 -60 -52q-42 0 -52 60zM144 60q0 42 60 52q42 0 52 -60 q0 -42 -60 -52q-42 0 -52 60zM144 204q0 42 60 52q42 0 52 -60q0 -42 -60 -52q-42 0 -52 60zM144 348q0 42 60 52q42 0 52 -60q0 -42 -60 -52q-42 0 -52 60zM144 492q0 42 60 52q42 0 52 -60q0 -42 -60 -52q-42 0 -52 60zM144 636q0 42 60 52q42 0 52 -60q0 -42 -60 -52 q-42 0 -52 60zM144 780q0 42 60 52q42 0 52 -60q0 -42 -60 -52q-42 0 -52 60zM144 924q0 42 60 52q42 0 52 -60q0 -42 -60 -52q-42 0 -52 60zM144 1068q0 42 60 52q42 0 52 -60q0 -42 -60 -52q-42 0 -52 60zM144 1212q0 42 60 52q42 0 52 -60q0 -42 -60 -52q-42 0 -52 60z M144 1356q0 42 60 52q42 0 52 -60q0 -42 -60 -52q-42 0 -52 60zM288 60q0 42 60 52q42 0 52 -60q0 -42 -60 -52q-42 0 -52 60zM288 204q0 42 60 52q42 0 52 -60q0 -42 -60 -52q-42 0 -52 60zM288 1212q0 42 60 52q42 0 52 -60q0 -42 -60 -52q-42 0 -52 60zM288 1356 q0 42 60 52q42 0 52 -60q0 -42 -60 -52q-42 0 -52 60zM432 60q0 42 60 52q42 0 52 -60q0 -42 -60 -52q-42 0 -52 60zM432 204q0 42 60 52q42 0 52 -60q0 -42 -60 -52q-42 0 -52 60zM432 636q0 42 60 52q42 0 52 -60q0 -42 -60 -52q-42 0 -52 60zM432 780q0 42 60 52 q42 0 52 -60q0 -42 -60 -52q-42 0 -52 60zM432 1212q0 42 60 52q42 0 52 -60q0 -42 -60 -52q-42 0 -52 60zM432 1356q0 42 60 52q42 0 52 -60q0 -42 -60 -52q-42 0 -52 60zM576 60q0 42 60 52q42 0 52 -60q0 -42 -60 -52q-42 0 -52 60zM576 204q0 42 60 52q42 0 52 -60 q0 -42 -60 -52q-42 0 -52 60zM576 348q0 42 60 52q42 0 52 -60q0 -42 -60 -52q-42 0 -52 60zM576 492q0 42 60 52q42 0 52 -60q0 -42 -60 -52q-42 0 -52 60zM576 636q0 42 60 52q42 0 52 -60q0 -42 -60 -52q-42 0 -52 60zM576 780q0 42 60 52q42 0 52 -60q0 -42 -60 -52 q-42 0 -52 60zM576 1212q0 42 60 52q42 0 52 -60q0 -42 -60 -52q-42 0 -52 60zM576 1356q0 42 60 52q42 0 52 -60q0 -42 -60 -52q-42 0 -52 60zM720 204q0 42 60 52q42 0 52 -60q0 -42 -60 -52q-42 0 -52 60zM720 348q0 42 60 52q42 0 52 -60q0 -42 -60 -52q-42 0 -52 60z M720 492q0 42 60 52q42 0 52 -60q0 -42 -60 -52q-42 0 -52 60zM720 636q0 42 60 52q42 0 52 -60q0 -42 -60 -52q-42 0 -52 60zM720 780q0 42 60 52q42 0 52 -60q0 -42 -60 -52q-42 0 -52 60zM720 1212q0 42 60 52q42 0 52 -60q0 -42 -60 -52q-42 0 -52 60zM720 1356 q0 42 60 52q42 0 52 -60q0 -42 -60 -52q-42 0 -52 60z" />
<glyph unicode="h" d="M0 60q0 42 60 52q42 0 52 -60q0 -42 -60 -52q-42 0 -52 60zM0 204q0 42 60 52q42 0 52 -60q0 -42 -60 -52q-42 0 -52 60zM0 348q0 42 60 52q42 0 52 -60q0 -42 -60 -52q-42 0 -52 60zM0 492q0 42 60 52q42 0 52 -60q0 -42 -60 -52q-42 0 -52 60zM0 636q0 42 60 52 q42 0 52 -60q0 -42 -60 -52q-42 0 -52 60zM0 780q0 42 60 52q42 0 52 -60q0 -42 -60 -52q-42 0 -52 60zM0 924q0 42 60 52q42 0 52 -60q0 -42 -60 -52q-42 0 -52 60zM0 1068q0 42 60 52q42 0 52 -60q0 -42 -60 -52q-42 0 -52 60zM0 1212q0 42 60 52q42 0 52 -60 q0 -42 -60 -52q-42 0 -52 60zM0 1356q0 42 60 52q42 0 52 -60q0 -42 -60 -52q-42 0 -52 60zM144 60q0 42 60 52q42 0 52 -60q0 -42 -60 -52q-42 0 -52 60zM144 204q0 42 60 52q42 0 52 -60q0 -42 -60 -52q-42 0 -52 60zM144 348q0 42 60 52q42 0 52 -60q0 -42 -60 -52 q-42 0 -52 60zM144 492q0 42 60 52q42 0 52 -60q0 -42 -60 -52q-42 0 -52 60zM144 636q0 42 60 52q42 0 52 -60q0 -42 -60 -52q-42 0 -52 60zM144 780q0 42 60 52q42 0 52 -60q0 -42 -60 -52q-42 0 -52 60zM144 924q0 42 60 52q42 0 52 -60q0 -42 -60 -52q-42 0 -52 60z M144 1068q0 42 60 52q42 0 52 -60q0 -42 -60 -52q-42 0 -52 60zM144 1212q0 42 60 52q42 0 52 -60q0 -42 -60 -52q-42 0 -52 60zM144 1356q0 42 60 52q42 0 52 -60q0 -42 -60 -52q-42 0 -52 60zM288 636q0 42 60 52q42 0 52 -60q0 -42 -60 -52q-42 0 -52 60zM288 780 q0 42 60 52q42 0 52 -60q0 -42 -60 -52q-42 0 -52 60zM432 636q0 42 60 52q42 0 52 -60q0 -42 -60 -52q-42 0 -52 60zM432 780q0 42 60 52q42 0 52 -60q0 -42 -60 -52q-42 0 -52 60zM576 60q0 42 60 52q42 0 52 -60q0 -42 -60 -52q-42 0 -52 60zM576 204q0 42 60 52 q42 0 52 -60q0 -42 -60 -52q-42 0 -52 60zM576 348q0 42 60 52q42 0 52 -60q0 -42 -60 -52q-42 0 -52 60zM576 492q0 42 60 52q42 0 52 -60q0 -42 -60 -52q-42 0 -52 60zM576 636q0 42 60 52q42 0 52 -60q0 -42 -60 -52q-42 0 -52 60zM576 780q0 42 60 52q42 0 52 -60 q0 -42 -60 -52q-42 0 -52 60zM576 924q0 42 60 52q42 0 52 -60q0 -42 -60 -52q-42 0 -52 60zM576 1068q0 42 60 52q42 0 52 -60q0 -42 -60 -52q-42 0 -52 60zM576 1212q0 42 60 52q42 0 52 -60q0 -42 -60 -52q-42 0 -52 60zM576 1356q0 42 60 52q42 0 52 -60q0 -42 -60 -52 q-42 0 -52 60zM720 60q0 42 60 52q42 0 52 -60q0 -42 -60 -52q-42 0 -52 60zM720 204q0 42 60 52q42 0 52 -60q0 -42 -60 -52q-42 0 -52 60zM720 348q0 42 60 52q42 0 52 -60q0 -42 -60 -52q-42 0 -52 60zM720 492q0 42 60 52q42 0 52 -60q0 -42 -60 -52q-42 0 -52 60z M720 636q0 42 60 52q42 0 52 -60q0 -42 -60 -52q-42 0 -52 60zM720 780q0 42 60 52q42 0 52 -60q0 -42 -60 -52q-42 0 -52 60zM720 924q0 42 60 52q42 0 52 -60q0 -42 -60 -52q-42 0 -52 60zM720 1068q0 42 60 52q42 0 52 -60q0 -42 -60 -52q-42 0 -52 60zM720 1212 q0 42 60 52q42 0 52 -60q0 -42 -60 -52q-42 0 -52 60zM720 1356q0 42 60 52q42 0 52 -60q0 -42 -60 -52q-42 0 -52 60z" />
<glyph unicode="i" d="M0 60q0 42 60 52q42 0 52 -60q0 -42 -60 -52q-42 0 -52 60zM0 204q0 42 60 52q42 0 52 -60q0 -42 -60 -52q-42 0 -52 60zM0 1212q0 42 60 52q42 0 52 -60q0 -42 -60 -52q-42 0 -52 60zM0 1356q0 42 60 52q42 0 52 -60q0 -42 -60 -52q-42 0 -52 60zM144 60q0 42 60 52 q42 0 52 -60q0 -42 -60 -52q-42 0 -52 60zM144 204q0 42 60 52q42 0 52 -60q0 -42 -60 -52q-42 0 -52 60zM144 1212q0 42 60 52q42 0 52 -60q0 -42 -60 -52q-42 0 -52 60zM144 1356q0 42 60 52q42 0 52 -60q0 -42 -60 -52q-42 0 -52 60zM288 60q0 42 60 52q42 0 52 -60 q0 -42 -60 -52q-42 0 -52 60zM288 204q0 42 60 52q42 0 52 -60q0 -42 -60 -52q-42 0 -52 60zM288 348q0 42 60 52q42 0 52 -60q0 -42 -60 -52q-42 0 -52 60zM288 492q0 42 60 52q42 0 52 -60q0 -42 -60 -52q-42 0 -52 60zM288 636q0 42 60 52q42 0 52 -60q0 -42 -60 -52 q-42 0 -52 60zM288 780q0 42 60 52q42 0 52 -60q0 -42 -60 -52q-42 0 -52 60zM288 924q0 42 60 52q42 0 52 -60q0 -42 -60 -52q-42 0 -52 60zM288 1068q0 42 60 52q42 0 52 -60q0 -42 -60 -52q-42 0 -52 60zM288 1212q0 42 60 52q42 0 52 -60q0 -42 -60 -52q-42 0 -52 60z M288 1356q0 42 60 52q42 0 52 -60q0 -42 -60 -52q-42 0 -52 60zM432 60q0 42 60 52q42 0 52 -60q0 -42 -60 -52q-42 0 -52 60zM432 204q0 42 60 52q42 0 52 -60q0 -42 -60 -52q-42 0 -52 60zM432 348q0 42 60 52q42 0 52 -60q0 -42 -60 -52q-42 0 -52 60zM432 492 q0 42 60 52q42 0 52 -60q0 -42 -60 -52q-42 0 -52 60zM432 636q0 42 60 52q42 0 52 -60q0 -42 -60 -52q-42 0 -52 60zM432 780q0 42 60 52q42 0 52 -60q0 -42 -60 -52q-42 0 -52 60zM432 924q0 42 60 52q42 0 52 -60q0 -42 -60 -52q-42 0 -52 60zM432 1068q0 42 60 52 q42 0 52 -60q0 -42 -60 -52q-42 0 -52 60zM432 1212q0 42 60 52q42 0 52 -60q0 -42 -60 -52q-42 0 -52 60zM432 1356q0 42 60 52q42 0 52 -60q0 -42 -60 -52q-42 0 -52 60zM576 60q0 42 60 52q42 0 52 -60q0 -42 -60 -52q-42 0 -52 60zM576 204q0 42 60 52q42 0 52 -60 q0 -42 -60 -52q-42 0 -52 60zM576 1212q0 42 60 52q42 0 52 -60q0 -42 -60 -52q-42 0 -52 60zM576 1356q0 42 60 52q42 0 52 -60q0 -42 -60 -52q-42 0 -52 60zM720 60q0 42 60 52q42 0 52 -60q0 -42 -60 -52q-42 0 -52 60zM720 204q0 42 60 52q42 0 52 -60q0 -42 -60 -52 q-42 0 -52 60zM720 1212q0 42 60 52q42 0 52 -60q0 -42 -60 -52q-42 0 -52 60zM720 1356q0 42 60 52q42 0 52 -60q0 -42 -60 -52q-42 0 -52 60z" />
<glyph unicode="j" d="M0 204q0 42 60 52q42 0 52 -60q0 -42 -60 -52q-42 0 -52 60zM0 348q0 42 60 52q42 0 52 -60q0 -42 -60 -52q-42 0 -52 60zM0 492q0 42 60 52q42 0 52 -60q0 -42 -60 -52q-42 0 -52 60zM0 636q0 42 60 52q42 0 52 -60q0 -42 -60 -52q-42 0 -52 60zM144 60q0 42 60 52 q42 0 52 -60q0 -42 -60 -52q-42 0 -52 60zM144 204q0 42 60 52q42 0 52 -60q0 -42 -60 -52q-42 0 -52 60zM144 348q0 42 60 52q42 0 52 -60q0 -42 -60 -52q-42 0 -52 60zM144 492q0 42 60 52q42 0 52 -60q0 -42 -60 -52q-42 0 -52 60zM288 60q0 42 60 52q42 0 52 -60 q0 -42 -60 -52q-42 0 -52 60zM288 204q0 42 60 52q42 0 52 -60q0 -42 -60 -52q-42 0 -52 60zM432 60q0 42 60 52q42 0 52 -60q0 -42 -60 -52q-42 0 -52 60zM432 204q0 42 60 52q42 0 52 -60q0 -42 -60 -52q-42 0 -52 60zM576 60q0 42 60 52q42 0 52 -60q0 -42 -60 -52 q-42 0 -52 60zM576 204q0 42 60 52q42 0 52 -60q0 -42 -60 -52q-42 0 -52 60zM576 348q0 42 60 52q42 0 52 -60q0 -42 -60 -52q-42 0 -52 60zM576 492q0 42 60 52q42 0 52 -60q0 -42 -60 -52q-42 0 -52 60zM576 636q0 42 60 52q42 0 52 -60q0 -42 -60 -52q-42 0 -52 60z M576 780q0 42 60 52q42 0 52 -60q0 -42 -60 -52q-42 0 -52 60zM576 924q0 42 60 52q42 0 52 -60q0 -42 -60 -52q-42 0 -52 60zM576 1068q0 42 60 52q42 0 52 -60q0 -42 -60 -52q-42 0 -52 60zM576 1212q0 42 60 52q42 0 52 -60q0 -42 -60 -52q-42 0 -52 60zM576 1356 q0 42 60 52q42 0 52 -60q0 -42 -60 -52q-42 0 -52 60zM720 204q0 42 60 52q42 0 52 -60q0 -42 -60 -52q-42 0 -52 60zM720 348q0 42 60 52q42 0 52 -60q0 -42 -60 -52q-42 0 -52 60zM720 492q0 42 60 52q42 0 52 -60q0 -42 -60 -52q-42 0 -52 60zM720 636q0 42 60 52 q42 0 52 -60q0 -42 -60 -52q-42 0 -52 60zM720 780q0 42 60 52q42 0 52 -60q0 -42 -60 -52q-42 0 -52 60zM720 924q0 42 60 52q42 0 52 -60q0 -42 -60 -52q-42 0 -52 60zM720 1068q0 42 60 52q42 0 52 -60q0 -42 -60 -52q-42 0 -52 60zM720 1212q0 42 60 52q42 0 52 -60 q0 -42 -60 -52q-42 0 -52 60zM720 1356q0 42 60 52q42 0 52 -60q0 -42 -60 -52q-42 0 -52 60z" />
<glyph unicode="k" d="M0 60q0 42 60 52q42 0 52 -60q0 -42 -60 -52q-42 0 -52 60zM0 204q0 42 60 52q42 0 52 -60q0 -42 -60 -52q-42 0 -52 60zM0 348q0 42 60 52q42 0 52 -60q0 -42 -60 -52q-42 0 -52 60zM0 492q0 42 60 52q42 0 52 -60q0 -42 -60 -52q-42 0 -52 60zM0 636q0 42 60 52 q42 0 52 -60q0 -42 -60 -52q-42 0 -52 60zM0 780q0 42 60 52q42 0 52 -60q0 -42 -60 -52q-42 0 -52 60zM0 924q0 42 60 52q42 0 52 -60q0 -42 -60 -52q-42 0 -52 60zM0 1068q0 42 60 52q42 0 52 -60q0 -42 -60 -52q-42 0 -52 60zM0 1212q0 42 60 52q42 0 52 -60 q0 -42 -60 -52q-42 0 -52 60zM0 1356q0 42 60 52q42 0 52 -60q0 -42 -60 -52q-42 0 -52 60zM144 60q0 42 60 52q42 0 52 -60q0 -42 -60 -52q-42 0 -52 60zM144 204q0 42 60 52q42 0 52 -60q0 -42 -60 -52q-42 0 -52 60zM144 348q0 42 60 52q42 0 52 -60q0 -42 -60 -52 q-42 0 -52 60zM144 492q0 42 60 52q42 0 52 -60q0 -42 -60 -52q-42 0 -52 60zM144 636q0 42 60 52q42 0 52 -60q0 -42 -60 -52q-42 0 -52 60zM144 780q0 42 60 52q42 0 52 -60q0 -42 -60 -52q-42 0 -52 60zM144 924q0 42 60 52q42 0 52 -60q0 -42 -60 -52q-42 0 -52 60z M144 1068q0 42 60 52q42 0 52 -60q0 -42 -60 -52q-42 0 -52 60zM144 1212q0 42 60 52q42 0 52 -60q0 -42 -60 -52q-42 0 -52 60zM144 1356q0 42 60 52q42 0 52 -60q0 -42 -60 -52q-42 0 -52 60zM288 780q0 42 60 52q42 0 52 -60q0 -42 -60 -52q-42 0 -52 60zM288 924 q0 42 60 52q42 0 52 -60q0 -42 -60 -52q-42 0 -52 60zM288 1068q0 42 60 52q42 0 52 -60q0 -42 -60 -52q-42 0 -52 60zM432 636q0 42 60 52q42 0 52 -60q0 -42 -60 -52q-42 0 -52 60zM432 780q0 42 60 52q42 0 52 -60q0 -42 -60 -52q-42 0 -52 60zM432 1068q0 42 60 52 q42 0 52 -60q0 -42 -60 -52q-42 0 -52 60zM432 1212q0 42 60 52q42 0 52 -60q0 -42 -60 -52q-42 0 -52 60zM576 60q0 42 60 52q42 0 52 -60q0 -42 -60 -52q-42 0 -52 60zM576 204q0 42 60 52q42 0 52 -60q0 -42 -60 -52q-42 0 -52 60zM576 348q0 42 60 52q42 0 52 -60 q0 -42 -60 -52q-42 0 -52 60zM576 492q0 42 60 52q42 0 52 -60q0 -42 -60 -52q-42 0 -52 60zM576 636q0 42 60 52q42 0 52 -60q0 -42 -60 -52q-42 0 -52 60zM576 1212q0 42 60 52q42 0 52 -60q0 -42 -60 -52q-42 0 -52 60zM576 1356q0 42 60 52q42 0 52 -60q0 -42 -60 -52 q-42 0 -52 60zM720 60q0 42 60 52q42 0 52 -60q0 -42 -60 -52q-42 0 -52 60zM720 204q0 42 60 52q42 0 52 -60q0 -42 -60 -52q-42 0 -52 60zM720 348q0 42 60 52q42 0 52 -60q0 -42 -60 -52q-42 0 -52 60zM720 492q0 42 60 52q42 0 52 -60q0 -42 -60 -52q-42 0 -52 60z M720 1356q0 42 60 52q42 0 52 -60q0 -42 -60 -52q-42 0 -52 60z" />
<glyph unicode="l" d="M0 60q0 42 60 52q42 0 52 -60q0 -42 -60 -52q-42 0 -52 60zM0 204q0 42 60 52q42 0 52 -60q0 -42 -60 -52q-42 0 -52 60zM0 348q0 42 60 52q42 0 52 -60q0 -42 -60 -52q-42 0 -52 60zM0 492q0 42 60 52q42 0 52 -60q0 -42 -60 -52q-42 0 -52 60zM0 636q0 42 60 52 q42 0 52 -60q0 -42 -60 -52q-42 0 -52 60zM0 780q0 42 60 52q42 0 52 -60q0 -42 -60 -52q-42 0 -52 60zM0 924q0 42 60 52q42 0 52 -60q0 -42 -60 -52q-42 0 -52 60zM0 1068q0 42 60 52q42 0 52 -60q0 -42 -60 -52q-42 0 -52 60zM0 1212q0 42 60 52q42 0 52 -60 q0 -42 -60 -52q-42 0 -52 60zM0 1356q0 42 60 52q42 0 52 -60q0 -42 -60 -52q-42 0 -52 60zM144 60q0 42 60 52q42 0 52 -60q0 -42 -60 -52q-42 0 -52 60zM144 204q0 42 60 52q42 0 52 -60q0 -42 -60 -52q-42 0 -52 60zM144 348q0 42 60 52q42 0 52 -60q0 -42 -60 -52 q-42 0 -52 60zM144 492q0 42 60 52q42 0 52 -60q0 -42 -60 -52q-42 0 -52 60zM144 636q0 42 60 52q42 0 52 -60q0 -42 -60 -52q-42 0 -52 60zM144 780q0 42 60 52q42 0 52 -60q0 -42 -60 -52q-42 0 -52 60zM144 924q0 42 60 52q42 0 52 -60q0 -42 -60 -52q-42 0 -52 60z M144 1068q0 42 60 52q42 0 52 -60q0 -42 -60 -52q-42 0 -52 60zM144 1212q0 42 60 52q42 0 52 -60q0 -42 -60 -52q-42 0 -52 60zM144 1356q0 42 60 52q42 0 52 -60q0 -42 -60 -52q-42 0 -52 60zM288 60q0 42 60 52q42 0 52 -60q0 -42 -60 -52q-42 0 -52 60zM288 204 q0 42 60 52q42 0 52 -60q0 -42 -60 -52q-42 0 -52 60zM432 60q0 42 60 52q42 0 52 -60q0 -42 -60 -52q-42 0 -52 60zM432 204q0 42 60 52q42 0 52 -60q0 -42 -60 -52q-42 0 -52 60zM576 60q0 42 60 52q42 0 52 -60q0 -42 -60 -52q-42 0 -52 60zM576 204q0 42 60 52 q42 0 52 -60q0 -42 -60 -52q-42 0 -52 60zM720 60q0 42 60 52q42 0 52 -60q0 -42 -60 -52q-42 0 -52 60zM720 204q0 42 60 52q42 0 52 -60q0 -42 -60 -52q-42 0 -52 60z" />
<glyph unicode="m" horiz-adv-x="1101" d="M0 60q0 42 60 52q42 0 52 -60q0 -42 -60 -52q-42 0 -52 60zM0 204q0 42 60 52q42 0 52 -60q0 -42 -60 -52q-42 0 -52 60zM0 348q0 42 60 52q42 0 52 -60q0 -42 -60 -52q-42 0 -52 60zM0 492q0 42 60 52q42 0 52 -60q0 -42 -60 -52q-42 0 -52 60zM0 636q0 42 60 52 q42 0 52 -60q0 -42 -60 -52q-42 0 -52 60zM0 780q0 42 60 52q42 0 52 -60q0 -42 -60 -52q-42 0 -52 60zM0 924q0 42 60 52q42 0 52 -60q0 -42 -60 -52q-42 0 -52 60zM0 1068q0 42 60 52q42 0 52 -60q0 -42 -60 -52q-42 0 -52 60zM0 1212q0 42 60 52q42 0 52 -60 q0 -42 -60 -52q-42 0 -52 60zM0 1356q0 42 60 52q42 0 52 -60q0 -42 -60 -52q-42 0 -52 60zM144 60q0 42 60 52q42 0 52 -60q0 -42 -60 -52q-42 0 -52 60zM144 204q0 42 60 52q42 0 52 -60q0 -42 -60 -52q-42 0 -52 60zM144 348q0 42 60 52q42 0 52 -60q0 -42 -60 -52 q-42 0 -52 60zM144 492q0 42 60 52q42 0 52 -60q0 -42 -60 -52q-42 0 -52 60zM144 636q0 42 60 52q42 0 52 -60q0 -42 -60 -52q-42 0 -52 60zM144 780q0 42 60 52q42 0 52 -60q0 -42 -60 -52q-42 0 -52 60zM144 924q0 42 60 52q42 0 52 -60q0 -42 -60 -52q-42 0 -52 60z M144 1068q0 42 60 52q42 0 52 -60q0 -42 -60 -52q-42 0 -52 60zM144 1212q0 42 60 52q42 0 52 -60q0 -42 -60 -52q-42 0 -52 60zM288 924q0 42 60 52q42 0 52 -60q0 -42 -60 -52q-42 0 -52 60zM288 1068q0 42 60 52q42 0 52 -60q0 -42 -60 -52q-42 0 -52 60zM436 780 q10 48 56 48q48 -10 48 -56q-10 -48 -56 -48q-48 10 -48 56zM436 924q10 48 56 48q48 -10 48 -56q-10 -48 -56 -48q-48 10 -48 56zM580 924q10 48 56 48q48 -10 48 -56q-10 -48 -56 -48q-48 10 -48 56zM580 1068q10 48 56 48q48 -10 48 -56q-10 -48 -56 -48q-48 10 -48 56z M724 60q10 48 56 48q48 -10 48 -56q-10 -48 -56 -48q-48 10 -48 56zM724 204q10 48 56 48q48 -10 48 -56q-10 -48 -56 -48q-48 10 -48 56zM724 348q10 48 56 48q48 -10 48 -56q-10 -48 -56 -48q-48 10 -48 56zM724 492q10 48 56 48q48 -10 48 -56q-10 -48 -56 -48 q-48 10 -48 56zM724 636q10 48 56 48q48 -10 48 -56q-10 -48 -56 -48q-48 10 -48 56zM724 780q10 48 56 48q48 -10 48 -56q-10 -48 -56 -48q-48 10 -48 56zM724 924q10 48 56 48q48 -10 48 -56q-10 -48 -56 -48q-48 10 -48 56zM724 1068q10 48 56 48q48 -10 48 -56 q-10 -48 -56 -48q-48 10 -48 56zM724 1212q10 48 56 48q48 -10 48 -56q-10 -48 -56 -48q-48 10 -48 56zM868 60q10 48 56 48q48 -10 48 -56q-10 -48 -56 -48q-48 10 -48 56zM868 204q10 48 56 48q48 -10 48 -56q-10 -48 -56 -48q-48 10 -48 56zM868 348q10 48 56 48 q48 -10 48 -56q-10 -48 -56 -48q-48 10 -48 56zM868 492q10 48 56 48q48 -10 48 -56q-10 -48 -56 -48q-48 10 -48 56zM868 636q10 48 56 48q48 -10 48 -56q-10 -48 -56 -48q-48 10 -48 56zM868 780q10 48 56 48q48 -10 48 -56q-10 -48 -56 -48q-48 10 -48 56zM868 924 q10 48 56 48q48 -10 48 -56q-10 -48 -56 -48q-48 10 -48 56zM868 1068q10 48 56 48q48 -10 48 -56q-10 -48 -56 -48q-48 10 -48 56zM868 1212q10 48 56 48q48 -10 48 -56q-10 -48 -56 -48q-48 10 -48 56zM868 1356q10 48 56 48q48 -10 48 -56q-10 -48 -56 -48q-48 10 -48 56 z" />
<glyph unicode="n" d="M0 60q0 42 60 52q42 0 52 -60q0 -42 -60 -52q-42 0 -52 60zM0 204q0 42 60 52q42 0 52 -60q0 -42 -60 -52q-42 0 -52 60zM0 348q0 42 60 52q42 0 52 -60q0 -42 -60 -52q-42 0 -52 60zM0 492q0 42 60 52q42 0 52 -60q0 -42 -60 -52q-42 0 -52 60zM0 636q0 42 60 52 q42 0 52 -60q0 -42 -60 -52q-42 0 -52 60zM0 780q0 42 60 52q42 0 52 -60q0 -42 -60 -52q-42 0 -52 60zM0 924q0 42 60 52q42 0 52 -60q0 -42 -60 -52q-42 0 -52 60zM0 1068q0 42 60 52q42 0 52 -60q0 -42 -60 -52q-42 0 -52 60zM0 1212q0 42 60 52q42 0 52 -60 q0 -42 -60 -52q-42 0 -52 60zM0 1356q0 42 60 52q42 0 52 -60q0 -42 -60 -52q-42 0 -52 60zM144 60q0 42 60 52q42 0 52 -60q0 -42 -60 -52q-42 0 -52 60zM144 204q0 42 60 52q42 0 52 -60q0 -42 -60 -52q-42 0 -52 60zM144 348q0 42 60 52q42 0 52 -60q0 -42 -60 -52 q-42 0 -52 60zM144 492q0 42 60 52q42 0 52 -60q0 -42 -60 -52q-42 0 -52 60zM144 636q0 42 60 52q42 0 52 -60q0 -42 -60 -52q-42 0 -52 60zM144 780q0 42 60 52q42 0 52 -60q0 -42 -60 -52q-42 0 -52 60zM144 924q0 42 60 52q42 0 52 -60q0 -42 -60 -52q-42 0 -52 60z M144 1068q0 42 60 52q42 0 52 -60q0 -42 -60 -52q-42 0 -52 60zM144 1212q0 42 60 52q42 0 52 -60q0 -42 -60 -52q-42 0 -52 60zM288 924q0 42 60 52q42 0 52 -60q0 -42 -60 -52q-42 0 -52 60zM288 1068q0 42 60 52q42 0 52 -60q0 -42 -60 -52q-42 0 -52 60zM432 780 q0 42 60 52q42 0 52 -60q0 -42 -60 -52q-42 0 -52 60zM432 924q0 42 60 52q42 0 52 -60q0 -42 -60 -52q-42 0 -52 60zM576 60q0 42 60 52q42 0 52 -60q0 -42 -60 -52q-42 0 -52 60zM576 204q0 42 60 52q42 0 52 -60q0 -42 -60 -52q-42 0 -52 60zM576 348q0 42 60 52 q42 0 52 -60q0 -42 -60 -52q-42 0 -52 60zM576 492q0 42 60 52q42 0 52 -60q0 -42 -60 -52q-42 0 -52 60zM576 636q0 42 60 52q42 0 52 -60q0 -42 -60 -52q-42 0 -52 60zM576 780q0 42 60 52q42 0 52 -60q0 -42 -60 -52q-42 0 -52 60zM576 924q0 42 60 52q42 0 52 -60 q0 -42 -60 -52q-42 0 -52 60zM576 1068q0 42 60 52q42 0 52 -60q0 -42 -60 -52q-42 0 -52 60zM576 1212q0 42 60 52q42 0 52 -60q0 -42 -60 -52q-42 0 -52 60zM576 1356q0 42 60 52q42 0 52 -60q0 -42 -60 -52q-42 0 -52 60zM720 60q0 42 60 52q42 0 52 -60q0 -42 -60 -52 q-42 0 -52 60zM720 204q0 42 60 52q42 0 52 -60q0 -42 -60 -52q-42 0 -52 60zM720 348q0 42 60 52q42 0 52 -60q0 -42 -60 -52q-42 0 -52 60zM720 492q0 42 60 52q42 0 52 -60q0 -42 -60 -52q-42 0 -52 60zM720 636q0 42 60 52q42 0 52 -60q0 -42 -60 -52q-42 0 -52 60z M720 780q0 42 60 52q42 0 52 -60q0 -42 -60 -52q-42 0 -52 60zM720 924q0 42 60 52q42 0 52 -60q0 -42 -60 -52q-42 0 -52 60zM720 1068q0 42 60 52q42 0 52 -60q0 -42 -60 -52q-42 0 -52 60zM720 1212q0 42 60 52q42 0 52 -60q0 -42 -60 -52q-42 0 -52 60zM720 1356 q0 42 60 52q42 0 52 -60q0 -42 -60 -52q-42 0 -52 60z" />
<glyph unicode="o" d="M0 204q0 42 60 52q42 0 52 -60q0 -42 -60 -52q-42 0 -52 60zM0 348q0 42 60 52q42 0 52 -60q0 -42 -60 -52q-42 0 -52 60zM0 492q0 42 60 52q42 0 52 -60q0 -42 -60 -52q-42 0 -52 60zM0 636q0 42 60 52q42 0 52 -60q0 -42 -60 -52q-42 0 -52 60zM0 780q0 42 60 52 q42 0 52 -60q0 -42 -60 -52q-42 0 -52 60zM0 924q0 42 60 52q42 0 52 -60q0 -42 -60 -52q-42 0 -52 60zM0 1068q0 42 60 52q42 0 52 -60q0 -42 -60 -52q-42 0 -52 60zM0 1212q0 42 60 52q42 0 52 -60q0 -42 -60 -52q-42 0 -52 60zM144 60q0 42 60 52q42 0 52 -60 q0 -42 -60 -52q-42 0 -52 60zM144 204q0 42 60 52q42 0 52 -60q0 -42 -60 -52q-42 0 -52 60zM144 348q0 42 60 52q42 0 52 -60q0 -42 -60 -52q-42 0 -52 60zM144 492q0 42 60 52q42 0 52 -60q0 -42 -60 -52q-42 0 -52 60zM144 636q0 42 60 52q42 0 52 -60q0 -42 -60 -52 q-42 0 -52 60zM144 780q0 42 60 52q42 0 52 -60q0 -42 -60 -52q-42 0 -52 60zM144 924q0 42 60 52q42 0 52 -60q0 -42 -60 -52q-42 0 -52 60zM144 1068q0 42 60 52q42 0 52 -60q0 -42 -60 -52q-42 0 -52 60zM144 1212q0 42 60 52q42 0 52 -60q0 -42 -60 -52q-42 0 -52 60z M144 1356q0 42 60 52q42 0 52 -60q0 -42 -60 -52q-42 0 -52 60zM288 60q0 42 60 52q42 0 52 -60q0 -42 -60 -52q-42 0 -52 60zM288 204q0 42 60 52q42 0 52 -60q0 -42 -60 -52q-42 0 -52 60zM288 1212q0 42 60 52q42 0 52 -60q0 -42 -60 -52q-42 0 -52 60zM288 1356 q0 42 60 52q42 0 52 -60q0 -42 -60 -52q-42 0 -52 60zM432 60q0 42 60 52q42 0 52 -60q0 -42 -60 -52q-42 0 -52 60zM432 204q0 42 60 52q42 0 52 -60q0 -42 -60 -52q-42 0 -52 60zM432 1212q0 42 60 52q42 0 52 -60q0 -42 -60 -52q-42 0 -52 60zM432 1356q0 42 60 52 q42 0 52 -60q0 -42 -60 -52q-42 0 -52 60zM576 60q0 42 60 52q42 0 52 -60q0 -42 -60 -52q-42 0 -52 60zM576 204q0 42 60 52q42 0 52 -60q0 -42 -60 -52q-42 0 -52 60zM576 348q0 42 60 52q42 0 52 -60q0 -42 -60 -52q-42 0 -52 60zM576 492q0 42 60 52q42 0 52 -60 q0 -42 -60 -52q-42 0 -52 60zM576 636q0 42 60 52q42 0 52 -60q0 -42 -60 -52q-42 0 -52 60zM576 780q0 42 60 52q42 0 52 -60q0 -42 -60 -52q-42 0 -52 60zM576 924q0 42 60 52q42 0 52 -60q0 -42 -60 -52q-42 0 -52 60zM576 1068q0 42 60 52q42 0 52 -60q0 -42 -60 -52 q-42 0 -52 60zM576 1212q0 42 60 52q42 0 52 -60q0 -42 -60 -52q-42 0 -52 60zM576 1356q0 42 60 52q42 0 52 -60q0 -42 -60 -52q-42 0 -52 60zM720 204q0 42 60 52q42 0 52 -60q0 -42 -60 -52q-42 0 -52 60zM720 348q0 42 60 52q42 0 52 -60q0 -42 -60 -52q-42 0 -52 60z M720 492q0 42 60 52q42 0 52 -60q0 -42 -60 -52q-42 0 -52 60zM720 636q0 42 60 52q42 0 52 -60q0 -42 -60 -52q-42 0 -52 60zM720 780q0 42 60 52q42 0 52 -60q0 -42 -60 -52q-42 0 -52 60zM720 924q0 42 60 52q42 0 52 -60q0 -42 -60 -52q-42 0 -52 60zM720 1068 q0 42 60 52q42 0 52 -60q0 -42 -60 -52q-42 0 -52 60zM720 1212q0 42 60 52q42 0 52 -60q0 -42 -60 -52q-42 0 -52 60z" />
<glyph unicode="p" d="M0 60q0 42 60 52q42 0 52 -60q0 -42 -60 -52q-42 0 -52 60zM0 204q0 42 60 52q42 0 52 -60q0 -42 -60 -52q-42 0 -52 60zM0 348q0 42 60 52q42 0 52 -60q0 -42 -60 -52q-42 0 -52 60zM0 492q0 42 60 52q42 0 52 -60q0 -42 -60 -52q-42 0 -52 60zM0 636q0 42 60 52 q42 0 52 -60q0 -42 -60 -52q-42 0 -52 60zM0 780q0 42 60 52q42 0 52 -60q0 -42 -60 -52q-42 0 -52 60zM0 924q0 42 60 52q42 0 52 -60q0 -42 -60 -52q-42 0 -52 60zM0 1068q0 42 60 52q42 0 52 -60q0 -42 -60 -52q-42 0 -52 60zM0 1212q0 42 60 52q42 0 52 -60 q0 -42 -60 -52q-42 0 -52 60zM0 1356q0 42 60 52q42 0 52 -60q0 -42 -60 -52q-42 0 -52 60zM144 60q0 42 60 52q42 0 52 -60q0 -42 -60 -52q-42 0 -52 60zM144 204q0 42 60 52q42 0 52 -60q0 -42 -60 -52q-42 0 -52 60zM144 348q0 42 60 52q42 0 52 -60q0 -42 -60 -52 q-42 0 -52 60zM144 492q0 42 60 52q42 0 52 -60q0 -42 -60 -52q-42 0 -52 60zM144 636q0 42 60 52q42 0 52 -60q0 -42 -60 -52q-42 0 -52 60zM144 780q0 42 60 52q42 0 52 -60q0 -42 -60 -52q-42 0 -52 60zM144 924q0 42 60 52q42 0 52 -60q0 -42 -60 -52q-42 0 -52 60z M144 1068q0 42 60 52q42 0 52 -60q0 -42 -60 -52q-42 0 -52 60zM144 1212q0 42 60 52q42 0 52 -60q0 -42 -60 -52q-42 0 -52 60zM144 1356q0 42 60 52q42 0 52 -60q0 -42 -60 -52q-42 0 -52 60zM288 636q0 42 60 52q42 0 52 -60q0 -42 -60 -52q-42 0 -52 60zM288 780 q0 42 60 52q42 0 52 -60q0 -42 -60 -52q-42 0 -52 60zM288 1212q0 42 60 52q42 0 52 -60q0 -42 -60 -52q-42 0 -52 60zM288 1356q0 42 60 52q42 0 52 -60q0 -42 -60 -52q-42 0 -52 60zM432 636q0 42 60 52q42 0 52 -60q0 -42 -60 -52q-42 0 -52 60zM432 780q0 42 60 52 q42 0 52 -60q0 -42 -60 -52q-42 0 -52 60zM432 1212q0 42 60 52q42 0 52 -60q0 -42 -60 -52q-42 0 -52 60zM432 1356q0 42 60 52q42 0 52 -60q0 -42 -60 -52q-42 0 -52 60zM576 636q0 42 60 52q42 0 52 -60q0 -42 -60 -52q-42 0 -52 60zM576 780q0 42 60 52q42 0 52 -60 q0 -42 -60 -52q-42 0 -52 60zM576 924q0 42 60 52q42 0 52 -60q0 -42 -60 -52q-42 0 -52 60zM576 1068q0 42 60 52q42 0 52 -60q0 -42 -60 -52q-42 0 -52 60zM576 1212q0 42 60 52q42 0 52 -60q0 -42 -60 -52q-42 0 -52 60zM576 1356q0 42 60 52q42 0 52 -60q0 -42 -60 -52 q-42 0 -52 60zM720 780q0 42 60 52q42 0 52 -60q0 -42 -60 -52q-42 0 -52 60zM720 924q0 42 60 52q42 0 52 -60q0 -42 -60 -52q-42 0 -52 60zM720 1068q0 42 60 52q42 0 52 -60q0 -42 -60 -52q-42 0 -52 60zM720 1212q0 42 60 52q42 0 52 -60q0 -42 -60 -52q-42 0 -52 60z " />
<glyph unicode="q" d="M0 202q0 42 60 52q42 0 52 -60q0 -42 -60 -52q-42 0 -52 60zM0 346q0 42 60 52q42 0 52 -60q0 -42 -60 -52q-42 0 -52 60zM0 490q0 42 60 52q42 0 52 -60q0 -42 -60 -52q-42 0 -52 60zM0 634q0 42 60 52q42 0 52 -60q0 -42 -60 -52q-42 0 -52 60zM0 778q0 42 60 52 q42 0 52 -60q0 -42 -60 -52q-42 0 -52 60zM0 922q0 42 60 52q42 0 52 -60q0 -42 -60 -52q-42 0 -52 60zM0 1066q0 42 60 52q42 0 52 -60q0 -42 -60 -52q-42 0 -52 60zM0 1210q0 42 60 52q42 0 52 -60q0 -42 -60 -52q-42 0 -52 60zM144 58q0 42 60 52q42 0 52 -60 q0 -42 -60 -52q-42 0 -52 60zM144 202q0 42 60 52q42 0 52 -60q0 -42 -60 -52q-42 0 -52 60zM144 346q0 42 60 52q42 0 52 -60q0 -42 -60 -52q-42 0 -52 60zM144 490q0 42 60 52q42 0 52 -60q0 -42 -60 -52q-42 0 -52 60zM144 634q0 42 60 52q42 0 52 -60q0 -42 -60 -52 q-42 0 -52 60zM144 778q0 42 60 52q42 0 52 -60q0 -42 -60 -52q-42 0 -52 60zM144 922q0 42 60 52q42 0 52 -60q0 -42 -60 -52q-42 0 -52 60zM144 1066q0 42 60 52q42 0 52 -60q0 -42 -60 -52q-42 0 -52 60zM144 1210q0 42 60 52q42 0 52 -60q0 -42 -60 -52q-42 0 -52 60z M144 1354q0 42 60 52q42 0 52 -60q0 -42 -60 -52q-42 0 -52 60zM288 58q0 42 60 52q42 0 52 -60q0 -42 -60 -52q-42 0 -52 60zM288 -86q0 42 60 52q42 0 52 -60q0 -42 -60 -52q-42 0 -52 60zM288 202q0 42 60 52q42 0 52 -60q0 -42 -60 -52q-42 0 -52 60zM288 -230 q0 42 60 52q42 0 52 -60q0 -42 -60 -52q-42 0 -52 60zM288 1210q0 42 60 52q42 0 52 -60q0 -42 -60 -52q-42 0 -52 60zM288 1354q0 42 60 52q42 0 52 -60q0 -42 -60 -52q-42 0 -52 60zM432 58q0 42 60 52q42 0 52 -60q0 -42 -60 -52q-42 0 -52 60zM432 -86q0 42 60 52 q42 0 52 -60q0 -42 -60 -52q-42 0 -52 60zM432 202q0 42 60 52q42 0 52 -60q0 -42 -60 -52q-42 0 -52 60zM432 -230q0 42 60 52q42 0 52 -60q0 -42 -60 -52q-42 0 -52 60zM432 1210q0 42 60 52q42 0 52 -60q0 -42 -60 -52q-42 0 -52 60zM432 1354q0 42 60 52q42 0 52 -60 q0 -42 -60 -52q-42 0 -52 60zM576 58q0 42 60 52q42 0 52 -60q0 -42 -60 -52q-42 0 -52 60zM576 202q0 42 60 52q42 0 52 -60q0 -42 -60 -52q-42 0 -52 60zM576 346q0 42 60 52q42 0 52 -60q0 -42 -60 -52q-42 0 -52 60zM576 490q0 42 60 52q42 0 52 -60q0 -42 -60 -52 q-42 0 -52 60zM576 634q0 42 60 52q42 0 52 -60q0 -42 -60 -52q-42 0 -52 60zM576 778q0 42 60 52q42 0 52 -60q0 -42 -60 -52q-42 0 -52 60zM576 922q0 42 60 52q42 0 52 -60q0 -42 -60 -52q-42 0 -52 60zM576 1066q0 42 60 52q42 0 52 -60q0 -42 -60 -52q-42 0 -52 60z M576 1210q0 42 60 52q42 0 52 -60q0 -42 -60 -52q-42 0 -52 60zM576 1354q0 42 60 52q42 0 52 -60q0 -42 -60 -52q-42 0 -52 60zM720 202q0 42 60 52q42 0 52 -60q0 -42 -60 -52q-42 0 -52 60zM720 346q0 42 60 52q42 0 52 -60q0 -42 -60 -52q-42 0 -52 60zM720 490 q0 42 60 52q42 0 52 -60q0 -42 -60 -52q-42 0 -52 60zM720 634q0 42 60 52q42 0 52 -60q0 -42 -60 -52q-42 0 -52 60zM720 778q0 42 60 52q42 0 52 -60q0 -42 -60 -52q-42 0 -52 60zM720 922q0 42 60 52q42 0 52 -60q0 -42 -60 -52q-42 0 -52 60zM720 1066q0 42 60 52 q42 0 52 -60q0 -42 -60 -52q-42 0 -52 60zM720 1210q0 42 60 52q42 0 52 -60q0 -42 -60 -52q-42 0 -52 60z" />
<glyph unicode="r" d="M0 60q0 42 60 52q42 0 52 -60q0 -42 -60 -52q-42 0 -52 60zM0 204q0 42 60 52q42 0 52 -60q0 -42 -60 -52q-42 0 -52 60zM0 348q0 42 60 52q42 0 52 -60q0 -42 -60 -52q-42 0 -52 60zM0 492q0 42 60 52q42 0 52 -60q0 -42 -60 -52q-42 0 -52 60zM0 636q0 42 60 52 q42 0 52 -60q0 -42 -60 -52q-42 0 -52 60zM0 780q0 42 60 52q42 0 52 -60q0 -42 -60 -52q-42 0 -52 60zM0 924q0 42 60 52q42 0 52 -60q0 -42 -60 -52q-42 0 -52 60zM0 1068q0 42 60 52q42 0 52 -60q0 -42 -60 -52q-42 0 -52 60zM0 1212q0 42 60 52q42 0 52 -60 q0 -42 -60 -52q-42 0 -52 60zM0 1356q0 42 60 52q42 0 52 -60q0 -42 -60 -52q-42 0 -52 60zM144 60q0 42 60 52q42 0 52 -60q0 -42 -60 -52q-42 0 -52 60zM144 204q0 42 60 52q42 0 52 -60q0 -42 -60 -52q-42 0 -52 60zM144 348q0 42 60 52q42 0 52 -60q0 -42 -60 -52 q-42 0 -52 60zM144 492q0 42 60 52q42 0 52 -60q0 -42 -60 -52q-42 0 -52 60zM144 636q0 42 60 52q42 0 52 -60q0 -42 -60 -52q-42 0 -52 60zM144 780q0 42 60 52q42 0 52 -60q0 -42 -60 -52q-42 0 -52 60zM144 924q0 42 60 52q42 0 52 -60q0 -42 -60 -52q-42 0 -52 60z M144 1068q0 42 60 52q42 0 52 -60q0 -42 -60 -52q-42 0 -52 60zM144 1212q0 42 60 52q42 0 52 -60q0 -42 -60 -52q-42 0 -52 60zM144 1356q0 42 60 52q42 0 52 -60q0 -42 -60 -52q-42 0 -52 60zM288 636q0 42 60 52q42 0 52 -60q0 -42 -60 -52q-42 0 -52 60zM288 780 q0 42 60 52q42 0 52 -60q0 -42 -60 -52q-42 0 -52 60zM288 1212q0 42 60 52q42 0 52 -60q0 -42 -60 -52q-42 0 -52 60zM288 1356q0 42 60 52q42 0 52 -60q0 -42 -60 -52q-42 0 -52 60zM432 636q0 42 60 52q42 0 52 -60q0 -42 -60 -52q-42 0 -52 60zM432 780q0 42 60 52 q42 0 52 -60q0 -42 -60 -52q-42 0 -52 60zM432 1212q0 42 60 52q42 0 52 -60q0 -42 -60 -52q-42 0 -52 60zM432 1356q0 42 60 52q42 0 52 -60q0 -42 -60 -52q-42 0 -52 60zM576 60q0 42 60 52q42 0 52 -60q0 -42 -60 -52q-42 0 -52 60zM576 204q0 42 60 52q42 0 52 -60 q0 -42 -60 -52q-42 0 -52 60zM576 348q0 42 60 52q42 0 52 -60q0 -42 -60 -52q-42 0 -52 60zM576 492q0 42 60 52q42 0 52 -60q0 -42 -60 -52q-42 0 -52 60zM576 636q0 42 60 52q42 0 52 -60q0 -42 -60 -52q-42 0 -52 60zM576 780q0 42 60 52q42 0 52 -60q0 -42 -60 -52 q-42 0 -52 60zM576 924q0 42 60 52q42 0 52 -60q0 -42 -60 -52q-42 0 -52 60zM576 1068q0 42 60 52q42 0 52 -60q0 -42 -60 -52q-42 0 -52 60zM576 1212q0 42 60 52q42 0 52 -60q0 -42 -60 -52q-42 0 -52 60zM576 1356q0 42 60 52q42 0 52 -60q0 -42 -60 -52q-42 0 -52 60z M720 60q0 42 60 52q42 0 52 -60q0 -42 -60 -52q-42 0 -52 60zM720 204q0 42 60 52q42 0 52 -60q0 -42 -60 -52q-42 0 -52 60zM720 348q0 42 60 52q42 0 52 -60q0 -42 -60 -52q-42 0 -52 60zM720 492q0 42 60 52q42 0 52 -60q0 -42 -60 -52q-42 0 -52 60zM720 780q0 42 60 52 q42 0 52 -60q0 -42 -60 -52q-42 0 -52 60zM720 924q0 42 60 52q42 0 52 -60q0 -42 -60 -52q-42 0 -52 60zM720 1068q0 42 60 52q42 0 52 -60q0 -42 -60 -52q-42 0 -52 60zM720 1212q0 42 60 52q42 0 52 -60q0 -42 -60 -52q-42 0 -52 60z" />
<glyph unicode="s" d="M0 60q0 42 60 52q42 0 52 -60q0 -42 -60 -52q-42 0 -52 60zM0 204q0 42 60 52q42 0 52 -60q0 -42 -60 -52q-42 0 -52 60zM0 780q0 42 60 52q42 0 52 -60q0 -42 -60 -52q-42 0 -52 60zM0 924q0 42 60 52q42 0 52 -60q0 -42 -60 -52q-42 0 -52 60zM0 1068q0 42 60 52 q42 0 52 -60q0 -42 -60 -52q-42 0 -52 60zM0 1212q0 42 60 52q42 0 52 -60q0 -42 -60 -52q-42 0 -52 60zM144 60q0 42 60 52q42 0 52 -60q0 -42 -60 -52q-42 0 -52 60zM144 204q0 42 60 52q42 0 52 -60q0 -42 -60 -52q-42 0 -52 60zM144 636q0 42 60 52q42 0 52 -60 q0 -42 -60 -52q-42 0 -52 60zM144 780q0 42 60 52q42 0 52 -60q0 -42 -60 -52q-42 0 -52 60zM144 924q0 42 60 52q42 0 52 -60q0 -42 -60 -52q-42 0 -52 60zM144 1068q0 42 60 52q42 0 52 -60q0 -42 -60 -52q-42 0 -52 60zM144 1212q0 42 60 52q42 0 52 -60q0 -42 -60 -52 q-42 0 -52 60zM144 1356q0 42 60 52q42 0 52 -60q0 -42 -60 -52q-42 0 -52 60zM288 60q0 42 60 52q42 0 52 -60q0 -42 -60 -52q-42 0 -52 60zM288 204q0 42 60 52q42 0 52 -60q0 -42 -60 -52q-42 0 -52 60zM288 636q0 42 60 52q42 0 52 -60q0 -42 -60 -52q-42 0 -52 60z M288 780q0 42 60 52q42 0 52 -60q0 -42 -60 -52q-42 0 -52 60zM288 1212q0 42 60 52q42 0 52 -60q0 -42 -60 -52q-42 0 -52 60zM288 1356q0 42 60 52q42 0 52 -60q0 -42 -60 -52q-42 0 -52 60zM432 60q0 42 60 52q42 0 52 -60q0 -42 -60 -52q-42 0 -52 60zM432 204 q0 42 60 52q42 0 52 -60q0 -42 -60 -52q-42 0 -52 60zM432 636q0 42 60 52q42 0 52 -60q0 -42 -60 -52q-42 0 -52 60zM432 780q0 42 60 52q42 0 52 -60q0 -42 -60 -52q-42 0 -52 60zM432 1212q0 42 60 52q42 0 52 -60q0 -42 -60 -52q-42 0 -52 60zM432 1356q0 42 60 52 q42 0 52 -60q0 -42 -60 -52q-42 0 -52 60zM576 60q0 42 60 52q42 0 52 -60q0 -42 -60 -52q-42 0 -52 60zM576 204q0 42 60 52q42 0 52 -60q0 -42 -60 -52q-42 0 -52 60zM576 348q0 42 60 52q42 0 52 -60q0 -42 -60 -52q-42 0 -52 60zM576 492q0 42 60 52q42 0 52 -60 q0 -42 -60 -52q-42 0 -52 60zM576 636q0 42 60 52q42 0 52 -60q0 -42 -60 -52q-42 0 -52 60zM576 780q0 42 60 52q42 0 52 -60q0 -42 -60 -52q-42 0 -52 60zM576 1212q0 42 60 52q42 0 52 -60q0 -42 -60 -52q-42 0 -52 60zM576 1356q0 42 60 52q42 0 52 -60q0 -42 -60 -52 q-42 0 -52 60zM720 204q0 42 60 52q42 0 52 -60q0 -42 -60 -52q-42 0 -52 60zM720 348q0 42 60 52q42 0 52 -60q0 -42 -60 -52q-42 0 -52 60zM720 492q0 42 60 52q42 0 52 -60q0 -42 -60 -52q-42 0 -52 60zM720 636q0 42 60 52q42 0 52 -60q0 -42 -60 -52q-42 0 -52 60z M720 1212q0 42 60 52q42 0 52 -60q0 -42 -60 -52q-42 0 -52 60zM720 1356q0 42 60 52q42 0 52 -60q0 -42 -60 -52q-42 0 -52 60z" />
<glyph unicode="t" d="M0 1212q0 42 60 52q42 0 52 -60q0 -42 -60 -52q-42 0 -52 60zM0 1356q0 42 60 52q42 0 52 -60q0 -42 -60 -52q-42 0 -52 60zM144 1212q0 42 60 52q42 0 52 -60q0 -42 -60 -52q-42 0 -52 60zM144 1356q0 42 60 52q42 0 52 -60q0 -42 -60 -52q-42 0 -52 60zM288 60 q0 42 60 52q42 0 52 -60q0 -42 -60 -52q-42 0 -52 60zM288 204q0 42 60 52q42 0 52 -60q0 -42 -60 -52q-42 0 -52 60zM288 348q0 42 60 52q42 0 52 -60q0 -42 -60 -52q-42 0 -52 60zM288 492q0 42 60 52q42 0 52 -60q0 -42 -60 -52q-42 0 -52 60zM288 636q0 42 60 52 q42 0 52 -60q0 -42 -60 -52q-42 0 -52 60zM288 780q0 42 60 52q42 0 52 -60q0 -42 -60 -52q-42 0 -52 60zM288 924q0 42 60 52q42 0 52 -60q0 -42 -60 -52q-42 0 -52 60zM288 1068q0 42 60 52q42 0 52 -60q0 -42 -60 -52q-42 0 -52 60zM288 1212q0 42 60 52q42 0 52 -60 q0 -42 -60 -52q-42 0 -52 60zM288 1356q0 42 60 52q42 0 52 -60q0 -42 -60 -52q-42 0 -52 60zM432 60q0 42 60 52q42 0 52 -60q0 -42 -60 -52q-42 0 -52 60zM432 204q0 42 60 52q42 0 52 -60q0 -42 -60 -52q-42 0 -52 60zM432 348q0 42 60 52q42 0 52 -60q0 -42 -60 -52 q-42 0 -52 60zM432 492q0 42 60 52q42 0 52 -60q0 -42 -60 -52q-42 0 -52 60zM432 636q0 42 60 52q42 0 52 -60q0 -42 -60 -52q-42 0 -52 60zM432 780q0 42 60 52q42 0 52 -60q0 -42 -60 -52q-42 0 -52 60zM432 924q0 42 60 52q42 0 52 -60q0 -42 -60 -52q-42 0 -52 60z M432 1068q0 42 60 52q42 0 52 -60q0 -42 -60 -52q-42 0 -52 60zM432 1212q0 42 60 52q42 0 52 -60q0 -42 -60 -52q-42 0 -52 60zM432 1356q0 42 60 52q42 0 52 -60q0 -42 -60 -52q-42 0 -52 60zM576 1212q0 42 60 52q42 0 52 -60q0 -42 -60 -52q-42 0 -52 60zM576 1356 q0 42 60 52q42 0 52 -60q0 -42 -60 -52q-42 0 -52 60zM720 1212q0 42 60 52q42 0 52 -60q0 -42 -60 -52q-42 0 -52 60zM720 1356q0 42 60 52q42 0 52 -60q0 -42 -60 -52q-42 0 -52 60z" />
<glyph unicode="u" d="M0 204q0 42 60 52q42 0 52 -60q0 -42 -60 -52q-42 0 -52 60zM0 348q0 42 60 52q42 0 52 -60q0 -42 -60 -52q-42 0 -52 60zM0 492q0 42 60 52q42 0 52 -60q0 -42 -60 -52q-42 0 -52 60zM0 636q0 42 60 52q42 0 52 -60q0 -42 -60 -52q-42 0 -52 60zM0 780q0 42 60 52 q42 0 52 -60q0 -42 -60 -52q-42 0 -52 60zM0 924q0 42 60 52q42 0 52 -60q0 -42 -60 -52q-42 0 -52 60zM0 1068q0 42 60 52q42 0 52 -60q0 -42 -60 -52q-42 0 -52 60zM0 1212q0 42 60 52q42 0 52 -60q0 -42 -60 -52q-42 0 -52 60zM0 1356q0 42 60 52q42 0 52 -60 q0 -42 -60 -52q-42 0 -52 60zM144 60q0 42 60 52q42 0 52 -60q0 -42 -60 -52q-42 0 -52 60zM144 204q0 42 60 52q42 0 52 -60q0 -42 -60 -52q-42 0 -52 60zM144 348q0 42 60 52q42 0 52 -60q0 -42 -60 -52q-42 0 -52 60zM144 492q0 42 60 52q42 0 52 -60q0 -42 -60 -52 q-42 0 -52 60zM144 636q0 42 60 52q42 0 52 -60q0 -42 -60 -52q-42 0 -52 60zM144 780q0 42 60 52q42 0 52 -60q0 -42 -60 -52q-42 0 -52 60zM144 924q0 42 60 52q42 0 52 -60q0 -42 -60 -52q-42 0 -52 60zM144 1068q0 42 60 52q42 0 52 -60q0 -42 -60 -52q-42 0 -52 60z M144 1212q0 42 60 52q42 0 52 -60q0 -42 -60 -52q-42 0 -52 60zM144 1356q0 42 60 52q42 0 52 -60q0 -42 -60 -52q-42 0 -52 60zM288 60q0 42 60 52q42 0 52 -60q0 -42 -60 -52q-42 0 -52 60zM288 204q0 42 60 52q42 0 52 -60q0 -42 -60 -52q-42 0 -52 60zM432 60 q0 42 60 52q42 0 52 -60q0 -42 -60 -52q-42 0 -52 60zM432 204q0 42 60 52q42 0 52 -60q0 -42 -60 -52q-42 0 -52 60zM576 60q0 42 60 52q42 0 52 -60q0 -42 -60 -52q-42 0 -52 60zM576 204q0 42 60 52q42 0 52 -60q0 -42 -60 -52q-42 0 -52 60zM576 348q0 42 60 52 q42 0 52 -60q0 -42 -60 -52q-42 0 -52 60zM576 492q0 42 60 52q42 0 52 -60q0 -42 -60 -52q-42 0 -52 60zM576 636q0 42 60 52q42 0 52 -60q0 -42 -60 -52q-42 0 -52 60zM576 780q0 42 60 52q42 0 52 -60q0 -42 -60 -52q-42 0 -52 60zM576 924q0 42 60 52q42 0 52 -60 q0 -42 -60 -52q-42 0 -52 60zM576 1068q0 42 60 52q42 0 52 -60q0 -42 -60 -52q-42 0 -52 60zM576 1212q0 42 60 52q42 0 52 -60q0 -42 -60 -52q-42 0 -52 60zM576 1356q0 42 60 52q42 0 52 -60q0 -42 -60 -52q-42 0 -52 60zM720 204q0 42 60 52q42 0 52 -60q0 -42 -60 -52 q-42 0 -52 60zM720 348q0 42 60 52q42 0 52 -60q0 -42 -60 -52q-42 0 -52 60zM720 492q0 42 60 52q42 0 52 -60q0 -42 -60 -52q-42 0 -52 60zM720 636q0 42 60 52q42 0 52 -60q0 -42 -60 -52q-42 0 -52 60zM720 780q0 42 60 52q42 0 52 -60q0 -42 -60 -52q-42 0 -52 60z M720 924q0 42 60 52q42 0 52 -60q0 -42 -60 -52q-42 0 -52 60zM720 1068q0 42 60 52q42 0 52 -60q0 -42 -60 -52q-42 0 -52 60zM720 1212q0 42 60 52q42 0 52 -60q0 -42 -60 -52q-42 0 -52 60zM720 1356q0 42 60 52q42 0 52 -60q0 -42 -60 -52q-42 0 -52 60z" />
<glyph unicode="v" d="M0 348q0 42 60 52q42 0 52 -60q0 -42 -60 -52q-42 0 -52 60zM0 492q0 42 60 52q42 0 52 -60q0 -42 -60 -52q-42 0 -52 60zM0 636q0 42 60 52q42 0 52 -60q0 -42 -60 -52q-42 0 -52 60zM0 780q0 42 60 52q42 0 52 -60q0 -42 -60 -52q-42 0 -52 60zM0 924q0 42 60 52 q42 0 52 -60q0 -42 -60 -52q-42 0 -52 60zM0 1068q0 42 60 52q42 0 52 -60q0 -42 -60 -52q-42 0 -52 60zM0 1212q0 42 60 52q42 0 52 -60q0 -42 -60 -52q-42 0 -52 60zM0 1356q0 42 60 52q42 0 52 -60q0 -42 -60 -52q-42 0 -52 60zM144 204q0 42 60 52q42 0 52 -60 q0 -42 -60 -52q-42 0 -52 60zM144 348q0 42 60 52q42 0 52 -60q0 -42 -60 -52q-42 0 -52 60zM144 492q0 42 60 52q42 0 52 -60q0 -42 -60 -52q-42 0 -52 60zM144 636q0 42 60 52q42 0 52 -60q0 -42 -60 -52q-42 0 -52 60zM144 780q0 42 60 52q42 0 52 -60q0 -42 -60 -52 q-42 0 -52 60zM144 924q0 42 60 52q42 0 52 -60q0 -42 -60 -52q-42 0 -52 60zM144 1068q0 42 60 52q42 0 52 -60q0 -42 -60 -52q-42 0 -52 60zM144 1212q0 42 60 52q42 0 52 -60q0 -42 -60 -52q-42 0 -52 60zM144 1356q0 42 60 52q42 0 52 -60q0 -42 -60 -52q-42 0 -52 60z M288 60q0 42 60 52q42 0 52 -60q0 -42 -60 -52q-42 0 -52 60zM288 204q0 42 60 52q42 0 52 -60q0 -42 -60 -52q-42 0 -52 60zM432 60q0 42 60 52q42 0 52 -60q0 -42 -60 -52q-42 0 -52 60zM432 204q0 42 60 52q42 0 52 -60q0 -42 -60 -52q-42 0 -52 60zM576 204q0 42 60 52 q42 0 52 -60q0 -42 -60 -52q-42 0 -52 60zM576 348q0 42 60 52q42 0 52 -60q0 -42 -60 -52q-42 0 -52 60zM576 492q0 42 60 52q42 0 52 -60q0 -42 -60 -52q-42 0 -52 60zM576 636q0 42 60 52q42 0 52 -60q0 -42 -60 -52q-42 0 -52 60zM576 780q0 42 60 52q42 0 52 -60 q0 -42 -60 -52q-42 0 -52 60zM576 924q0 42 60 52q42 0 52 -60q0 -42 -60 -52q-42 0 -52 60zM576 1068q0 42 60 52q42 0 52 -60q0 -42 -60 -52q-42 0 -52 60zM576 1212q0 42 60 52q42 0 52 -60q0 -42 -60 -52q-42 0 -52 60zM576 1356q0 42 60 52q42 0 52 -60q0 -42 -60 -52 q-42 0 -52 60zM720 348q0 42 60 52q42 0 52 -60q0 -42 -60 -52q-42 0 -52 60zM720 492q0 42 60 52q42 0 52 -60q0 -42 -60 -52q-42 0 -52 60zM720 636q0 42 60 52q42 0 52 -60q0 -42 -60 -52q-42 0 -52 60zM720 780q0 42 60 52q42 0 52 -60q0 -42 -60 -52q-42 0 -52 60z M720 924q0 42 60 52q42 0 52 -60q0 -42 -60 -52q-42 0 -52 60zM720 1068q0 42 60 52q42 0 52 -60q0 -42 -60 -52q-42 0 -52 60zM720 1212q0 42 60 52q42 0 52 -60q0 -42 -60 -52q-42 0 -52 60zM720 1356q0 42 60 52q42 0 52 -60q0 -42 -60 -52q-42 0 -52 60z" />
<glyph unicode="w" horiz-adv-x="1097" d="M0 60q0 42 60 52q42 0 52 -60q0 -42 -60 -52q-42 0 -52 60zM0 204q0 42 60 52q42 0 52 -60q0 -42 -60 -52q-42 0 -52 60zM0 348q0 42 60 52q42 0 52 -60q0 -42 -60 -52q-42 0 -52 60zM0 492q0 42 60 52q42 0 52 -60q0 -42 -60 -52q-42 0 -52 60zM0 636q0 42 60 52 q42 0 52 -60q0 -42 -60 -52q-42 0 -52 60zM0 780q0 42 60 52q42 0 52 -60q0 -42 -60 -52q-42 0 -52 60zM0 924q0 42 60 52q42 0 52 -60q0 -42 -60 -52q-42 0 -52 60zM0 1068q0 42 60 52q42 0 52 -60q0 -42 -60 -52q-42 0 -52 60zM0 1212q0 42 60 52q42 0 52 -60 q0 -42 -60 -52q-42 0 -52 60zM0 1356q0 42 60 52q42 0 52 -60q0 -42 -60 -52q-42 0 -52 60zM144 204q0 42 60 52q42 0 52 -60q0 -42 -60 -52q-42 0 -52 60zM144 348q0 42 60 52q42 0 52 -60q0 -42 -60 -52q-42 0 -52 60zM144 492q0 42 60 52q42 0 52 -60q0 -42 -60 -52 q-42 0 -52 60zM144 636q0 42 60 52q42 0 52 -60q0 -42 -60 -52q-42 0 -52 60zM144 780q0 42 60 52q42 0 52 -60q0 -42 -60 -52q-42 0 -52 60zM144 924q0 42 60 52q42 0 52 -60q0 -42 -60 -52q-42 0 -52 60zM144 1068q0 42 60 52q42 0 52 -60q0 -42 -60 -52q-42 0 -52 60z M144 1212q0 42 60 52q42 0 52 -60q0 -42 -60 -52q-42 0 -52 60zM288 348q0 42 60 52q42 0 52 -60q0 -42 -60 -52q-42 0 -52 60zM288 492q0 42 60 52q42 0 52 -60q0 -42 -60 -52q-42 0 -52 60zM436 492q10 48 56 48q48 -10 48 -56q-10 -48 -56 -48q-48 10 -48 56zM436 636 q10 48 56 48q48 -10 48 -56q-10 -48 -56 -48q-48 10 -48 56zM580 348q10 48 56 48q48 -10 48 -56q-10 -48 -56 -48q-48 10 -48 56zM580 492q10 48 56 48q48 -10 48 -56q-10 -48 -56 -48q-48 10 -48 56zM724 204q10 48 56 48q48 -10 48 -56q-10 -48 -56 -48q-48 10 -48 56z M724 348q10 48 56 48q48 -10 48 -56q-10 -48 -56 -48q-48 10 -48 56zM724 492q10 48 56 48q48 -10 48 -56q-10 -48 -56 -48q-48 10 -48 56zM724 636q10 48 56 48q48 -10 48 -56q-10 -48 -56 -48q-48 10 -48 56zM724 780q10 48 56 48q48 -10 48 -56q-10 -48 -56 -48 q-48 10 -48 56zM724 924q10 48 56 48q48 -10 48 -56q-10 -48 -56 -48q-48 10 -48 56zM724 1068q10 48 56 48q48 -10 48 -56q-10 -48 -56 -48q-48 10 -48 56zM724 1212q10 48 56 48q48 -10 48 -56q-10 -48 -56 -48q-48 10 -48 56zM868 60q10 48 56 48q48 -10 48 -56 q-10 -48 -56 -48q-48 10 -48 56zM868 204q10 48 56 48q48 -10 48 -56q-10 -48 -56 -48q-48 10 -48 56zM868 348q10 48 56 48q48 -10 48 -56q-10 -48 -56 -48q-48 10 -48 56zM868 492q10 48 56 48q48 -10 48 -56q-10 -48 -56 -48q-48 10 -48 56zM868 636q10 48 56 48 q48 -10 48 -56q-10 -48 -56 -48q-48 10 -48 56zM868 780q10 48 56 48q48 -10 48 -56q-10 -48 -56 -48q-48 10 -48 56zM868 924q10 48 56 48q48 -10 48 -56q-10 -48 -56 -48q-48 10 -48 56zM868 1068q10 48 56 48q48 -10 48 -56q-10 -48 -56 -48q-48 10 -48 56zM868 1212 q10 48 56 48q48 -10 48 -56q-10 -48 -56 -48q-48 10 -48 56zM868 1356q10 48 56 48q48 -10 48 -56q-10 -48 -56 -48q-48 10 -48 56z" />
<glyph unicode="x" d="M0 60q0 42 60 52q42 0 52 -60q0 -42 -60 -52q-42 0 -52 60zM0 204q0 42 60 52q42 0 52 -60q0 -42 -60 -52q-42 0 -52 60zM0 348q0 42 60 52q42 0 52 -60q0 -42 -60 -52q-42 0 -52 60zM0 492q0 42 60 52q42 0 52 -60q0 -42 -60 -52q-42 0 -52 60zM0 924q0 42 60 52 q42 0 52 -60q0 -42 -60 -52q-42 0 -52 60zM0 1068q0 42 60 52q42 0 52 -60q0 -42 -60 -52q-42 0 -52 60zM0 1212q0 42 60 52q42 0 52 -60q0 -42 -60 -52q-42 0 -52 60zM0 1356q0 42 60 52q42 0 52 -60q0 -42 -60 -52q-42 0 -52 60zM144 204q0 42 60 52q42 0 52 -60 q0 -42 -60 -52q-42 0 -52 60zM144 348q0 42 60 52q42 0 52 -60q0 -42 -60 -52q-42 0 -52 60zM144 492q0 42 60 52q42 0 52 -60q0 -42 -60 -52q-42 0 -52 60zM144 924q0 42 60 52q42 0 52 -60q0 -42 -60 -52q-42 0 -52 60zM144 1068q0 42 60 52q42 0 52 -60q0 -42 -60 -52 q-42 0 -52 60zM144 1212q0 42 60 52q42 0 52 -60q0 -42 -60 -52q-42 0 -52 60zM288 636q0 42 60 52q42 0 52 -60q0 -42 -60 -52q-42 0 -52 60zM288 780q0 42 60 52q42 0 52 -60q0 -42 -60 -52q-42 0 -52 60zM432 636q0 42 60 52q42 0 52 -60q0 -42 -60 -52q-42 0 -52 60z M432 780q0 42 60 52q42 0 52 -60q0 -42 -60 -52q-42 0 -52 60zM576 204q0 42 60 52q42 0 52 -60q0 -42 -60 -52q-42 0 -52 60zM576 348q0 42 60 52q42 0 52 -60q0 -42 -60 -52q-42 0 -52 60zM576 492q0 42 60 52q42 0 52 -60q0 -42 -60 -52q-42 0 -52 60zM576 924 q0 42 60 52q42 0 52 -60q0 -42 -60 -52q-42 0 -52 60zM576 1068q0 42 60 52q42 0 52 -60q0 -42 -60 -52q-42 0 -52 60zM576 1212q0 42 60 52q42 0 52 -60q0 -42 -60 -52q-42 0 -52 60zM720 60q0 42 60 52q42 0 52 -60q0 -42 -60 -52q-42 0 -52 60zM720 204q0 42 60 52 q42 0 52 -60q0 -42 -60 -52q-42 0 -52 60zM720 348q0 42 60 52q42 0 52 -60q0 -42 -60 -52q-42 0 -52 60zM720 492q0 42 60 52q42 0 52 -60q0 -42 -60 -52q-42 0 -52 60zM720 924q0 42 60 52q42 0 52 -60q0 -42 -60 -52q-42 0 -52 60zM720 1068q0 42 60 52q42 0 52 -60 q0 -42 -60 -52q-42 0 -52 60zM720 1212q0 42 60 52q42 0 52 -60q0 -42 -60 -52q-42 0 -52 60zM720 1356q0 42 60 52q42 0 52 -60q0 -42 -60 -52q-42 0 -52 60z" />
<glyph unicode="y" d="M0 780q0 42 60 52q42 0 52 -60q0 -42 -60 -52q-42 0 -52 60zM0 924q0 42 60 52q42 0 52 -60q0 -42 -60 -52q-42 0 -52 60zM0 1068q0 42 60 52q42 0 52 -60q0 -42 -60 -52q-42 0 -52 60zM0 1212q0 42 60 52q42 0 52 -60q0 -42 -60 -52q-42 0 -52 60zM0 1356q0 42 60 52 q42 0 52 -60q0 -42 -60 -52q-42 0 -52 60zM144 636q0 42 60 52q42 0 52 -60q0 -42 -60 -52q-42 0 -52 60zM144 780q0 42 60 52q42 0 52 -60q0 -42 -60 -52q-42 0 -52 60zM144 924q0 42 60 52q42 0 52 -60q0 -42 -60 -52q-42 0 -52 60zM144 1068q0 42 60 52q42 0 52 -60 q0 -42 -60 -52q-42 0 -52 60zM144 1212q0 42 60 52q42 0 52 -60q0 -42 -60 -52q-42 0 -52 60zM288 60q0 42 60 52q42 0 52 -60q0 -42 -60 -52q-42 0 -52 60zM288 204q0 42 60 52q42 0 52 -60q0 -42 -60 -52q-42 0 -52 60zM288 348q0 42 60 52q42 0 52 -60q0 -42 -60 -52 q-42 0 -52 60zM288 492q0 42 60 52q42 0 52 -60q0 -42 -60 -52q-42 0 -52 60zM288 636q0 42 60 52q42 0 52 -60q0 -42 -60 -52q-42 0 -52 60zM288 780q0 42 60 52q42 0 52 -60q0 -42 -60 -52q-42 0 -52 60zM432 60q0 42 60 52q42 0 52 -60q0 -42 -60 -52q-42 0 -52 60z M432 204q0 42 60 52q42 0 52 -60q0 -42 -60 -52q-42 0 -52 60zM432 348q0 42 60 52q42 0 52 -60q0 -42 -60 -52q-42 0 -52 60zM432 492q0 42 60 52q42 0 52 -60q0 -42 -60 -52q-42 0 -52 60zM432 636q0 42 60 52q42 0 52 -60q0 -42 -60 -52q-42 0 -52 60zM432 780 q0 42 60 52q42 0 52 -60q0 -42 -60 -52q-42 0 -52 60zM576 636q0 42 60 52q42 0 52 -60q0 -42 -60 -52q-42 0 -52 60zM576 780q0 42 60 52q42 0 52 -60q0 -42 -60 -52q-42 0 -52 60zM576 924q0 42 60 52q42 0 52 -60q0 -42 -60 -52q-42 0 -52 60zM576 1068q0 42 60 52 q42 0 52 -60q0 -42 -60 -52q-42 0 -52 60zM576 1212q0 42 60 52q42 0 52 -60q0 -42 -60 -52q-42 0 -52 60zM720 780q0 42 60 52q42 0 52 -60q0 -42 -60 -52q-42 0 -52 60zM720 924q0 42 60 52q42 0 52 -60q0 -42 -60 -52q-42 0 -52 60zM720 1068q0 42 60 52q42 0 52 -60 q0 -42 -60 -52q-42 0 -52 60zM720 1212q0 42 60 52q42 0 52 -60q0 -42 -60 -52q-42 0 -52 60zM720 1356q0 42 60 52q42 0 52 -60q0 -42 -60 -52q-42 0 -52 60z" />
<glyph unicode="z" d="M0 60q0 42 60 52q42 0 52 -60q0 -42 -60 -52q-42 0 -52 60zM0 204q0 42 60 52q42 0 52 -60q0 -42 -60 -52q-42 0 -52 60zM0 348q0 42 60 52q42 0 52 -60q0 -42 -60 -52q-42 0 -52 60zM0 1212q0 42 60 52q42 0 52 -60q0 -42 -60 -52q-42 0 -52 60zM0 1356q0 42 60 52 q42 0 52 -60q0 -42 -60 -52q-42 0 -52 60zM144 60q0 42 60 52q42 0 52 -60q0 -42 -60 -52q-42 0 -52 60zM144 204q0 42 60 52q42 0 52 -60q0 -42 -60 -52q-42 0 -52 60zM144 348q0 42 60 52q42 0 52 -60q0 -42 -60 -52q-42 0 -52 60zM144 492q0 42 60 52q42 0 52 -60 q0 -42 -60 -52q-42 0 -52 60zM144 1212q0 42 60 52q42 0 52 -60q0 -42 -60 -52q-42 0 -52 60zM144 1356q0 42 60 52q42 0 52 -60q0 -42 -60 -52q-42 0 -52 60zM288 60q0 42 60 52q42 0 52 -60q0 -42 -60 -52q-42 0 -52 60zM288 204q0 42 60 52q42 0 52 -60q0 -42 -60 -52 q-42 0 -52 60zM288 492q0 42 60 52q42 0 52 -60q0 -42 -60 -52q-42 0 -52 60zM288 636q0 42 60 52q42 0 52 -60q0 -42 -60 -52q-42 0 -52 60zM288 1212q0 42 60 52q42 0 52 -60q0 -42 -60 -52q-42 0 -52 60zM288 1356q0 42 60 52q42 0 52 -60q0 -42 -60 -52q-42 0 -52 60z M432 60q0 42 60 52q42 0 52 -60q0 -42 -60 -52q-42 0 -52 60zM432 204q0 42 60 52q42 0 52 -60q0 -42 -60 -52q-42 0 -52 60zM432 636q0 42 60 52q42 0 52 -60q0 -42 -60 -52q-42 0 -52 60zM432 780q0 42 60 52q42 0 52 -60q0 -42 -60 -52q-42 0 -52 60zM432 1212 q0 42 60 52q42 0 52 -60q0 -42 -60 -52q-42 0 -52 60zM432 1356q0 42 60 52q42 0 52 -60q0 -42 -60 -52q-42 0 -52 60zM576 60q0 42 60 52q42 0 52 -60q0 -42 -60 -52q-42 0 -52 60zM576 204q0 42 60 52q42 0 52 -60q0 -42 -60 -52q-42 0 -52 60zM576 780q0 42 60 52 q42 0 52 -60q0 -42 -60 -52q-42 0 -52 60zM576 924q0 42 60 52q42 0 52 -60q0 -42 -60 -52q-42 0 -52 60zM576 1068q0 42 60 52q42 0 52 -60q0 -42 -60 -52q-42 0 -52 60zM576 1212q0 42 60 52q42 0 52 -60q0 -42 -60 -52q-42 0 -52 60zM576 1356q0 42 60 52q42 0 52 -60 q0 -42 -60 -52q-42 0 -52 60zM720 60q0 42 60 52q42 0 52 -60q0 -42 -60 -52q-42 0 -52 60zM720 204q0 42 60 52q42 0 52 -60q0 -42 -60 -52q-42 0 -52 60zM720 924q0 42 60 52q42 0 52 -60q0 -42 -60 -52q-42 0 -52 60zM720 1068q0 42 60 52q42 0 52 -60q0 -42 -60 -52 q-42 0 -52 60zM720 1212q0 42 60 52q42 0 52 -60q0 -42 -60 -52q-42 0 -52 60zM720 1356q0 42 60 52q42 0 52 -60q0 -42 -60 -52q-42 0 -52 60z" />
<glyph unicode="{" horiz-adv-x="1014" />
<glyph unicode="|" horiz-adv-x="1014" />
<glyph unicode="}" horiz-adv-x="1014" />
<glyph unicode="~" horiz-adv-x="902" d="M-5 764q0 42 60 52q42 0 52 -60q0 -42 -60 -52q-42 0 -52 60zM-5 908q0 42 60 52q42 0 52 -60q0 -42 -60 -52q-42 0 -52 60zM-5 1052q0 42 60 52q42 0 52 -60q0 -42 -60 -52q-42 0 -52 60zM139 1052q0 42 60 52q42 0 52 -60q0 -42 -60 -52q-42 0 -52 60zM283 764 q0 42 60 52q42 0 52 -60q0 -42 -60 -52q-42 0 -52 60zM283 908q0 42 60 52q42 0 52 -60q0 -42 -60 -52q-42 0 -52 60zM283 1052q0 42 60 52q42 0 52 -60q0 -42 -60 -52q-42 0 -52 60zM427 764q0 42 60 52q42 0 52 -60q0 -42 -60 -52q-42 0 -52 60zM571 764q0 42 60 52 q42 0 52 -60q0 -42 -60 -52q-42 0 -52 60zM571 908q0 42 60 52q42 0 52 -60q0 -42 -60 -52q-42 0 -52 60zM571 1052q0 42 60 52q42 0 52 -60q0 -42 -60 -52q-42 0 -52 60z" />
<glyph unicode="&#xa1;" horiz-adv-x="672" d="M207 50q10 60 52 60q60 -10 60 -52q-10 -60 -52 -60q-60 10 -60 52zM207 -94q10 60 52 60q60 -10 60 -52q-10 -60 -52 -60q-60 10 -60 52zM207 194q10 60 52 60q60 -10 60 -52q-10 -60 -52 -60q-60 10 -60 52zM207 -238q10 60 52 60q60 -10 60 -52q-10 -60 -52 -60 q-60 10 -60 52zM207 338q10 60 52 60q60 -10 60 -52q-10 -60 -52 -60q-60 10 -60 52zM207 482q10 60 52 60q60 -10 60 -52q-10 -60 -52 -60q-60 10 -60 52zM207 914q10 60 52 60q60 -10 60 -52q-10 -60 -52 -60q-60 10 -60 52zM207 1058q10 60 52 60q60 -10 60 -52 q-10 -60 -52 -60q-60 10 -60 52zM351 50q10 60 52 60q60 -10 60 -52q-10 -60 -52 -60q-60 10 -60 52zM351 -94q10 60 52 60q60 -10 60 -52q-10 -60 -52 -60q-60 10 -60 52zM351 194q10 60 52 60q60 -10 60 -52q-10 -60 -52 -60q-60 10 -60 52zM351 -238q10 60 52 60 q60 -10 60 -52q-10 -60 -52 -60q-60 10 -60 52zM351 338q10 60 52 60q60 -10 60 -52q-10 -60 -52 -60q-60 10 -60 52zM351 482q10 60 52 60q60 -10 60 -52q-10 -60 -52 -60q-60 10 -60 52zM351 914q10 60 52 60q60 -10 60 -52q-10 -60 -52 -60q-60 10 -60 52zM351 1058 q10 60 52 60q60 -10 60 -52q-10 -60 -52 -60q-60 10 -60 52z" />
<glyph unicode="&#xa2;" horiz-adv-x="1139" />
<glyph unicode="&#xa3;" horiz-adv-x="1014" />
<glyph unicode="&#xa4;" horiz-adv-x="1014" />
<glyph unicode="&#xa5;" horiz-adv-x="1001" d="M0 348q0 42 60 52q42 0 52 -60q0 -42 -60 -52q-42 0 -52 60zM0 780q0 42 60 52q42 0 52 -60q0 -42 -60 -52q-42 0 -52 60zM0 924q0 42 60 52q42 0 52 -60q0 -42 -60 -52q-42 0 -52 60zM0 1068q0 42 60 52q42 0 52 -60q0 -42 -60 -52q-42 0 -52 60zM0 1212q0 42 60 52 q42 0 52 -60q0 -42 -60 -52q-42 0 -52 60zM0 1356q0 42 60 52q42 0 52 -60q0 -42 -60 -52q-42 0 -52 60zM144 348q0 42 60 52q42 0 52 -60q0 -42 -60 -52q-42 0 -52 60zM144 636q0 42 60 52q42 0 52 -60q0 -42 -60 -52q-42 0 -52 60zM144 780q0 42 60 52q42 0 52 -60 q0 -42 -60 -52q-42 0 -52 60zM144 924q0 42 60 52q42 0 52 -60q0 -42 -60 -52q-42 0 -52 60zM144 1068q0 42 60 52q42 0 52 -60q0 -42 -60 -52q-42 0 -52 60zM144 1212q0 42 60 52q42 0 52 -60q0 -42 -60 -52q-42 0 -52 60zM288 60q0 42 60 52q42 0 52 -60q0 -42 -60 -52 q-42 0 -52 60zM288 204q0 42 60 52q42 0 52 -60q0 -42 -60 -52q-42 0 -52 60zM288 348q0 42 60 52q42 0 52 -60q0 -42 -60 -52q-42 0 -52 60zM288 492q0 42 60 52q42 0 52 -60q0 -42 -60 -52q-42 0 -52 60zM288 636q0 42 60 52q42 0 52 -60q0 -42 -60 -52q-42 0 -52 60z M288 780q0 42 60 52q42 0 52 -60q0 -42 -60 -52q-42 0 -52 60zM432 60q0 42 60 52q42 0 52 -60q0 -42 -60 -52q-42 0 -52 60zM432 204q0 42 60 52q42 0 52 -60q0 -42 -60 -52q-42 0 -52 60zM432 348q0 42 60 52q42 0 52 -60q0 -42 -60 -52q-42 0 -52 60zM432 492q0 42 60 52 q42 0 52 -60q0 -42 -60 -52q-42 0 -52 60zM432 636q0 42 60 52q42 0 52 -60q0 -42 -60 -52q-42 0 -52 60zM432 780q0 42 60 52q42 0 52 -60q0 -42 -60 -52q-42 0 -52 60zM576 348q0 42 60 52q42 0 52 -60q0 -42 -60 -52q-42 0 -52 60zM576 636q0 42 60 52q42 0 52 -60 q0 -42 -60 -52q-42 0 -52 60zM576 780q0 42 60 52q42 0 52 -60q0 -42 -60 -52q-42 0 -52 60zM576 924q0 42 60 52q42 0 52 -60q0 -42 -60 -52q-42 0 -52 60zM576 1068q0 42 60 52q42 0 52 -60q0 -42 -60 -52q-42 0 -52 60zM576 1212q0 42 60 52q42 0 52 -60q0 -42 -60 -52 q-42 0 -52 60zM720 348q0 42 60 52q42 0 52 -60q0 -42 -60 -52q-42 0 -52 60zM720 780q0 42 60 52q42 0 52 -60q0 -42 -60 -52q-42 0 -52 60zM720 924q0 42 60 52q42 0 52 -60q0 -42 -60 -52q-42 0 -52 60zM720 1068q0 42 60 52q42 0 52 -60q0 -42 -60 -52q-42 0 -52 60z M720 1212q0 42 60 52q42 0 52 -60q0 -42 -60 -52q-42 0 -52 60zM720 1356q0 42 60 52q42 0 52 -60q0 -42 -60 -52q-42 0 -52 60z" />
<glyph unicode="&#xa6;" horiz-adv-x="1014" />
<glyph unicode="&#xa7;" horiz-adv-x="1014" />
<glyph unicode="&#xa8;" horiz-adv-x="1024" d="M224 1644q0 42 60 52q42 0 52 -60q0 -42 -60 -52q-42 0 -52 60zM512 1644q0 42 60 52q42 0 52 -60q0 -42 -60 -52q-42 0 -52 60z" />
<glyph unicode="&#xa9;" horiz-adv-x="1005" d="M-3 697q0 42 60 52q42 0 52 -60q0 -42 -60 -52q-42 0 -52 60zM-3 841q0 42 60 52q42 0 52 -60q0 -42 -60 -52q-42 0 -52 60zM-3 985q0 42 60 52q42 0 52 -60q0 -42 -60 -52q-42 0 -52 60zM-3 1129q0 42 60 52q42 0 52 -60q0 -42 -60 -52q-42 0 -52 60zM-3 1273 q0 42 60 52q42 0 52 -60q0 -42 -60 -52q-42 0 -52 60zM-3 1417q0 42 60 52q42 0 52 -60q0 -42 -60 -52q-42 0 -52 60zM141 553q0 42 60 52q42 0 52 -60q0 -42 -60 -52q-42 0 -52 60zM141 1561q0 42 60 52q42 0 52 -60q0 -42 -60 -52q-42 0 -52 60zM285 553q0 42 60 52 q42 0 52 -60q0 -42 -60 -52q-42 0 -52 60zM285 841q0 42 60 52q42 0 52 -60q0 -42 -60 -52q-42 0 -52 60zM285 985q0 42 60 52q42 0 52 -60q0 -42 -60 -52q-42 0 -52 60zM285 1129q0 42 60 52q42 0 52 -60q0 -42 -60 -52q-42 0 -52 60zM285 1273q0 42 60 52q42 0 52 -60 q0 -42 -60 -52q-42 0 -52 60zM285 1561q0 42 60 52q42 0 52 -60q0 -42 -60 -52q-42 0 -52 60zM429 553q0 42 60 52q42 0 52 -60q0 -42 -60 -52q-42 0 -52 60zM429 841q0 42 60 52q42 0 52 -60q0 -42 -60 -52q-42 0 -52 60zM429 1273q0 42 60 52q42 0 52 -60q0 -42 -60 -52 q-42 0 -52 60zM429 1561q0 42 60 52q42 0 52 -60q0 -42 -60 -52q-42 0 -52 60zM573 553q0 42 60 52q42 0 52 -60q0 -42 -60 -52q-42 0 -52 60zM573 1561q0 42 60 52q42 0 52 -60q0 -42 -60 -52q-42 0 -52 60zM717 697q0 42 60 52q42 0 52 -60q0 -42 -60 -52q-42 0 -52 60z M717 841q0 42 60 52q42 0 52 -60q0 -42 -60 -52q-42 0 -52 60zM717 985q0 42 60 52q42 0 52 -60q0 -42 -60 -52q-42 0 -52 60zM717 1129q0 42 60 52q42 0 52 -60q0 -42 -60 -52q-42 0 -52 60zM717 1273q0 42 60 52q42 0 52 -60q0 -42 -60 -52q-42 0 -52 60zM717 1417 q0 42 60 52q42 0 52 -60q0 -42 -60 -52q-42 0 -52 60z" />
<glyph unicode="&#xaa;" horiz-adv-x="648" />
<glyph unicode="&#xab;" horiz-adv-x="944" />
<glyph unicode="&#xac;" horiz-adv-x="1014" />
<glyph unicode="&#xad;" horiz-adv-x="1011" d="M4 766q0 42 60 52q42 0 52 -60q0 -42 -60 -52q-42 0 -52 60zM4 910q0 42 60 52q42 0 52 -60q0 -42 -60 -52q-42 0 -52 60zM148 766q0 42 60 52q42 0 52 -60q0 -42 -60 -52q-42 0 -52 60zM148 910q0 42 60 52q42 0 52 -60q0 -42 -60 -52q-42 0 -52 60zM292 766q0 42 60 52 q42 0 52 -60q0 -42 -60 -52q-42 0 -52 60zM292 910q0 42 60 52q42 0 52 -60q0 -42 -60 -52q-42 0 -52 60zM436 766q0 42 60 52q42 0 52 -60q0 -42 -60 -52q-42 0 -52 60zM436 910q0 42 60 52q42 0 52 -60q0 -42 -60 -52q-42 0 -52 60zM580 766q0 42 60 52q42 0 52 -60 q0 -42 -60 -52q-42 0 -52 60zM580 910q0 42 60 52q42 0 52 -60q0 -42 -60 -52q-42 0 -52 60zM724 766q0 42 60 52q42 0 52 -60q0 -42 -60 -52q-42 0 -52 60zM724 910q0 42 60 52q42 0 52 -60q0 -42 -60 -52q-42 0 -52 60z" />
<glyph unicode="&#xae;" horiz-adv-x="1005" d="M9 684q0 42 60 52q42 0 52 -60q0 -42 -60 -52q-42 0 -52 60zM9 828q0 42 60 52q42 0 52 -60q0 -42 -60 -52q-42 0 -52 60zM9 972q0 42 60 52q42 0 52 -60q0 -42 -60 -52q-42 0 -52 60zM9 1116q0 42 60 52q42 0 52 -60q0 -42 -60 -52q-42 0 -52 60zM9 1260q0 42 60 52 q42 0 52 -60q0 -42 -60 -52q-42 0 -52 60zM9 1404q0 42 60 52q42 0 52 -60q0 -42 -60 -52q-42 0 -52 60zM153 540q0 42 60 52q42 0 52 -60q0 -42 -60 -52q-42 0 -52 60zM153 1548q0 42 60 52q42 0 52 -60q0 -42 -60 -52q-42 0 -52 60zM297 540q0 42 60 52q42 0 52 -60 q0 -42 -60 -52q-42 0 -52 60zM297 828q0 42 60 52q42 0 52 -60q0 -42 -60 -52q-42 0 -52 60zM297 972q0 42 60 52q42 0 52 -60q0 -42 -60 -52q-42 0 -52 60zM297 1116q0 42 60 52q42 0 52 -60q0 -42 -60 -52q-42 0 -52 60zM297 1260q0 42 60 52q42 0 52 -60q0 -42 -60 -52 q-42 0 -52 60zM297 1548q0 42 60 52q42 0 52 -60q0 -42 -60 -52q-42 0 -52 60zM441 540q0 42 60 52q42 0 52 -60q0 -42 -60 -52q-42 0 -52 60zM441 1260q0 42 60 52q42 0 52 -60q0 -42 -60 -52q-42 0 -52 60zM441 1548q0 42 60 52q42 0 52 -60q0 -42 -60 -52q-42 0 -52 60z M585 540q0 42 60 52q42 0 52 -60q0 -42 -60 -52q-42 0 -52 60zM585 1548q0 42 60 52q42 0 52 -60q0 -42 -60 -52q-42 0 -52 60zM729 684q0 42 60 52q42 0 52 -60q0 -42 -60 -52q-42 0 -52 60zM729 828q0 42 60 52q42 0 52 -60q0 -42 -60 -52q-42 0 -52 60zM729 972 q0 42 60 52q42 0 52 -60q0 -42 -60 -52q-42 0 -52 60zM729 1116q0 42 60 52q42 0 52 -60q0 -42 -60 -52q-42 0 -52 60zM729 1260q0 42 60 52q42 0 52 -60q0 -42 -60 -52q-42 0 -52 60zM729 1404q0 42 60 52q42 0 52 -60q0 -42 -60 -52q-42 0 -52 60z" />
<glyph unicode="&#xaf;" horiz-adv-x="670" />
<glyph unicode="&#xb0;" horiz-adv-x="674" />
<glyph unicode="&#xb1;" horiz-adv-x="1014" />
<glyph unicode="&#xb2;" horiz-adv-x="1014" />
<glyph unicode="&#xb3;" horiz-adv-x="1014" />
<glyph unicode="&#xb4;" horiz-adv-x="1024" d="M360 1644q0 42 60 52q42 0 52 -60q0 -42 -60 -52q-42 0 -52 60zM504 1788q0 42 60 52q42 0 52 -60q0 -42 -60 -52q-42 0 -52 60z" />
<glyph unicode="&#xb5;" horiz-adv-x="1180" />
<glyph unicode="&#xb6;" horiz-adv-x="1024" />
<glyph unicode="&#xb7;" horiz-adv-x="508" />
<glyph unicode="&#xb8;" horiz-adv-x="1024" />
<glyph unicode="&#xb9;" horiz-adv-x="1014" />
<glyph unicode="&#xba;" horiz-adv-x="718" />
<glyph unicode="&#xbb;" horiz-adv-x="944" />
<glyph unicode="&#xbc;" horiz-adv-x="1708" />
<glyph unicode="&#xbd;" horiz-adv-x="1964" />
<glyph unicode="&#xbe;" horiz-adv-x="1708" />
<glyph unicode="&#xbf;" horiz-adv-x="1001" d="M12 204q0 42 60 52q42 0 52 -60q0 -42 -60 -52q-42 0 -52 60zM12 348q0 42 60 52q42 0 52 -60q0 -42 -60 -52q-42 0 -52 60zM12 492q0 42 60 52q42 0 52 -60q0 -42 -60 -52q-42 0 -52 60zM12 636q0 42 60 52q42 0 52 -60q0 -42 -60 -52q-42 0 -52 60zM156 60q0 42 60 52 q42 0 52 -60q0 -42 -60 -52q-42 0 -52 60zM156 204q0 42 60 52q42 0 52 -60q0 -42 -60 -52q-42 0 -52 60zM156 348q0 42 60 52q42 0 52 -60q0 -42 -60 -52q-42 0 -52 60zM156 492q0 42 60 52q42 0 52 -60q0 -42 -60 -52q-42 0 -52 60zM156 636q0 42 60 52q42 0 52 -60 q0 -42 -60 -52q-42 0 -52 60zM156 780q0 42 60 52q42 0 52 -60q0 -42 -60 -52q-42 0 -52 60zM300 60q0 42 60 52q42 0 52 -60q0 -42 -60 -52q-42 0 -52 60zM300 204q0 42 60 52q42 0 52 -60q0 -42 -60 -52q-42 0 -52 60zM300 780q0 42 60 52q42 0 52 -60q0 -42 -60 -52 q-42 0 -52 60zM300 924q0 42 60 52q42 0 52 -60q0 -42 -60 -52q-42 0 -52 60zM300 1212q0 42 60 52q42 0 52 -60q0 -42 -60 -52q-42 0 -52 60zM300 1356q0 42 60 52q42 0 52 -60q0 -42 -60 -52q-42 0 -52 60zM444 60q0 42 60 52q42 0 52 -60q0 -42 -60 -52q-42 0 -52 60z M444 204q0 42 60 52q42 0 52 -60q0 -42 -60 -52q-42 0 -52 60zM444 780q0 42 60 52q42 0 52 -60q0 -42 -60 -52q-42 0 -52 60zM444 924q0 42 60 52q42 0 52 -60q0 -42 -60 -52q-42 0 -52 60zM444 1212q0 42 60 52q42 0 52 -60q0 -42 -60 -52q-42 0 -52 60zM444 1356 q0 42 60 52q42 0 52 -60q0 -42 -60 -52q-42 0 -52 60zM588 60q0 42 60 52q42 0 52 -60q0 -42 -60 -52q-42 0 -52 60zM588 204q0 42 60 52q42 0 52 -60q0 -42 -60 -52q-42 0 -52 60zM588 348q0 42 60 52q42 0 52 -60q0 -42 -60 -52q-42 0 -52 60zM732 204q0 42 60 52 q42 0 52 -60q0 -42 -60 -52q-42 0 -52 60zM732 348q0 42 60 52q42 0 52 -60q0 -42 -60 -52q-42 0 -52 60z" />
<glyph unicode="&#xc0;" d="M0 60q0 42 60 52q42 0 52 -60q0 -42 -60 -52q-42 0 -52 60zM0 204q0 42 60 52q42 0 52 -60q0 -42 -60 -52q-42 0 -52 60zM0 348q0 42 60 52q42 0 52 -60q0 -42 -60 -52q-42 0 -52 60zM0 492q0 42 60 52q42 0 52 -60q0 -42 -60 -52q-42 0 -52 60zM0 636q0 42 60 52 q42 0 52 -60q0 -42 -60 -52q-42 0 -52 60zM0 780q0 42 60 52q42 0 52 -60q0 -42 -60 -52q-42 0 -52 60zM0 924q0 42 60 52q42 0 52 -60q0 -42 -60 -52q-42 0 -52 60zM0 1068q0 42 60 52q42 0 52 -60q0 -42 -60 -52q-42 0 -52 60zM0 1212q0 42 60 52q42 0 52 -60 q0 -42 -60 -52q-42 0 -52 60zM144 60q0 42 60 52q42 0 52 -60q0 -42 -60 -52q-42 0 -52 60zM144 204q0 42 60 52q42 0 52 -60q0 -42 -60 -52q-42 0 -52 60zM144 348q0 42 60 52q42 0 52 -60q0 -42 -60 -52q-42 0 -52 60zM144 492q0 42 60 52q42 0 52 -60q0 -42 -60 -52 q-42 0 -52 60zM144 636q0 42 60 52q42 0 52 -60q0 -42 -60 -52q-42 0 -52 60zM144 780q0 42 60 52q42 0 52 -60q0 -42 -60 -52q-42 0 -52 60zM144 924q0 42 60 52q42 0 52 -60q0 -42 -60 -52q-42 0 -52 60zM144 1068q0 42 60 52q42 0 52 -60q0 -42 -60 -52q-42 0 -52 60z M144 1212q0 42 60 52q42 0 52 -60q0 -42 -60 -52q-42 0 -52 60zM144 1356q0 42 60 52q42 0 52 -60q0 -42 -60 -52q-42 0 -52 60zM220 1788q10 48 56 48q48 -10 48 -56q-10 -48 -56 -48q-48 10 -48 56zM288 636q0 42 60 52q42 0 52 -60q0 -42 -60 -52q-42 0 -52 60zM288 1212 q0 42 60 52q42 0 52 -60q0 -42 -60 -52q-42 0 -52 60zM288 1356q0 42 60 52q42 0 52 -60q0 -42 -60 -52q-42 0 -52 60zM364 1644q10 48 56 48q48 -10 48 -56q-10 -48 -56 -48q-48 10 -48 56zM432 636q0 42 60 52q42 0 52 -60q0 -42 -60 -52q-42 0 -52 60zM432 1212 q0 42 60 52q42 0 52 -60q0 -42 -60 -52q-42 0 -52 60zM432 1356q0 42 60 52q42 0 52 -60q0 -42 -60 -52q-42 0 -52 60zM576 60q0 42 60 52q42 0 52 -60q0 -42 -60 -52q-42 0 -52 60zM576 204q0 42 60 52q42 0 52 -60q0 -42 -60 -52q-42 0 -52 60zM576 348q0 42 60 52 q42 0 52 -60q0 -42 -60 -52q-42 0 -52 60zM576 492q0 42 60 52q42 0 52 -60q0 -42 -60 -52q-42 0 -52 60zM576 636q0 42 60 52q42 0 52 -60q0 -42 -60 -52q-42 0 -52 60zM576 780q0 42 60 52q42 0 52 -60q0 -42 -60 -52q-42 0 -52 60zM576 924q0 42 60 52q42 0 52 -60 q0 -42 -60 -52q-42 0 -52 60zM576 1068q0 42 60 52q42 0 52 -60q0 -42 -60 -52q-42 0 -52 60zM576 1212q0 42 60 52q42 0 52 -60q0 -42 -60 -52q-42 0 -52 60zM576 1356q0 42 60 52q42 0 52 -60q0 -42 -60 -52q-42 0 -52 60zM720 60q0 42 60 52q42 0 52 -60q0 -42 -60 -52 q-42 0 -52 60zM720 204q0 42 60 52q42 0 52 -60q0 -42 -60 -52q-42 0 -52 60zM720 348q0 42 60 52q42 0 52 -60q0 -42 -60 -52q-42 0 -52 60zM720 492q0 42 60 52q42 0 52 -60q0 -42 -60 -52q-42 0 -52 60zM720 636q0 42 60 52q42 0 52 -60q0 -42 -60 -52q-42 0 -52 60z M720 780q0 42 60 52q42 0 52 -60q0 -42 -60 -52q-42 0 -52 60zM720 924q0 42 60 52q42 0 52 -60q0 -42 -60 -52q-42 0 -52 60zM720 1068q0 42 60 52q42 0 52 -60q0 -42 -60 -52q-42 0 -52 60zM720 1212q0 42 60 52q42 0 52 -60q0 -42 -60 -52q-42 0 -52 60z" />
</font>
</defs>
</svg>
